<?xml version="1.0"?>
<svg xmlns="http://www.w3.org/2000/svg" version="1.2" baseProfile="tiny" width="100%" height="100%" stroke-linecap="round" stroke-linejoin="round">
<g id="TOWN_MOI_1091016">
<path d="M 704.79 436.22 703.02 436.76 695.73 437.41 690.21 438.19 676.59 440.88 671.32 441.22 669.32 440.93 666.46 439.62 661.26 435.46 652.19 427.47 649.22 425.17 643.82 420.45 633.52 412.7 619.94 405.17 616.93 403.3 615.29 401.65 612.94 397.06 611.64 395.03 611.08 392.45 609.14 389.76 604.19 386.23 600.02 384.25 592.73 380.26 584.07 376.1 581.52 375.44 573.49 374.78 565.77 374.93 562.18 375.52 554.84 375.99 551.28 376.52 543.64 376.12 541.53 376.29 535.53 377.4 528.72 378.24 522.98 382.61 520.04 385.36 517.75 387.01 513.3 389.8 508.62 395.84 505.9 398.22 503.59 399.72 501.28 400.51 502.57 405.21 502.71 407.53 502.2 411.14 501.22 414.79 501.71 417.36 500.98 418.19 498.66 418.81 496.65 418.93 493.31 420.02 488.72 419.75 486.32 420.29 478.36 419.79 477.46 420.33 472.9 425.37 466.63 426.71 464.57 427.35 461.08 431.06 458.74 432.77 457.12 434.42 453.45 436.34 453.54 437.52 455.65 438.22 454.39 439.85 450.39 441.05 444.49 448.68 440.9 453.04 436.79 452.85 436.17 453.11 435.41 459.14 435.48 466.38 429.98 478.48 423.92 489.31 421.23 491.73 415.9 494.83 412.27 496.08 406.48 498.7 402.49 498.89 406.56 495.97 406.4 493.77 407.06 492.5 406.73 491.06 407.23 486.2 408.71 483.32 410.78 480.62 409.8 479.54 410.3 474.32 410.34 468.21 409.74 464.92 409.93 463.3 411.92 457.72 413.08 456.09 413.63 448.18 413.89 447.22 415.25 446.14 414.47 445 403.06 437.43 391.75 429.29 385.2 422.08 385.14 407.46 385.9 398.28 386.52 379.52 386.31 377.31 391.91 378.9 395.28 378.77 407.18 375.17 416.43 371.8 411.99 360.73 402.49 329.75 401.34 320.28 416.85 318.78 416.62 315.45 417.87 314.62 418.97 312.92 417.12 295.84 406.64 296.81 404.02 272.88 402.37 256.66 400.2 247.9 399.41 243.55 397.74 236.74 397.21 233.53 395.83 229.75 395.02 226.69 394.99 225.42 394.19 223.83 393.33 220.93 388.97 211.84 396.01 203.8 400.5 197.5 403.66 190.78 405.35 184.6 405.95 180.78 406.36 176.55 405.4 170.6 401.87 155.33 399.93 148.14 398.82 142.61 397.56 137.79 396.8 133.45 395.7 129.95 391.68 114.28 386.07 90.47 379.86 90.95 375.79 93.3 373.35 96.23 359.63 123.52 353.83 134.84 352.61 136.73 338.55 113.8 334.41 106.78 326.25 93.45 310.83 67.85 308.58 65.22 297.26 58.03 297.72 55.75 297.89 51.93 296.79 47.61 294.49 43.05 292.09 40.23 289.19 34.1 288.88 32.39 290.35 30.69 295.58 28.12 297.64 22.64 297.68 20.02 298.83 16.97 298.09 15.23 295.13 13.83 294.82 12.42 295.55 10.14 297.15 9 300.45 8.69 305.59 8.7 310.89 12.02 314.64 15.12 318.42 19.97 320.99 22.78 321.73 24.94 321.6 26.62 319.76 28.85 319.52 30.17 321.89 32.42 328.79 39.48 332.23 42.09 333.62 42.51 337.98 42.91 341.84 44.08 344.34 43.67 347.51 41.73 352.04 37.16 352.75 34.9 352.47 32.67 351.04 29.11 349.73 23.89 347.6 18.42 346.16 13.35 345.06 10.63 342.85 3.96 342.62 1.89 344.63 1.86 349.48 2.74 355.1 3.34 363.88 7.66 366.68 8.53 368.28 8.28 370.03 6.43 372.83 2.84 374.63 2.24 379.66 2.71 382.27 1.25 383.42 1 387.42 1.92 389.44 2.7 391.88 2.6 394.1 5.84 395.76 7.14 397.7 7.5 399.81 9.33 400.94 9.77 405.1 10.15 410.05 11.69 412.41 11.48 417.53 13.75 420.34 14.79 422.4 16.32 426.64 17.93 431.9 17.83 438.46 18.07 444.69 17.65 446.84 17.05 451.25 18.47 453.81 21.83 454.18 26.11 453.68 28.12 453.92 32.79 451.95 35.37 447.67 36.15 446.18 38.13 446.02 42.66 446.75 45.2 450.91 54.04 456.5 64.14 458.48 65.82 459.52 66.08 462.95 68.09 465.82 70.06 468.2 72.16 471.77 76.59 475.43 82.07 476.25 83.9 481.17 92.23 484.96 101.65 485.38 104.09 484.9 109.61 485.68 113.08 488.68 118.45 491.28 121.56 496.84 127.28 500.64 129.48 507.77 131.69 509.28 131.73 511.88 130.76 514.48 131.1 520.86 131.42 522.92 130.92 528.44 128.99 532.65 127.12 535.79 124.84 538.48 121.91 539.65 118.21 540.13 114.58 541.55 109.69 542.34 100.41 543.14 97.97 545.14 95.79 548.03 93.31 552.99 89.73 554.8 88.81 556.18 86.53 556.6 83.82 559.32 79.62 560.88 77.87 564.58 77.52 569.19 78.07 573.21 79.67 580.23 83.55 584.49 86.83 588.21 88.34 590.01 89.92 591.7 90.79 599.25 92.97 601.89 94.08 606.05 94.74 608.81 94.77 612.7 94.22 616.37 92.68 621.22 89.47 624.97 87.73 626.41 89.9 626.15 92.67 626.82 94.64 630.01 96.34 630.84 97.77 630.91 100.45 630.52 103.24 633.48 106.3 633.66 107.64 635.1 110.82 635.17 114.28 634.22 117.03 633.39 120.69 633.28 123.21 634.12 127.3 634.99 129.66 634.57 130.86 628.46 135.01 629.24 137.74 628.53 140.64 628.93 142.16 628.27 143.86 628.21 146.17 629.03 149.32 630.01 151.65 632.81 155.66 638.95 161 640.19 162.77 642.58 164.86 644.57 167.55 646.49 168.16 648.54 169.9 650.62 170.23 652.2 171.81 652.72 174.9 653.61 175.8 655.84 176.86 657.53 176.69 659.28 175.75 662.74 177.59 664.22 179.3 666.58 180.64 666.97 179.97 670.68 181.07 676.57 180.69 680.78 182.07 685 180.76 687.35 180.84 694.4 182.23 696.53 185.01 697.69 187.68 698.61 188.48 701.06 188.9 707.05 189.18 710.52 189.07 713.05 188.46 715.51 186.78 717.95 185.7 720.9 185.34 723.51 184.65 728.58 184.32 729.77 183.15 730.39 184.48 731.96 185.6 733.6 185.72 736.99 185.02 737.87 185.22 739.86 188.35 741.38 189.71 743.55 189.54 745.5 190.92 744.63 194.21 743.55 196.69 743.19 199.03 743.61 200.51 744.82 201.44 744.99 203.16 746.52 205.2 748.24 206.85 749.27 208.91 748.43 210.88 749.45 214.09 750.51 215.31 751.99 215.11 751.86 217.05 753.89 219.71 755.18 220.44 759.2 220.03 761.25 221.81 761.47 223.91 759.92 224.68 758.85 226.18 759.29 227.31 758.54 231.63 757.11 234.5 754.05 235.51 753.2 236.82 752.73 241.38 753.63 242.82 752.9 243.58 748.53 244.75 748.2 247.73 749.33 250.14 754.84 250.04 758.45 250.28 762.93 249.34 763.85 249.6 765.51 252.77 764.57 256.9 762.32 258.56 761.37 259.98 761.02 261.76 761.29 263.5 763.21 264.34 766.96 263.94 769.76 263.99 771.65 265.03 772.85 266.63 776.06 268.32 778.5 271.96 780.27 273.62 783.3 275.13 784.17 278.75 785.32 279.83 789.93 283.15 794.6 287.23 796.61 288.22 798.11 290.33 799 294.8 797.94 298.57 797.71 301.04 798.93 303.03 798.82 304.73 797.88 308.33 796.38 310.83 794.2 312.52 793.64 313.42 790.68 311.48 787.08 310.7 784.99 310.58 783.17 312.27 781.39 316.42 781.19 319.61 780.34 321.86 777.09 322.81 775.42 324.83 770.35 325.11 768.62 326.44 767.82 330.44 765.98 333.24 764.97 336.79 763.45 338.55 762.29 340.71 760.42 340.92 755.21 340.96 748.51 342.94 744.92 348.78 742.8 350.5 741.65 350.97 736.58 352.06 734.89 353.08 734.27 354.71 734.71 356.09 736.29 358.04 737.17 361.78 738.68 365.28 739.77 368.73 741.38 375.53 741.69 379.49 741.18 382.4 739.85 385.21 738.94 386.12 736.39 387.39 733.34 390.43 729.9 395.89 726.98 399.4 720.41 403 717.18 410.53 716.16 414.63 717.33 419.78 716.71 420.83 714.16 421.91 711.21 424.26 708.23 428.15 706.16 431.4 704.79 436.22 Z" id="東區"/>
<path d="M 34.29 372.12 34.18 368.76 34.24 359.91 34.61 347.71 35.56 345.21 41.03 339.77 41.63 339.38 50.71 337.45 52.29 335.54 55.7 329.35 56.98 326.52 58.43 321.67 59.67 320.07 68.09 315.62 67.26 312.83 66.91 310.49 65.36 304.38 63.94 300.5 63.04 295.87 64.73 289.06 63.8 288.85 65.05 284.81 63.38 283.95 62.92 282.93 65.48 278.28 63.18 277.33 64.97 269.57 65.74 269.64 66.79 266.59 65.38 266.32 63.51 265.13 62.99 263.21 60.78 261.29 61.07 259.85 59.71 259.35 56.29 259.4 55.54 260.5 53.15 259.96 52.31 259.19 52.79 255.86 52.46 253.16 48.19 252.89 43.73 251.6 38.42 251.43 35.92 251 34.92 249.2 34.35 246.09 32.93 242.73 33.24 241.27 30.88 241.69 29.41 240.31 29.94 238.77 30.12 236.03 28.76 231.79 29.18 224.28 29.66 220.86 30.38 218.91 30.81 214.89 32.23 213.89 32.54 212.38 33.64 210.67 33.63 208.81 32.92 204.93 32.45 200.74 33.14 198.03 32.72 196.68 35.29 193.03 36.47 188.96 37.93 184.75 36.72 184.09 31.11 184.05 25.2 183.37 9.37 181.83 5.16 180.74 4.21 175.67 2.22 166.06 1.17 165.88 1 163.54 1.76 163.28 1.34 155.4 2.22 153.15 2.34 149.84 1.69 143.54 1.25 142.25 3.71 140.56 6.03 139.55 6.31 136.98 2.2 132.67 2.87 131.82 5.14 130.79 6.74 127.59 8.82 126.28 11.7 125.31 16.66 121.55 19.31 120.63 22.71 120.07 25.01 120 27.99 119.47 33.8 119.7 35.55 118.16 37.63 118.03 39.66 118.56 45.06 120.99 51.73 123.19 56.05 125.06 62.34 128.61 64.9 130.28 68.12 131.52 71.99 131.74 74.33 131.59 74.22 127.97 74.44 123.64 75.22 121.06 78.52 116.54 78.66 112.25 79.67 110.9 82.49 109.12 85.31 107.92 87.64 105.87 94.73 101.86 98.39 98.52 101.82 97.9 105.89 97.98 108.19 98.56 110.73 98.64 115.47 95.61 123.74 87.39 126.66 83.97 131.43 79.7 126.61 96.55 125.21 104.3 125.32 110.14 126.71 117.73 127.29 119.02 127.96 129.96 128.19 131.92 129.12 133.69 130.96 133.9 136.73 133.65 145.77 131.85 152.56 129.86 154.28 128.76 156.57 124.94 158.09 120.23 159.33 115.48 160.47 110.3 162.07 107.36 170.11 101.73 175.37 97.86 177.62 95.84 183.32 88.3 185.61 87.22 189.75 86.28 196.9 85.85 202.78 85.24 212.18 83.12 215.22 82.94 220.75 83.48 224.4 83.11 226.04 81.51 230.69 82.09 234.1 82.21 237.38 81.5 238.88 80.57 243.18 73.88 245.89 66.66 247.43 65.18 252.93 63.09 257.96 61.97 259.79 61.99 265.71 62.74 270.25 63.55 274.99 64.04 282.26 65.31 286.92 65.53 290.5 64.93 293.25 64.13 294.67 63.09 296.04 60.97 297.26 58.03 308.58 65.22 310.83 67.85 326.25 93.45 334.41 106.78 338.55 113.8 352.61 136.73 353.83 134.84 359.63 123.52 373.35 96.23 375.79 93.3 379.86 90.95 386.07 90.47 391.68 114.28 395.7 129.95 396.8 133.45 397.56 137.79 398.82 142.61 399.93 148.14 401.87 155.33 405.4 170.6 406.36 176.55 405.95 180.78 405.35 184.6 403.66 190.78 400.5 197.5 396.01 203.8 388.97 211.84 393.33 220.93 394.19 223.83 394.99 225.42 395.02 226.69 395.83 229.75 397.21 233.53 397.74 236.74 399.41 243.55 400.2 247.9 402.37 256.66 404.02 272.88 406.64 296.81 417.12 295.84 418.97 312.92 417.87 314.62 416.62 315.45 416.85 318.78 401.34 320.28 402.49 329.75 411.99 360.73 416.43 371.8 407.18 375.17 395.28 378.77 391.91 378.9 386.31 377.31 386.52 379.52 385.9 398.28 385.14 407.46 385.2 422.08 391.75 429.29 403.06 437.43 414.47 445 415.25 446.14 413.89 447.22 413.63 448.18 413.08 456.09 411.92 457.72 409.93 463.3 409.74 464.92 410.34 468.21 410.3 474.32 409.8 479.54 410.78 480.62 408.71 483.32 407.23 486.2 406.73 491.06 407.06 492.5 406.4 493.77 406.56 495.97 402.49 498.89 399.17 498.49 396.75 497.52 394.33 497.51 389.26 497.92 385.81 499.02 380.16 501.99 376.53 504.11 373.7 505.37 371.82 506.9 368.47 509.02 362.74 512.23 358.71 515.14 352.08 518.61 349.58 520.51 345.99 521.28 340.06 523.18 338.62 523.83 335.61 524.52 334.61 523.68 332.45 520.23 332.47 518.75 330.71 518.44 330.73 516.22 330.1 516.07 330.14 513.91 328.36 513.26 327.44 511.47 324.07 510.43 319.55 505.62 318.62 504.08 316.68 499.49 315.87 498.55 313.74 498.38 313.53 497.75 311.11 497.98 311.68 493.77 316.35 492.44 317.9 491.56 322.7 490.46 325.57 490.16 327.02 489.38 327.26 486.08 328.96 483.71 328.65 482.84 325.48 478.25 323.71 477.15 318.82 478.93 317.9 478.02 317.01 475.54 315.12 473.88 313.13 470.05 312.09 467.48 309.76 466.83 306.33 462.48 302.76 455.67 301.75 450.66 293.69 452.89 291.03 454.51 284.22 448.13 276.6 441.58 273.45 440.78 273.07 438.34 270.55 412.83 268.01 385.92 267.45 381.94 245.86 383.9 244.17 383.74 241.28 382.83 237.73 382.76 235.62 381.49 234.44 380.29 232.92 379.8 219.6 382.66 217.31 381.56 201.79 383.48 194.34 384.49 188.45 385.15 173.61 387.02 167.54 382.29 162.34 377.41 160.49 375.13 159.28 372.73 158.92 370.88 158.93 368.11 159.48 364.57 156.04 360.61 153.61 358.7 151.37 357.81 147.85 357.09 144.5 357.16 138.5 358.18 134.46 360.41 131.94 360.57 126.97 359.85 123.77 361.21 122 363.35 116.24 364.94 103.89 366.49 100.29 366.46 97.76 366.92 94.71 366.32 90.47 366.65 87.04 366.55 85.38 366.18 81.29 367.28 78.35 367.77 74.14 367.32 65.7 369.46 54.22 371.67 52.65 371.78 34.29 372.12 Z" id="西區"/>
</g>
</svg>
