<?xml version="1.0"?>
<svg xmlns="http://www.w3.org/2000/svg" version="1.2" baseProfile="tiny" width="100%" height="100%" stroke-linecap="round" stroke-linejoin="round">
<g id="TOWN_MOI_1091016">
<path d="M 255.43 1 261.68 3.33 266.36 4.98 270.01 6.41 283.31 11.28 285.78 12.01 288.3 11.96 295.52 11.24 299.22 11.55 302.46 12.29 307.82 13.96 312.11 15.8 317.98 18.72 326.14 22.16 329.58 23.92 331.83 25.34 333.11 26.58 338 32.54 343.67 39.96 345.42 42.69 347.24 47.54 348.62 50.88 349.89 54.53 350.98 58.65 352.7 65.93 353.75 69.99 360.51 73.15 367.19 75.94 372.11 79.29 376.48 82.45 382.92 86.9 387.12 89.58 393.75 94.39 401.73 100.63 404.98 102.89 406.33 103.64 411.51 105.91 415.11 107.59 416.06 107.7 419.5 107.23 420.89 107.6 428.5 110.06 431.53 110.78 434.64 110.81 439.18 112.05 443.23 112.73 446.47 113.02 452.07 113.08 457.23 112.82 461.81 112.11 463.52 111.99 466.97 112.28 471.7 113.31 476.07 114.64 483.56 117.54 491.34 120.93 494.34 122.38 496.55 123.71 500.56 125.11 503.47 125.76 508.74 126.35 518.2 127.09 521.68 126.83 526.5 125.57 528.94 124.41 535.73 120.4 537.66 119.36 539.9 120 541.28 119.97 543.51 120.76 545.85 120.87 549.89 122.66 551.49 123.72 555.81 126.94 557.61 128.58 559.89 131.85 561.72 134.76 563.53 138.55 565.62 143.46 566.7 145.21 568.95 147.8 570.6 148.74 573.59 149.11 575.77 149.87 580.1 152.4 582.31 153.99 585.79 155.56 582.19 155.71 580.79 156.61 576.13 158.97 572.13 160.19 569.19 161.46 565.3 163.55 564.24 164.74 524.57 154.16 523.16 156.82 523.62 157.57 523.58 161.44 522.63 164.01 523.16 164.72 524.14 168.81 525.58 170.25 525.59 173.2 527.22 176.85 528 179.17 530.24 180.82 530.66 181.61 530.57 182.99 531.29 184.2 532.15 184.65 530.06 186.58 532.38 189.42 534.07 191.79 535.05 194.37 535.21 195.88 531.63 199.01 531.14 198.53 527.07 197.65 523.83 196.23 520.1 195.93 517.52 194.74 514.54 195.02 512.49 195.59 508.95 196 505.37 197.87 503.87 198.13 502.01 199.5 499.54 200.29 497.94 199.77 496.44 198.93 491.45 197.49 488.79 197.61 484.73 196.84 484.57 194.85 483.68 194.95 482.49 195.75 480.71 196.29 481.28 200.11 481.91 202.21 477.8 204.61 476.84 204.94 471.39 211.16 479.72 221.21 477.06 222.83 477.49 226.52 477.22 228.61 475.74 231.25 476.13 232.7 474.35 233.8 481.25 242.79 471.17 249.45 464.85 253.53 464.38 254.03 463.65 258.03 455.88 263.1 449.67 266.96 454.29 270.11 450.03 275.34 443.88 279.32 448.19 283.12 444.81 285.25 445.47 286.14 447.32 286.69 450.19 288.39 451.27 290 452.64 291.38 448.68 293.3 443.13 294.59 439 294.95 433.59 294.83 433.55 292.42 423.94 292.21 424.49 295.05 424.59 299.45 425.68 302.09 427.48 303.73 431.07 305.73 434.24 307.71 436.48 309.57 438.25 311.59 441.96 316.77 442.67 315.74 444.74 315.06 445.24 315.96 448.04 317.12 450.23 318.83 449.47 319.91 449.93 320.41 448.76 321.8 450.8 323.25 451.63 324.27 452.02 325.78 451.97 327.48 451.42 328.32 449.71 329.5 445.41 329.51 441.39 328.99 434.91 325.76 430.44 330.67 428.56 341.99 430.71 343.64 430.48 345.04 429.46 346.36 428.34 347.19 427.29 348.67 426.93 350.76 414.51 352.52 410.91 353.62 407.13 353.87 405.02 352.69 402.38 347.66 401.41 343.54 401.33 341.91 400.79 339.64 400.62 336.99 400.76 335.66 399.56 333.93 396.87 332.42 394.41 332.9 393.35 332.43 392.09 330.35 391.69 330.49 390.41 327.54 390.34 326.88 388.82 324.72 387.7 323.78 385.7 322.6 384.83 321.76 378.34 318.32 378.42 316.07 385.34 313.17 387.26 311.68 387.46 310.85 392.07 308.87 393.01 307.66 396.23 304.78 398.12 303.57 401.82 298.45 406.9 292.19 415 281.35 403.41 274.04 398.96 271.52 384.06 267.72 382.72 267.57 379.96 267.83 372.24 269.27 367.08 270.06 364.32 270.06 363.02 269.52 359.55 267.33 354.71 263.16 354.19 261.65 353.97 259.08 353.12 257.07 351.05 254.94 349.23 253.9 349.14 250.56 345.84 250.57 346 243.2 346.24 240.9 346.9 239.99 348.07 239.68 349.81 241.06 351.36 241.65 358.33 241.9 363.24 229.35 354.48 220.23 346.08 220.26 346.07 210.62 341.45 210.19 338.53 207.07 337.26 207.57 335.57 209.11 333.84 208.84 329.98 207.03 328.81 205.58 327.37 205.03 326.8 203.58 324.48 201.59 323.69 199.96 321.58 196.56 319.95 193.34 320.48 192.03 322.94 189.4 326.43 186.68 329.51 182.78 330.2 180.74 329.36 178.61 328.72 177.89 326.34 176.62 325.24 176.35 321.72 174.4 318.8 174.4 317.48 173.45 314.68 172 313.9 170.87 311.41 169.06 306.79 166.2 305.51 165.25 301.54 163.58 300.04 162.67 296.08 161.04 295.1 160.05 293.18 158.91 286.64 156.42 284.31 155.29 284.23 154.43 283.35 153.27 281.07 150.97 278.84 150.55 273.55 151.79 271.3 151.23 266.91 149.55 263.96 147.99 260.86 146.57 259.02 146.77 256.76 148.97 255.71 149.72 253.77 149.65 251.14 147.39 250.06 147.05 245.95 146.75 244.01 146.39 241.88 146.57 239.09 148.91 237.25 149.6 232.55 150.33 229.96 151.62 226.57 150.7 190.93 141.42 157.78 133 165.92 124.6 170.6 117.54 173.06 112.24 175.55 104.3 179.19 99.47 182.87 96.64 187.75 96.92 190.2 96.6 194.71 92.64 199 86.73 203.28 80.47 207.88 69.69 208.43 61.61 206.76 46.18 210.28 36.6 212.92 31.44 208.49 27.41 201.74 21.06 195.43 15.37 193.85 5.95 193.9 4.68 200.04 4.84 200.72 5.54 203.32 7 211.08 11.12 220.07 10.17 221.27 6.24 222.12 6.48 221.04 10.05 227.22 9.21 235.45 7.75 242.9 4.62 252.53 1.92 255.43 1 Z" id="北區"/>
<path d="M 300.81 712.08 298.24 711.97 294.66 711.35 292 709.17 287.33 706.43 284.36 703.91 282.84 701.8 282.02 698.84 281.18 694.91 280.33 694.59 279.21 695.32 276.95 697.58 275.56 699.36 273.55 701.31 271.13 700.12 270.24 699.26 269.06 699.18 267.04 701.23 263.77 702.51 262.3 702.53 261.02 701.63 259.44 702.33 257.92 702.01 255.47 700.56 253.22 701.14 250.87 702.68 248.62 704.92 247.48 705 244.69 704.71 242.34 703.72 239.61 701.34 238.9 700.05 239.26 697.63 238.27 697.29 236.69 698.02 235.21 698.12 234.58 697.36 234.18 695.02 232.13 694.05 227.22 692.97 225.83 693.04 224.18 694.02 218.36 696.58 216.21 696.38 212.67 695.21 208.85 694.45 206 694.16 203.61 693.64 200.91 691.53 197.82 691.31 197.67 690.08 199.83 688.67 200.82 687.6 201.04 686.34 200.4 684.33 201.4 682.16 204.78 679.03 207.05 677.43 209.5 674.51 210.26 672.89 210.52 669.96 209.91 668.77 208.51 667.21 203.04 662.61 202.16 660.83 199.31 658.43 197.85 655.97 197.78 652.54 198.08 650.99 199 648.03 198.99 644.68 199.99 642.21 197.33 641.59 198 640.23 197.98 639.33 196.86 636.99 194.78 635.29 194.49 634.71 193.8 631.17 193.71 628.98 193.18 625.43 192.16 621.85 191.06 619.24 189.39 615.86 187.1 612.48 181.7 605.43 180.14 603.74 177.73 601.47 174.13 598.58 172.33 596.28 171.22 593.71 170.83 590.82 171.12 588.56 172.07 584.64 172.47 579.78 172.11 575.63 171.65 574.31 167.99 571.89 165.69 571.98 163.44 572.7 160.75 573.16 158.27 573.85 157.46 576.04 155.51 578.1 152.89 580.25 150.77 580.94 147.75 582.53 145.3 584.49 144.56 585.51 143.78 587.48 141.71 589.38 139.31 592.1 137.58 593.61 136.4 595.56 133.25 596.67 127.84 601.37 125.37 602.67 124.17 604.82 122.29 606.19 120.07 606.73 118.25 608.52 114.93 610.57 113.15 611.07 110.27 612.25 108.47 612.48 107.34 613.15 104.88 614.01 101.52 614.49 97.63 615.75 96.79 615.83 95.6 614.51 92.93 613.96 91.04 613.23 90.43 611.62 89.4 612.67 87.6 615.26 84.87 617.8 83.42 618.56 79.41 616.36 76.26 613.84 72.77 612.19 71.03 610.93 69.76 610.45 66.45 608.23 65.13 608.08 63.19 610.3 59.87 611.32 58.47 611.54 54.48 612.6 52.51 613.46 50.93 611.42 49.17 608.07 47.07 604.99 46.33 604.73 44.46 605.34 40.77 607.43 38.63 608.85 33.62 610.95 1 585.69 2.07 584.22 7.49 577.57 12.03 570.85 17.2 564.25 25.51 557.57 32.91 548.65 41.62 544.78 50.22 530.37 54.13 524.1 59.54 518.65 65.33 512.29 70.62 506.21 74.08 500.91 77.04 495.9 78.15 492.36 80.13 490.03 84.82 486.06 88.19 483.34 90.24 479.98 91.93 475.36 94.64 470.05 97.69 467.05 101.75 463.65 105.74 460.94 109.03 459.14 114.13 457.47 117.19 454.29 117.66 453.38 116.77 447.5 116.35 445.66 115.08 442.99 114.79 440.98 113.64 438.07 112.54 436.41 110.94 436.62 109.78 437.73 108.85 439.56 107.31 443.52 105.03 448.19 104.04 448.3 104.13 446.38 105.27 443.44 103.64 443.13 103.33 442.16 103.54 440.65 103.32 439.41 102.06 437.38 98.7 435.24 95.49 433.78 93.89 432.27 92.42 430.11 91.82 428.14 91.49 424.17 91.57 421.16 92.03 420.25 92.92 416.41 92.36 414.94 91.73 412.31 92.05 410.7 87.42 410.33 87.16 408.06 85.86 404.26 85.24 401.03 85.8 396.09 88.29 392.02 89.48 388.93 89.96 386.08 90.67 384.69 92.29 383.36 93.16 382 93.9 378.47 94.71 372.57 94.32 369.88 92.95 366.76 92.97 363.03 93.33 358.8 93.03 355.29 92.22 352.78 92.12 349.11 92.74 346.85 92.79 345.74 91.77 343.78 91.27 341.36 91.38 337.44 91.31 334.42 90.5 328.36 90.04 320.61 89.22 316.59 89.98 311.16 91.9 304.41 95.32 297.46 98.59 291.93 102.2 285.15 106.17 279 109.46 271.98 111.91 258.6 112.97 249.38 111.92 239.17 113.49 229.84 115.89 224.25 118.22 219.06 121.49 213.76 125.11 205.78 125.46 198.39 126.85 193.19 129.91 185.2 133.75 174.81 137.77 165.39 142.92 155.31 146.84 148.87 152.48 140.33 157.78 133 190.93 141.42 226.57 150.7 229.96 151.62 232.55 150.33 237.25 149.6 239.09 148.91 241.88 146.57 244.01 146.39 245.95 146.75 250.06 147.05 251.14 147.39 253.77 149.65 255.71 149.72 256.76 148.97 259.02 146.77 260.86 146.57 263.96 147.99 266.91 149.55 271.3 151.23 273.55 151.79 278.84 150.55 281.07 150.97 283.35 153.27 284.23 154.43 284.31 155.29 286.64 156.42 293.18 158.91 295.1 160.05 296.08 161.04 300.04 162.67 301.54 163.58 305.51 165.25 306.79 166.2 311.41 169.06 313.9 170.87 314.68 172 317.48 173.45 318.8 174.4 321.72 174.4 325.24 176.35 326.34 176.62 328.72 177.89 329.36 178.61 330.2 180.74 329.51 182.78 326.43 186.68 322.94 189.4 320.48 192.03 319.95 193.34 321.58 196.56 323.69 199.96 324.48 201.59 326.8 203.58 327.37 205.03 328.81 205.58 329.98 207.03 333.84 208.84 335.57 209.11 337.26 207.57 338.53 207.07 341.45 210.19 346.07 210.62 346.08 220.26 354.48 220.23 363.24 229.35 358.33 241.9 351.36 241.65 349.81 241.06 348.07 239.68 346.9 239.99 346.24 240.9 346 243.2 345.84 250.57 349.14 250.56 349.23 253.9 351.05 254.94 353.12 257.07 353.97 259.08 354.19 261.65 354.71 263.16 359.55 267.33 363.02 269.52 364.32 270.06 367.08 270.06 372.24 269.27 379.96 267.83 382.72 267.57 384.06 267.72 398.96 271.52 403.41 274.04 415 281.35 406.9 292.19 401.82 298.45 398.12 303.57 396.23 304.78 393.01 307.66 392.07 308.87 387.46 310.85 387.26 311.68 385.34 313.17 378.42 316.07 378.34 318.32 384.83 321.76 385.7 322.6 387.7 323.78 388.82 324.72 390.34 326.88 390.41 327.54 391.69 330.49 392.09 330.35 393.35 332.43 394.41 332.9 396.87 332.42 399.56 333.93 400.76 335.66 400.62 336.99 400.79 339.64 401.33 341.91 401.41 343.54 402.38 347.66 405.02 352.69 407.13 353.87 410.91 353.62 415.64 356.11 418.54 357.28 420.67 359.61 423.92 365.3 426.56 371.99 427.16 375.57 427.59 379.62 430.55 381.81 434.56 384.52 435.72 385.98 437.29 388.74 433.75 392.33 432.01 395.52 432.64 404.23 432.17 406.24 434.27 411.18 433.61 415.5 433.46 418.86 434.09 419.96 434.41 422.06 434.19 424.56 434.77 429.03 435.51 432.43 433.88 435.4 433.21 438.03 433.59 439.78 435 441.36 436.92 441.59 439.93 441.18 443.7 438.5 446.39 437.21 446.32 440.83 447.48 443.99 447.29 446.56 448.62 449.96 448.47 451.3 445.63 456.58 444.53 457.44 442.22 458.49 441.75 460.61 440.43 462.09 438.18 463.39 437.49 465.35 438.02 468.95 435.39 472.64 433.71 473.46 429.2 474.37 427.96 475.45 420.49 491.23 420.14 495.52 421.27 496.25 426.67 497.92 427.59 499.47 427.81 501.19 426.78 504.46 425.39 507.35 425 509.44 425.6 511.38 426.89 513.7 429.87 518.04 433.89 522.64 432.5 523.96 431.61 525.72 428.17 527.8 425.82 529.43 422.75 531.02 420.31 529.72 417.46 528.85 416.15 530.52 415.83 532.39 415.8 535.84 416.67 536.61 417.94 539.3 417.56 542.82 418.55 545.01 418.92 546.66 418.75 549.34 417.34 550.77 412.61 551.09 411.38 551.69 409.69 554.28 408.41 555.1 407.1 554.75 405.63 554.95 404.54 555.56 402.89 558.45 400.77 560.03 399.35 560.11 397.47 558.55 395.71 558.21 393.39 556.59 392.6 556.57 391.45 557.81 389.59 558.24 387.19 555.46 385.44 554.61 383.23 554.42 380.24 554.5 375.38 555.02 373.48 554.35 372.8 552.26 371.6 551.22 370.28 551.01 367.95 551.66 365.53 552.93 363.83 553.21 362.28 552.86 360.44 550.76 359.09 550.64 357.38 551.19 356.21 552.03 354.41 554.53 351.19 555.04 349.56 556.97 348.78 558.5 348.41 560.72 348.25 564.82 347.78 568.15 347.93 570.63 346.32 574.31 345.84 576.07 344.86 578.46 345.59 580.7 345.68 582.07 345.02 583.6 342.65 585.08 342.01 587.55 339.96 589.33 338.53 590.9 338.15 591.94 338.94 593.81 339.2 597.27 338.28 599.49 338.05 602.32 335.1 605.1 333.11 607.22 331.73 610.61 329.64 612.16 328.88 613.68 329.06 614.99 330.24 615.63 333.68 616.84 335.22 617.85 336.65 619.74 338.52 621.76 341.27 625.24 341.23 626.01 339.7 628.8 338.82 631.02 338.44 633.51 338.72 634.7 337.42 635.37 333.85 635.67 332.67 635.32 332.06 633.2 327.96 630.02 326.48 629.28 323.35 628.44 321.56 628.43 319.88 629.6 319.6 630.36 320.21 631.11 321.92 632.1 323.11 634.51 324.17 637.78 323.99 639.33 322.02 639.5 320.23 639.95 318.92 640.72 319.17 641.9 322.34 643.46 323.04 644.02 324.19 645.86 325.93 650.45 325.48 651.49 323.07 652.75 322.78 653.6 323.67 656.72 323.72 659.73 324.11 661.73 325.08 663.13 324.69 664.57 322.71 666.17 321.75 667.26 321 669.6 321.31 671.88 323.09 674.09 323.76 675.56 323.64 676.26 322.55 677.94 322.45 678.9 323.28 680.42 323.32 681.44 322.83 683.07 321.25 684.66 320.35 686.07 320.38 687.29 322.2 691.64 322.68 694.66 321.09 695.63 318.87 697.38 313.04 702.95 309.66 704.31 309.6 705.22 310.37 706.5 309.54 709.62 306.63 714.82 306.52 714.28 305.15 712.92 300.81 712.08 Z" id="香山區"/>
<path d="M 737.08 265.86 737.71 268.04 738.98 269.05 743.86 271.91 749.27 274.4 751.34 275.68 753.05 277.1 755.49 278.41 757.77 279.97 759.76 280.6 759.75 281.13 752.91 281.47 750.43 281.81 747.23 282.7 743.39 283.42 741.45 283.59 738.69 283.17 734.16 282.1 734.74 283.5 736.45 284.79 739.61 288.24 741.22 291.01 742.46 292.75 744.16 294 746.47 294.84 746.93 295.95 746.43 297.42 744.61 298.85 743.49 299.31 738.94 300.52 737.33 301.49 734.69 303.94 734.23 305.72 734.68 307.28 736.82 311.66 738.34 315.36 740.84 321.79 740.1 323.81 741.88 324.2 745.28 322.73 747.93 323.09 748.75 323.7 753.79 330.03 754.09 332.31 753.09 335.05 752.72 337.84 752.98 339.34 753.81 341.27 755.01 342.7 756.48 343.98 756.65 345.17 755.98 345.89 753.81 346.55 751.08 346.91 747.82 348.04 746.84 348.74 746.1 349.93 746.44 350.9 747.53 351.7 755.04 354.66 756.96 355.56 759.4 357.02 762.39 359.32 764.58 360.6 767.11 361.62 768.87 362.9 766.04 370.53 764.98 371.96 763.11 373.13 761.27 374.79 759.23 375.01 757.13 373.95 755.98 373.96 755.57 375.42 755.98 376.56 759.33 379.55 761.27 381.78 763.81 382.52 765.87 382.53 768.34 381.75 770.27 381.99 771.23 383.28 769.28 387.13 768.74 390.48 770.4 391.79 772.39 392.63 774.5 393.08 775.87 392.81 777.73 391.81 778.5 391.05 779.81 391.5 779.93 392.97 779.66 394.33 778.52 397.25 776.95 399.96 775.08 404.22 772.58 408.16 772.05 410.81 773.25 411.8 777.35 412.31 779.91 413.48 782.92 415.94 783.19 416.86 782.12 419.56 780.99 420.44 779.13 420.56 777.95 421.44 777.62 422.58 778.29 423.47 778.01 425.23 778.6 428.57 777.12 432 777.36 433.32 778.91 435.18 779.71 436.8 780.13 440.31 780.08 441.96 780.77 444.41 782.15 446.05 783.87 447.27 785.7 447.83 787.63 448.09 788.45 448.51 790.43 450.29 791.27 450.7 796.47 452.2 797.75 453.91 798.9 456.25 799 458.47 798.62 459.67 796.83 461.38 796.48 462.08 796.16 464.64 795.2 466.61 793.38 468.39 790.87 469.44 787.56 470.4 784.31 470.85 783.93 471.1 782.9 473.41 781.36 475.08 776.84 478.55 775.73 480.34 774.79 482.68 773.89 483.98 772.63 485.15 768.6 487.38 767.04 487.75 764.39 487.32 763.07 487.81 762.81 488.65 760.35 488.95 756 490.44 753.88 490.73 752.47 491.81 750.35 492.79 748.2 493.08 744.04 492.28 739.12 493.74 735.51 494.16 734.08 493.9 732.19 492.68 730.76 489.91 729.83 486.19 727.74 481.94 727.2 480.09 726.77 477.45 726.22 476.1 725.4 472.31 724.83 468.09 724.82 464.08 722.77 457.81 721.58 456.03 720.51 455.2 718.97 455.35 717.8 454.64 715.8 452.46 716.63 450.05 716.36 448.13 714.5 445.1 712.09 442.38 710.51 440.85 707.59 436.25 706.23 434.38 704.85 431.82 701.68 426.64 700.07 423.7 698.79 422 691.6 417.22 689.35 415.52 686.93 414.16 683.69 411.91 682.41 410.73 680.33 408.24 676.95 406.56 673.13 405.21 671.94 404.38 670.49 404.07 668.13 404.01 666.02 404.85 664.55 405.18 662.51 404.53 658.06 402.68 653.81 400.74 649.64 398.58 646.24 396.01 641.13 392.93 637.47 390.52 631.63 386.96 629.24 385.24 624.61 383.21 620.14 381.88 615.76 379.74 612.49 377.93 610.57 376.58 608.04 375.67 604.14 374.73 597.51 373.77 596.39 373.5 595.31 373.75 590.63 379.45 588.97 381.36 587.62 383.35 584.37 388.9 583.55 390.78 582.67 391.71 581.47 392.27 578.86 392.44 576.53 391.91 574.49 391 572.31 389.58 571.39 389.45 559.66 392.02 558.57 395.57 557.64 396.39 554.83 396.65 554.32 397.22 555.39 398.25 557.59 401.46 560.84 407.52 562.47 408.94 562.81 409.86 562.04 413.32 563.18 418.49 564.47 419.74 564.99 421 565.15 424.12 565.65 425.8 567.84 429.84 569.88 431.63 570.66 432.85 572.16 434.45 572.41 436.4 570.17 436.29 566.28 434.77 565.54 434.62 562.37 434.76 556.27 436.11 552.78 435.99 550.63 436.64 548.54 438.45 546.5 439.69 545.65 439.81 543.01 439.2 541.24 439.16 539.95 439.81 538.89 441.21 537.69 443.92 534.21 448.18 533.53 449.48 533.5 453.12 532.71 456.17 529.12 459.51 527.77 460.29 524.73 460.41 523.98 460.25 523.57 459.14 518.91 460.89 517.13 461.31 515.93 461.27 514.42 459.4 514.34 457.82 514.81 456.62 513.92 455.37 512.85 454.74 510.41 456.11 507.51 456.83 505 456.67 503.68 455.07 503.28 452.69 502.35 451.79 500.66 451.93 499.34 452.59 496.87 455.62 495.75 455.81 493.97 455.23 491.57 453.57 490.16 453.92 488.28 453.38 486.7 451.55 486.19 449.29 485.13 448.08 482.43 449.9 480.88 450.62 479.35 450.97 478.79 451.56 478.34 453.07 477.19 455.44 475.22 457.92 473.85 462.25 473.39 465.73 471.97 467.76 471.08 469.54 470.66 471.45 467.85 473.89 467.67 475.99 467.62 481.2 467.41 484.24 466.23 486.09 466.31 486.91 467.96 488.32 468.58 489.43 468.28 491.1 467.16 494.63 462.76 497.78 461.71 498.11 460.54 497.91 458.72 496.2 456.7 495.95 455.65 496.85 454.01 499.39 453.19 500.28 451.8 501.03 448.66 499.27 447.86 499.24 444.42 501.66 443.6 502.43 443.48 503.5 444.28 505.28 441.45 508.93 440.62 510.3 439.43 512.95 437.77 520.14 437.29 520.94 434.75 521.23 433.89 522.64 429.87 518.04 426.89 513.7 425.6 511.38 425 509.44 425.39 507.35 426.78 504.46 427.81 501.19 427.59 499.47 426.67 497.92 421.27 496.25 420.14 495.52 420.49 491.23 427.96 475.45 429.2 474.37 433.71 473.46 435.39 472.64 438.02 468.95 437.49 465.35 438.18 463.39 440.43 462.09 441.75 460.61 442.22 458.49 444.53 457.44 445.63 456.58 448.47 451.3 448.62 449.96 447.29 446.56 447.48 443.99 446.32 440.83 446.39 437.21 443.7 438.5 439.93 441.18 436.92 441.59 435 441.36 433.59 439.78 433.21 438.03 433.88 435.4 435.51 432.43 434.77 429.03 434.19 424.56 434.41 422.06 434.09 419.96 433.46 418.86 433.61 415.5 434.27 411.18 432.17 406.24 432.64 404.23 432.01 395.52 433.75 392.33 437.29 388.74 435.72 385.98 434.56 384.52 430.55 381.81 427.59 379.62 427.16 375.57 426.56 371.99 423.92 365.3 420.67 359.61 418.54 357.28 415.64 356.11 410.91 353.62 414.51 352.52 426.93 350.76 427.29 348.67 428.34 347.19 429.46 346.36 430.48 345.04 430.71 343.64 428.56 341.99 430.44 330.67 434.91 325.76 441.39 328.99 445.41 329.51 449.71 329.5 451.42 328.32 451.97 327.48 452.02 325.78 451.63 324.27 450.8 323.25 448.76 321.8 449.93 320.41 449.47 319.91 450.23 318.83 448.04 317.12 445.24 315.96 444.74 315.06 442.67 315.74 441.96 316.77 438.25 311.59 436.48 309.57 434.24 307.71 431.07 305.73 427.48 303.73 425.68 302.09 424.59 299.45 424.49 295.05 423.94 292.21 433.55 292.42 433.59 294.83 439 294.95 443.13 294.59 448.68 293.3 452.64 291.38 451.27 290 450.19 288.39 447.32 286.69 445.47 286.14 444.81 285.25 448.19 283.12 443.88 279.32 450.03 275.34 454.29 270.11 449.67 266.96 455.88 263.1 463.65 258.03 464.38 254.03 464.85 253.53 471.17 249.45 481.25 242.79 474.35 233.8 476.13 232.7 475.74 231.25 477.22 228.61 477.49 226.52 477.06 222.83 479.72 221.21 471.39 211.16 476.84 204.94 477.8 204.61 481.91 202.21 481.28 200.11 480.71 196.29 482.49 195.75 483.68 194.95 484.57 194.85 484.73 196.84 488.79 197.61 491.45 197.49 496.44 198.93 497.94 199.77 499.54 200.29 502.01 199.5 503.87 198.13 505.37 197.87 508.95 196 512.49 195.59 514.54 195.02 517.52 194.74 520.1 195.93 523.83 196.23 527.07 197.65 531.14 198.53 531.63 199.01 535.21 195.88 535.05 194.37 534.07 191.79 532.38 189.42 530.06 186.58 532.15 184.65 531.29 184.2 530.57 182.99 530.66 181.61 530.24 180.82 528 179.17 527.22 176.85 525.59 173.2 525.58 170.25 524.14 168.81 523.16 164.72 522.63 164.01 523.58 161.44 523.62 157.57 523.16 156.82 524.57 154.16 564.24 164.74 565.3 163.55 569.19 161.46 572.13 160.19 576.13 158.97 580.79 156.61 582.19 155.71 585.79 155.56 590.64 157.47 594.32 158.37 599.95 158.56 604.17 158.94 608.43 158.88 610.27 159.47 615.59 160.85 621.25 162.09 625.16 163.33 627.38 163.79 632.69 165.39 635.59 167.43 637.36 169 639.12 171.12 640.44 173.06 642.11 174.88 643.9 176.02 646.05 176.93 648.55 177.66 652.71 179.4 654.65 180.63 658.78 184.3 661.75 187.43 665.34 190.68 668.44 192.96 672.28 194.73 674.64 197.38 677.7 201.29 681.85 205.95 682.36 206.7 688.46 213.4 690.97 215.92 695.51 221.05 699.35 225.09 700.94 227.08 706.69 233.14 711.1 234.91 716.87 236.39 719.09 237.28 721.87 239.23 723.16 241.49 724.17 244.45 725.17 246.82 728.09 251.77 729.34 254.14 732.11 256.91 734.54 259.96 735.79 262.39 737.08 265.86 Z" id="東區"/>
</g>
</svg>
