<?xml version="1.0"?>
<svg xmlns="http://www.w3.org/2000/svg" version="1.2" baseProfile="tiny" width="800" height="963" viewBox="0 0 800 963" stroke-linecap="round" stroke-linejoin="round">
<g id="TOWN_MOI_1091016">
<path d="M 204.83 867.42 204.95 868.24 205.45 869.27 206.03 870.29 206.3 870.59 207.08 870.57 207.7 870.79 208.19 871.19 209.02 871.72 209.35 872.07 209.62 871.56 210.26 870.72 210.48 870.19 211.27 869.05 212.84 868.87 213.31 869.04 214.26 869.18 214.85 869.49 215.3 870.45 216.1 871.64 217.08 872.42 217.29 872.93 217.26 873.33 216.83 874.55 216.93 875.08 217.18 875.77 217.17 876.56 217.42 876.74 217.96 876.87 218.11 877.1 218.1 877.83 217.62 878.05 217.3 878.53 217.23 878.92 216.91 879.12 216.56 879.07 216.1 878.74 215.91 878.84 216.04 880.28 216.2 880.46 216.92 880.62 217.62 880.89 218.5 881.31 220.72 882.1 221.15 882.33 221.18 882.53 220.35 884.52 220.27 885.47 220.38 886.51 220.21 887.43 220.5 889.1 220.45 889.54 219.77 890.21 219.38 890.88 219.03 891.28 218.66 892.04 218.66 893.11 218.89 894.3 219.35 895.9 219.69 896.83 220.58 898.22 221.07 899.54 220.92 900.04 220.25 901.37 220.02 902.15 219.93 903.07 219.95 903.57 220.16 904.1 220.63 904.87 220.68 905.27 219.96 908.11 219.93 909.08 220.3 910.63 220.74 911.77 221.05 913.81 221.42 914.79 221.75 915.4 222.29 916.21 222.96 917.52 223.78 918.87 224.16 919.15 225.21 918.95 226.06 918.93 226.66 918.82 227.8 918.73 229.94 918.76 231.71 918.58 233.1 918.52 234.49 918.98 235.36 919.01 236.45 919.75 236.95 919.95 238.21 921.04 240.09 922.87 240.4 923.3 240.57 923.8 240.78 924.88 241.08 925.55 241.5 926.21 242.2 926.61 243.94 927.96 244.35 928.76 244.71 929.22 245.29 930.3 245.48 930.76 245.86 931.2 246.41 931.99 247.23 932.68 247.31 932.93 247.02 933.53 246.12 934.5 245.45 935.66 244.9 936.25 244.06 936.85 243.47 937.88 242.96 938.26 242.72 939.03 242.59 939.86 242.05 940.96 241.76 942.46 241.48 943.26 240.77 944.27 240.44 944.41 240.15 944.23 238.98 943.87 237.92 943.81 237.38 944.05 236.61 944.57 236.11 945.04 235.65 945.14 235.01 945.82 234.57 946.11 233.53 946.55 233 947.3 232.65 948.02 232.24 948.53 231.5 949.08 231.15 949.59 230.84 949.74 229.94 949.95 229.33 950.33 228.88 951.03 228.86 951.36 229.12 952.04 228.59 952.72 228.35 953.46 228.04 953.8 227.51 953.99 226.45 954.21 225.72 954.59 225.23 954.57 224.4 953.27 223.56 952.97 222.29 952.95 221.74 952.3 221.17 951.97 220.81 951.48 220.2 950.48 219.62 950.33 218.98 950.45 218.31 950.73 217.98 951.19 217.77 951.18 216.96 950.75 216.49 950.65 215.92 950.81 215.49 951.29 214.61 951.82 214.08 952.41 213.61 952.36 212.71 952.8 211.37 952.81 210.41 953.04 209.29 953.54 208.39 953.52 207.8 953.68 206.73 954.11 206.2 954.47 205.51 955.18 204.28 956.32 203.95 956.73 203.42 957.18 202.43 957.31 201.82 957.77 201.3 958.74 201.04 959.75 200.9 959.97 199.98 960.03 199.36 960.2 198.73 960.81 198.06 961.16 197.66 961.2 196.59 961.04 195.46 961.12 194.43 960.94 194.19 961.08 194 961.76 193.66 962 193.13 962 192.19 961.26 191.77 961.18 190.9 961.5 190.42 961.41 189.95 961.06 187.94 961.06 187.57 960.67 187.29 960.06 186.66 959.56 186.26 959.34 185.63 959.24 185.1 958.9 184.7 958.41 184.14 958.24 183.7 958.28 182.17 958.94 181.67 959.1 180.96 959.03 179.68 959.24 178.76 959.75 177.51 960.19 177.15 960.4 176.39 960.62 175.54 961.54 175.22 961.63 174.57 961.05 173.51 960.99 172.94 960.69 171.88 960.58 171.66 960.44 171.19 959.49 169.75 958.81 169.09 958.25 168.8 957.92 169.22 955.63 169.24 954.71 169.15 953.91 169.28 953.42 169.53 951.99 170.14 951.17 170.39 950.7 170.57 949.34 170.62 948.47 170.31 947.77 168.58 946.34 168.2 945.65 168.17 944.96 168.34 944.13 168.79 942.72 169.01 941.28 169.05 940.53 168.56 938.55 168.14 937.4 167.72 936.91 167.28 936.24 167.07 935.77 166.68 934.57 165.44 933.18 165.2 932.8 164.82 931.51 164.36 930.65 164.03 929.85 163.81 929.04 163.73 928.38 163.84 927.74 163.77 927.17 163.6 926.67 163.61 925.59 163.39 925.1 162.78 924.44 162.81 923.81 162.71 923.49 161.99 922.69 161.26 922 161.1 921.54 161.24 920.07 161.17 918.8 161.47 917.92 161.68 915.76 161.86 915.48 162.32 915.13 162.9 914.82 163.09 913.91 163.1 913.26 164.63 913.16 164.86 913.08 166.17 911.84 165.53 910.33 165.36 909.83 165.12 908.66 164.45 907.67 164.38 907.38 164.9 905.22 164.92 904.52 164.33 903.33 164.22 901.86 164.59 901.03 165.84 900.21 166.8 899.36 167.1 899.24 168.16 899.35 168.84 898.88 169.49 898.14 170.26 897.63 170.27 897.1 170.46 896.27 170.38 895.46 170.14 894.97 169.82 894.69 169.28 894.53 168.95 893.98 168.44 893.46 167.95 893.4 167.86 892.29 167.61 891.83 166.6 890.44 164.55 890.31 163.77 890.2 162.71 889.95 161.68 889.86 161.13 889.55 160.8 888.75 160.27 888.16 159.56 887.61 158.26 887.08 157.64 886.69 157.43 886.37 156.6 885.91 154.97 885.3 154.54 885.05 154.47 882.58 156.61 882.4 157.67 881.96 158.7 881.26 159.56 880.8 160.54 880.44 161.53 879.77 161.99 879.28 162.31 878.8 162.86 877.51 163.47 875.55 163.81 874.2 163.9 873.66 164.42 871.96 164.85 871.02 166.13 868.84 166.37 868.29 166.82 867.55 167.19 867.17 168.88 865.73 169.87 865.7 170.82 865.23 171.27 864.77 171.63 864.19 172.11 863.07 172.52 861.71 172.63 861.61 173.67 861.56 174.38 861.25 174.98 861.09 175.77 860.99 177.24 861.16 178.96 861.18 179.83 861.4 180.16 861.72 180.58 861.73 181.12 861.39 181.85 861.27 183.75 861.24 184.4 861.28 184.72 861.56 184.83 862.06 184.87 862.84 185.06 863.48 185.73 863.74 186.05 864.11 186.52 864.39 186.61 864.88 186.39 866.53 186.58 867.82 186.59 868.35 186.37 869.12 186.38 870.13 186.66 870.64 187.09 870.94 187.15 871.53 186.92 872.31 187.08 872.53 188.08 872.78 188.32 873.07 188.89 873.2 189.64 873.19 189.97 873.1 190.54 872.63 191.06 872.58 191.51 872.09 192.42 872.06 193.17 872.45 193.79 872.2 194.5 872.47 195.86 873.24 196.94 873.47 197.2 873.58 197.67 873.47 198.49 872.5 199.24 872.02 200.48 869.76 201.32 868.63 202.41 868.18 203.22 867.41 203.8 867.34 204.83 867.42 Z" id="暖暖區"/>
<path d="M 172.52 861.71 172.11 863.07 171.63 864.19 171.27 864.77 170.82 865.23 169.87 865.7 168.88 865.73 167.19 867.17 166.82 867.55 166.37 868.29 166.13 868.84 164.85 871.02 164.42 871.96 163.9 873.66 163.81 874.2 163.47 875.55 162.86 877.51 162.31 878.8 161.99 879.28 161.53 879.77 160.54 880.44 159.56 880.8 158.7 881.26 157.67 881.96 156.61 882.4 154.47 882.58 154.54 885.05 154.97 885.3 156.6 885.91 157.43 886.37 157.64 886.69 158.26 887.08 159.56 887.61 160.27 888.16 160.8 888.75 161.13 889.55 161.68 889.86 162.71 889.95 163.77 890.2 164.55 890.31 166.6 890.44 167.61 891.83 167.86 892.29 167.95 893.4 168.44 893.46 168.95 893.98 169.28 894.53 169.82 894.69 170.14 894.97 170.38 895.46 170.46 896.27 170.27 897.1 170.26 897.63 169.49 898.14 168.84 898.88 168.16 899.35 167.1 899.24 166.8 899.36 165.84 900.21 164.59 901.03 164.22 901.86 164.33 903.33 164.92 904.52 164.9 905.22 164.38 907.38 164.45 907.67 165.12 908.66 165.36 909.83 165.53 910.33 166.17 911.84 164.86 913.08 164.63 913.16 163.1 913.26 163.09 913.91 162.9 914.82 162.32 915.13 161.86 915.48 161.68 915.76 161.47 917.92 161.17 918.8 161.24 920.07 161.1 921.54 161.26 922 161.99 922.69 162.71 923.49 162.81 923.81 162.78 924.44 163.39 925.1 163.61 925.59 163.6 926.67 163.77 927.17 163.84 927.74 163.73 928.38 163.81 929.04 164.03 929.85 164.36 930.65 164.82 931.51 165.2 932.8 165.44 933.18 166.68 934.57 167.07 935.77 167.28 936.24 167.72 936.91 168.14 937.4 168.56 938.55 169.05 940.53 169.01 941.28 168.79 942.72 168.34 944.13 168.17 944.96 168.2 945.65 168.58 946.34 170.31 947.77 170.62 948.47 170.57 949.34 170.39 950.7 170.14 951.17 169.53 951.99 169.28 953.42 169.15 953.91 169.24 954.71 169.22 955.63 168.8 957.92 167.96 956.77 167.56 956.34 167.01 956.05 166.74 955.69 166.68 955 165.86 953.36 165.46 952.69 165.04 952.36 164.4 952.19 161.15 952.1 159.66 952.11 159.08 951.76 158.74 951.41 158.49 950.54 158.57 949.7 158.49 949.39 156.53 948.88 155.76 948.04 154.58 947.42 153.99 947.22 153.55 946.86 152.68 944.79 151.97 943.7 151.59 943.26 150.52 942.34 149.8 942.02 149.26 941.53 148.64 940.78 148.03 940.23 146.89 939 146.3 938.51 145.62 938.16 144.38 937.3 143.7 937.33 143.02 936.96 142.57 936.28 141.57 936.34 140.64 936.26 139.77 936.3 138.89 936.54 137.48 936.85 135.21 937.72 134.2 938.17 133.48 938.67 133.05 938.73 132 938.58 131.37 938.4 130.8 938.12 130.04 937.19 129.16 936.45 128.13 936.8 126.54 936.75 126.07 936.7 125.19 937.13 124.3 937.22 123.59 937.23 122.75 937.44 121.71 937.4 121.04 937.25 119.11 935.38 118.93 935.14 117.78 933.94 116.3 932.87 115.8 933 115.04 933.08 113.78 933.03 111.39 932.53 109.68 932.6 108.99 932.51 108.29 932.27 107.41 931.66 106.96 931.49 106.73 931.26 106.25 930.4 105.68 930.13 105.32 930.16 104.97 930.38 104.41 930.46 103.82 930.39 102.95 930.15 102.44 929.78 101.86 929.08 100.58 928.31 100.13 928.12 98.59 927.22 98.33 926.98 98.2 926.62 97.51 926.42 96.96 925.52 95.88 925.28 95.4 924.97 94.4 923.92 94.12 923.76 92.86 922.48 92.3 922.12 91.5 921.38 90.24 921.28 89.7 921.35 89.27 920.93 89.36 919.65 88.97 919.31 88.33 919.23 87.73 918.9 87.53 918.5 87.31 917.37 87.5 916.93 88.21 916.7 88.53 916.48 89 915.64 89.18 914.62 89.83 913.37 89.72 912.75 89.4 912.3 89 911.15 88.8 910.3 88.79 909.59 88.9 909.33 89.37 909.04 89.91 908.9 90.68 908.96 91.28 909.33 91.57 909.18 91.79 908.36 91.81 907.59 91.93 906.32 91.89 904.72 91.76 904.11 91.57 903.79 91.02 903.22 89.96 902.79 89.08 903.07 88.05 903.58 86.73 904.5 84.69 906.51 83.7 907.84 82.59 908.84 81.55 909.99 80.7 910.79 79.54 911.56 79.14 911.65 78.17 910.91 76.62 910.17 73.15 908.71 72.82 908.48 72.24 908.35 71.68 908.12 71.24 907.54 70.89 907.22 70.34 907.1 69.24 907.05 69.02 906.96 68.49 906.17 67.52 905.5 67.22 905.22 66.73 904.42 66.61 903.6 66.47 903.26 65.79 903.09 65.48 902.91 65.1 902.39 64.54 902.29 64.07 902.06 63.65 901.23 63.02 900.88 62.04 900.78 61.02 900.59 60.24 901 59.66 901.06 59.14 901.02 58.7 900.8 57.98 900.03 57.91 899.2 57.44 898.48 57.12 898.4 56.44 898.64 56.13 898.59 54.32 897.44 53.26 897.33 52.7 896.8 52.26 895.71 52.07 895.4 51.6 895.1 50.96 894.83 49.9 894.67 49.38 894.52 48.82 894.23 48.81 893.96 49.62 892.4 49.6 892.17 49.09 891.44 48.28 890.65 47.1 890.39 46.67 890.23 46.07 889.87 45.6 889.76 45.13 889.49 44.91 889.15 44.52 888.21 44.24 887.81 43.41 887.12 42.85 886.84 41.16 886.41 40.57 885.96 40.35 885.51 40.38 884.86 40.65 884.25 40.6 883.72 40.28 883.19 40.02 882.5 39.73 882.22 37.82 880.8 37.63 880.24 38.05 879.94 38.65 879.04 39.15 878.69 39.53 877.97 39.78 877.84 41.05 877.75 42.17 877.73 42.58 877.53 42.82 877.03 43.08 875.66 42.74 875.02 42.51 874.36 42.16 873.97 42.1 873.23 41.82 872.68 41.06 871.59 40.83 870.85 40.3 870.3 40.18 870.04 40.28 868.94 40.18 868.44 39.9 867.81 39.65 867.45 38.81 867.04 38.34 866.71 38.16 866.43 37.39 865.58 37.45 864.92 37.01 864.55 36.29 864.11 35.53 863.72 34.67 862.59 34.17 861.72 33.16 860.86 33.01 860.14 32.79 859.59 32.73 858.85 32.36 858.27 32.35 857.91 32.82 857.08 32.91 856.71 32.79 856.19 32.8 855.35 32.61 854.63 32.76 853.53 32.71 853.13 32.25 851.91 33.2 850.24 33.05 849.16 33.17 848.57 33 848.43 32.32 848.49 31.29 847.81 30.86 847.2 30.6 846.67 30.6 846.18 30.98 845.11 30.95 844.74 30.31 843.67 30.16 843.06 30.08 842.01 29.63 841.48 29.3 840.47 28.89 839.56 28.26 838.38 28.1 837.6 27.86 837.36 27.07 837.13 25.85 836.94 25.45 836.64 24.95 836 24.53 835.34 24.13 834.44 23.96 834.32 22.88 833.94 21.46 833.33 20.61 832.78 20.04 832.54 19.45 832.41 17.99 832.4 16.81 832.52 16.18 832.78 15.4 832.71 14.83 832.97 14 833 13 832.38 12.51 832.26 11.7 832.22 11.37 831.96 10.98 831.12 10.69 830.09 10.28 829.67 9.35 829.38 8.9 828.82 7.51 828.05 7.32 827.79 6.43 827.36 5.58 827.3 4.79 826.71 4.1 826.03 3.63 825.48 3.29 824.95 2.86 824.07 2.75 823.68 2.71 822.56 2.6 821.91 2.19 821.13 1.78 819.94 1.39 818.64 1.04 817.98 1 817.71 1.27 817.23 2.21 816.53 3.04 815.99 3.94 815.28 4.54 814.68 5.16 814.31 6.21 814.16 6.89 813.81 7.57 813.15 7.97 812.98 9.71 812.9 10.23 812.64 11.6 811.68 12.51 811.33 13.46 810.87 13.79 810.78 14.44 810.83 14.88 811.18 15.42 811.37 16.06 811.37 17.49 811.24 18.75 810.67 20.46 810.29 20.96 809.96 21.57 809.03 22.14 807.82 22.54 807.56 22.98 807.74 23.31 808.14 23.8 808.34 25.23 808.58 25.85 808.97 26.48 809.07 26.81 809.01 28.04 808.45 28.69 807.94 29.48 807.71 30.6 807.62 32.23 807.59 33.23 807.68 37.92 809.04 38.63 809.15 39.17 808.79 39.67 807.96 40.11 807.6 40.19 807.09 40.5 806.37 41.17 805.79 41.29 805.58 41.48 804.57 41.8 804.05 42.17 803.89 42.73 803.3 43.25 803.22 43.81 803.53 44.34 803.58 45.87 803.03 46.49 802.76 47.21 802.68 47.93 802.51 48.96 801.98 50.42 800.55 50.77 799.99 51.14 799.03 51.34 798.32 52.83 797.12 53.09 796.99 53.53 797.08 54.95 797.2 55.81 797.1 57.06 797.23 57.7 797.13 58.87 796.73 59.14 796.54 59.77 796.38 60.9 796.47 61.48 796.64 61.9 796.96 62.26 797.05 63 797 63.5 796.78 63.85 796.38 64.68 796.46 65.22 796.24 65.8 795.86 66.98 795.73 68.5 795.84 69.33 795.38 70.68 795.24 71.15 795.06 71.24 794.81 71.25 794.05 71.86 793.03 73.23 792.76 73.67 792.37 74.11 792.21 74.47 791.72 74.91 791.47 75.75 791.66 77.42 791.77 79.29 791.69 80.07 791.53 80.87 791.27 81.43 791.16 82.03 791.16 83.01 791.64 83.48 791.41 84.39 791.22 85.04 791.19 85.15 791.6 85.06 792.28 85.11 792.72 85.54 792.97 86.75 792.99 87.58 793.27 88.35 793.34 88.65 793.69 88.56 794.83 88.37 795.9 88.25 797.17 88.46 797.68 89.68 798.44 90.04 798.98 90.38 799.18 91.4 799.23 92.03 799.04 92.59 799.08 92.84 799.87 92.89 800.6 92.85 801.8 92.74 802.44 92.73 803.17 92.59 804.38 92.39 804.84 91.67 805.55 90.94 807.54 90.89 807.81 91.58 808.04 92.51 808.69 94.38 809.24 94.64 809.45 95.08 810.07 96.34 810.64 97.25 810.67 97.81 810.84 98.12 811.2 98.94 811.38 99.9 813.35 100.7 814.2 101.01 814.63 101.25 815.24 101.88 816.22 102.24 816.61 102.88 817.12 104.01 817.82 104.83 818.06 106.1 818.89 106.75 819.1 108.07 819.21 108.96 819.67 110.28 819.87 110.8 819.99 111.68 820.57 111.84 821.2 112.4 821.48 113.22 821.75 113.93 822.54 114.38 822.63 114.96 822.29 115.22 822.76 115.7 823.25 116.32 823.38 116.66 823.76 116.69 824.58 116.84 825.16 117.31 825.85 117.43 826.21 118.09 826.72 118.3 827.48 118.49 827.57 121.14 827.6 121.54 827.54 121.95 827.24 122.22 827.27 122.31 828.07 122.47 828.79 122.6 828.93 122.41 829.93 122.49 831.09 122.6 831.34 122.56 832.19 122.87 832.87 122.93 834.07 122.73 834.52 122.74 835.77 122.93 836.33 123.66 836.63 124.06 837.04 125.7 838.44 126.37 839.53 126.52 840.11 126.43 841.83 126.49 843.11 126.56 843.67 126.44 844.39 126.51 845.01 126.88 847.02 126.99 848.36 127.33 848.61 128.23 848.65 129.67 848.62 130.76 848.82 131.5 848.47 132.01 848 132.57 847.83 133.29 847.74 134.52 847.44 135.35 847.41 135.74 847.48 136.06 847.76 136.28 848.31 136.81 849.14 137.16 849.49 138.17 850.01 138.77 851.13 138.86 851.47 139.5 852.51 139.93 852.87 140.1 853.6 140.23 853.78 141.03 854.05 141.71 854.72 142.14 854.75 142.65 854.96 143.44 855.74 143.94 856.35 144.44 856.6 144.81 856.53 145.1 856.21 145.28 855.66 145.5 855.56 145.77 856.42 145.9 856.59 146.6 856.78 147.18 857.19 148.62 857.94 149.44 857.84 150.14 857.64 150.98 857.27 152.37 857.2 152.84 857.22 153.17 857.59 153.79 858.77 154.12 859.04 155.41 859.88 156.45 860.8 156.84 861.54 156.87 862.29 156.82 863.33 157.03 863.67 159.03 863.76 160.1 864.17 160.65 864.2 161.27 863.89 162.38 863.56 162.63 863.15 162.48 861.49 163.31 860.73 163.66 859.87 164.71 859.84 165.21 859.68 165.45 859.34 165.08 858.11 165.27 857.39 165.59 857.17 166.08 857.11 166.55 857.68 170.03 860.04 171.15 860.4 171.86 860.86 172.52 861.71 Z" id="七堵區"/>
<path d="M 204.83 867.42 203.8 867.34 203.22 867.41 202.41 868.18 201.32 868.63 200.48 869.76 199.24 872.02 198.49 872.5 197.67 873.47 197.2 873.58 196.94 873.47 195.86 873.24 194.5 872.47 193.79 872.2 193.17 872.45 192.42 872.06 191.51 872.09 191.06 872.58 190.54 872.63 189.97 873.1 189.64 873.19 188.89 873.2 188.32 873.07 188.08 872.78 187.08 872.53 186.92 872.31 187.15 871.53 187.09 870.94 186.66 870.64 186.38 870.13 186.37 869.12 186.59 868.35 186.58 867.82 186.39 866.53 186.61 864.88 186.52 864.39 186.05 864.11 185.73 863.74 185.06 863.48 184.87 862.84 184.83 862.06 184.72 861.56 184.4 861.28 183.75 861.24 181.85 861.27 181.12 861.39 180.58 861.73 180.16 861.72 179.83 861.4 178.96 861.18 177.24 861.16 175.77 860.99 174.98 861.09 175.98 859.9 176.24 859.27 176.39 857.62 177.41 856.56 177.58 856.13 178.25 855.28 178.81 854.8 179.08 854.36 179.06 853.85 178.89 853.43 178.78 852.72 179.01 852.22 179.64 851.48 179.52 851.2 179.64 850.11 179.63 849.46 179.3 848.97 178.12 848.32 177.8 847.92 177.61 847.3 177.54 846.51 177.64 845.3 177.6 845.02 176.93 844.18 176.73 843.2 176.71 841.75 176.81 841.03 177.05 840.08 177.4 839.67 177.82 839.51 177.85 838.52 178.31 837.69 178.89 836.99 179.52 836.52 179.81 835.83 180.22 835.34 180.78 835.04 181.74 835.19 182.35 834.92 183.86 835.78 184.19 835.76 184.14 834.94 184.38 833.48 184.92 832.11 190.02 824.32 194.05 826.31 191.66 830.42 191.57 830.8 193.9 832.07 195.58 832.94 198.6 834.58 200.82 835.76 201.61 836.01 210.97 836.91 211.18 838.22 211.51 838.35 212.24 839.19 212.57 839.82 212.89 840.2 213.36 840.58 213.77 841.18 213.96 841.75 213.72 842.38 212.77 844.21 212.3 844.99 211.45 846.27 210.16 848.29 209.98 848.79 209.12 849.38 208.84 850.28 208.43 850.9 208 852.25 208.59 852.38 209.28 852.82 209.35 853.2 209.24 853.57 208.63 855.07 208.67 856.12 208.44 856.71 207.85 857.43 207.63 857.91 207.55 858.83 207.22 859.41 207.32 859.73 207.16 860.23 207.05 861.44 207.15 861.89 208 863.45 207.77 864.58 207.86 865.19 206.91 866.1 206.09 866.37 205.8 866.76 205.22 867.04 204.83 867.42 Z" id="仁愛區"/>
<path d="M 278.63 839.75 278.25 841.03 278.03 841.56 278.24 841.94 278.51 843.35 278.44 844.06 278.01 844.4 277.96 844.77 278.6 845.43 279.07 845.75 279.85 846.11 280.38 846.52 281.37 847.49 282.11 848.01 282.71 848.19 283.24 849.63 283.53 850.11 283.6 850.61 283.93 850.85 284.86 850.87 285.63 851.41 285.69 852.08 285.44 852.91 284.87 853.47 283.55 854.08 283.54 854.57 283.65 855.3 284.03 855.57 284.74 855.49 285.28 855.84 285.03 856.15 284.57 856.33 284.14 856.74 283.58 858.48 283.85 859.72 283.38 859.95 282.92 859.96 282.12 860.44 281.6 860.57 280.97 860.55 280.41 860.66 279.97 861.15 279.26 862.25 278.74 862.6 276.77 862.13 275.84 862.05 274.93 862.11 273.65 862.29 272.42 862.84 271.97 863.15 271.59 863.22 271.26 863.11 270.58 862.51 269.97 861.79 269.07 860.57 267.95 859.11 267.19 858.19 266.45 857.12 265.95 856.19 264.92 854.46 264.42 853.42 264.26 853.31 263.52 853.18 263.19 853.25 262.71 853.97 261.76 854.86 260.8 855.65 260.3 855.94 259.32 855.74 258.25 855.08 257.34 854.84 256.08 854.32 255.39 854.19 254.16 854.39 253.46 854.33 253 853.85 252.56 853.73 251.5 853.67 250.27 853.14 249.77 852.6 249.06 852.48 248.02 852.63 247.58 852.45 247.07 851.9 246.47 850.97 246.03 850.49 244.86 850.17 244.03 849.85 243.29 849.94 242.83 850.13 242.24 850.77 242 851.14 241.11 851.87 240.5 852.76 240.38 853.25 240.4 853.83 240.25 854.46 239.87 854.86 239.18 855.25 238.72 855.6 238.55 855.88 238.37 856.72 237.46 858.64 237.07 859.05 235.77 860.06 235.4 860.21 234.59 860.33 234.3 860.64 233.31 862.15 232.8 862.68 232.09 862.52 230.98 861.9 230.4 861.48 229.23 861.31 227.48 861.26 226.8 861.16 226.3 861.27 225.82 861.56 225.36 862.15 225 862.45 223.77 862.9 223.14 862.92 222.18 862.59 221.14 862.53 220.36 862.57 219.45 863.29 218.33 864.61 217.36 865.21 217.18 865.5 216.86 866.49 216.43 866.64 215.02 866 214.48 865.9 213.4 866.19 212.92 866.16 211.36 865.67 210.42 865.57 209.2 865.52 207.86 865.19 207.77 864.58 208 863.45 207.15 861.89 207.05 861.44 207.16 860.23 207.32 859.73 207.22 859.41 207.55 858.83 207.63 857.91 207.85 857.43 208.44 856.71 208.67 856.12 208.63 855.07 209.24 853.57 209.35 853.2 209.28 852.82 208.59 852.38 208 852.25 208.43 850.9 208.84 850.28 209.12 849.38 209.98 848.79 210.16 848.29 211.45 846.27 212.3 844.99 212.77 844.21 213.72 842.38 213.96 841.75 213.77 841.18 213.36 840.58 212.89 840.2 212.57 839.82 212.24 839.19 211.51 838.35 211.18 838.22 210.97 836.91 201.61 836.01 200.82 835.76 198.6 834.58 200.06 832.34 200.69 831.21 201.28 830.27 202.72 829.53 203.04 829.48 203.68 829.65 204.44 829.47 205.65 829.02 207.59 828.2 208.13 827.7 208.42 827.57 210.38 827.51 211.36 827.21 212.01 827.18 213.02 827.41 213.93 827.09 214.66 827.06 215.38 826.9 216.32 826.41 216.55 826.45 217.06 827.04 217.43 827.11 218.78 826.48 219.24 826.06 219.44 825.66 219.43 825.35 220.15 825.62 220.89 825.75 221.87 825.73 222.71 825.26 222.97 824.83 223.21 824.79 224.31 823.77 225.4 823 226.53 822.66 227.62 822.65 228.75 822.88 230.53 823.58 231.08 823.88 231.46 823.91 231.97 824.31 232.73 824.54 233.61 824.48 235.16 823.42 237.03 825.1 237.43 824.92 237.87 824.41 238.58 823.89 239.34 823.05 240.06 821.88 240.62 821.51 241.48 821.74 244.8 816.84 246.16 813.16 246.73 812.78 247.3 811.97 247.75 811.46 248.49 810.51 248.93 810.14 249.69 809.77 251.24 809.6 251.98 809.28 252.51 809.28 253.22 809.54 253.52 809.55 254.45 809.35 255.05 808.99 255.55 808.93 256.14 809.3 257.19 810.6 258.02 811.79 258.63 813.57 259.25 814.12 259.64 815.08 259.59 816.06 259.07 817.21 258.86 818.05 258.93 819.29 259.98 820.44 260.94 821.4 261.33 821.88 261.61 822.55 261.66 822.98 261.63 824.12 261.84 826.21 262.18 827.52 262.61 827.87 270.45 829.96 270.78 830.26 273.54 833.78 273.71 834.69 274.06 835.13 274.86 835.4 275.41 835.73 276.27 836.95 276.64 837.23 277.54 837.48 277.97 837.88 278.34 838.48 278.63 839.75 Z" id="信義區"/>
<path d="M 293.35 823.5 292.77 824.37 291.8 826.35 291.72 826.6 294.03 827.9 294.25 828.14 294.4 829.06 295.08 830.04 295.74 830.71 296.19 831.37 296.4 831.91 296.32 832.42 296.56 833.15 296.53 833.37 295.93 833.76 295.93 834.01 296.35 834.85 296.24 835.38 295.78 835.87 295.49 836.06 294.56 836.28 294.33 836.51 293.89 837.43 293.79 837.99 293.92 838.35 294.9 839.47 295.8 840.73 295.85 841.48 295.59 841.93 294.18 843.11 293.73 843.65 293.23 844.5 292.78 845.65 292.79 846.64 292.32 847.12 292.02 847.3 291.46 847.39 290.59 846.37 290.18 846.01 289.42 845.52 288.72 845.26 288.19 845.17 287.23 845.14 286.93 844.88 286.02 843.54 286.07 843.12 285.74 843.07 284.4 843.21 283.61 842.01 282.87 841.46 282 841.18 281.37 841.39 281.08 841.33 279.94 840.56 278.63 839.75 278.34 838.48 277.97 837.88 277.54 837.48 276.64 837.23 276.27 836.95 275.41 835.73 274.86 835.4 274.06 835.13 273.71 834.69 273.54 833.78 270.78 830.26 270.45 829.96 262.61 827.87 262.18 827.52 261.84 826.21 261.63 824.12 261.66 822.98 261.61 822.55 261.33 821.88 260.94 821.4 259.98 820.44 258.93 819.29 258.86 818.05 259.07 817.21 259.59 816.06 259.64 815.08 259.25 814.12 258.63 813.57 258.02 811.79 257.19 810.6 256.14 809.3 255.55 808.93 255.05 808.99 254.45 809.35 253.52 809.55 253.22 809.54 252.51 809.28 251.98 809.28 251.24 809.6 249.69 809.77 248.93 810.14 248.49 810.51 247.75 811.46 247.3 811.97 246.73 812.78 246.16 813.16 244.8 816.84 241.48 821.74 240.62 821.51 240.06 821.88 239.34 823.05 238.58 823.89 237.87 824.41 237.43 824.92 237.03 825.1 235.16 823.42 233.61 824.48 232.73 824.54 231.97 824.31 231.46 823.91 231.08 823.88 230.53 823.58 228.75 822.88 227.62 822.65 226.53 822.66 225.4 823 224.31 823.77 223.21 824.79 222.97 824.83 222.71 825.26 221.87 825.73 220.89 825.75 220.15 825.62 219.43 825.35 219.44 825.66 219.24 826.06 218.78 826.48 217.43 827.11 217.06 827.04 216.55 826.45 216.32 826.41 215.38 826.9 214.66 827.06 213.93 827.09 213.02 827.41 212.01 827.18 211.36 827.21 210.38 827.51 208.42 827.57 208.13 827.7 207.59 828.2 205.65 829.02 204.44 829.47 203.68 829.65 203.04 829.48 202.72 829.53 201.28 830.27 200.69 831.21 200.06 832.34 198.6 834.58 195.58 832.94 193.9 832.07 191.57 830.8 191.66 830.42 194.05 826.31 196.3 822.37 196.84 821.62 198.02 820.4 198.84 819.75 201.1 818.52 202.65 817.63 204.23 816.67 207.08 815.04 208.21 814.29 210.06 812.82 210.95 812.02 212 810.89 212.59 810.1 213.2 809.05 213.79 807.77 214.91 804.95 215.38 803.02 215.83 800.12 215.86 799.62 215.72 798.39 215.4 797.42 214.44 795.44 213.69 793.83 212.94 791.76 212.29 790.22 211.78 788.6 211.47 787.79 210.63 785.78 210.42 785.34 212.98 780.39 213.05 780.11 214.04 780.53 215.02 784.93 217.49 784.48 218.01 782.63 221.3 782.05 221.67 782.17 221.57 782.41 221.95 782.94 221.89 783.48 224.6 783.69 224.91 783.63 225.22 783.35 225.48 782.78 225.21 782.07 225.6 781.51 225.24 780.88 225.1 781.62 224.92 781.56 224.94 781.1 224.1 780.44 224.35 779.94 224.71 779.88 225.4 779.6 226.06 779.58 226.54 779.7 226.97 780.07 227.38 779.91 226.59 779.39 225.77 779.17 225.31 779.12 225.2 778.4 225.82 778.1 226.36 778.01 226.97 777.38 227.11 777.84 227.53 778.02 227.87 777.81 228.25 778.14 229.45 777.95 229.49 778.34 230.17 778.28 230.56 778.46 230.51 778.94 230.75 779.12 231.27 778.84 231.52 778.85 231.81 779.14 232.31 779.11 233.15 779.88 233.49 779.91 233.66 780.14 233.43 780.43 232.58 781.01 233.22 780.97 234.91 780.68 235.26 780.43 235.5 780.65 236.13 780.6 237.57 781.33 238.21 782.01 238.37 782.91 238.13 783.32 238.38 783.69 239.24 783.88 239.47 784.02 239.94 783.4 241.81 782.69 242.7 782.67 243.68 782.85 244.83 783.22 245.89 783.35 247.16 783.86 248.56 784.34 248.82 784.76 249.17 784.93 252.5 785.28 252.89 785.62 254.08 785.79 254.25 786.05 255.05 786.15 255.01 786.43 254.11 786.3 252.94 786.23 252.46 786.29 251.91 786.2 249.2 785.94 248.87 786.49 248.95 787.48 248.59 787.51 248.16 787.94 247.6 788.26 245.94 789.05 244.82 789.41 244.79 789.89 244.6 790.14 244.25 790.21 244.22 789.82 243.57 790.01 242.38 791.44 243.44 791.82 243.72 791.47 244.2 791.82 244.41 791.56 245.04 790.33 245.27 790.22 245.75 790.82 246.08 792.05 246.6 793.09 247.06 793.83 248.57 795.79 248.85 796 249.31 796.64 249.22 797.2 249.56 797.62 250.2 797.93 250.64 798.25 251.05 798.28 252.05 797.41 252.77 796.31 254.22 795.37 255.43 795.48 257.73 796.14 258.88 796.91 259.97 797.24 260.99 797.96 262.02 799.17 262.75 800.77 262.84 801.42 263.87 801.43 269.6 803.72 271.34 803.36 271.4 803.67 273.16 803.62 273.36 803.35 275.24 804.9 276.29 805.85 279.12 805.91 278.99 804.76 279.32 804.29 279.84 803.89 280.99 803.73 282.93 803.69 283.73 804.01 284.48 804.62 285.45 804.82 286.55 804.94 287.48 804.82 288.45 804.76 289.42 803.86 290.66 803.36 291.23 803.61 292.42 803.81 293.57 803.61 294.68 803.52 295.43 803 297.63 802.39 299.18 802.11 299.53 802.35 299.75 802.92 300.24 803.2 301.03 804.42 301.08 805.06 300.46 805.27 300.55 806.48 300.23 806.73 299.8 806.67 299.68 807.01 298.84 807.01 298.39 807.18 297.62 808.36 297.94 808.89 297.42 809.3 296.2 809.53 295.1 809.82 294.52 810.47 294.07 811.36 293.94 812.06 294.32 812.7 294.84 812.7 295.16 812.93 294.97 813.23 294.03 813.57 293.16 813.76 292.65 813.99 292.71 814.28 293.03 814.46 293.68 815.15 293.35 815.33 293 815.12 292.36 815.42 292.25 815.63 291.58 816.16 291.64 816.32 292.84 816.34 293.62 817.66 294.29 818.47 293.96 818.98 294.51 820.1 294.67 820.55 294.6 820.84 293.74 821.82 293.67 822.1 293.03 823.11 293.35 823.5 Z M 267.85 725.11 268.56 725.17 269.71 725.17 270.06 725.95 269.71 728.33 270.15 728.88 269.89 729.23 269.21 730.56 269.21 731.08 268.29 731.75 267.18 732.41 266.21 732.64 265.85 732.64 264.7 732.19 263.11 733.13 262.57 733.55 261.99 733.75 261.6 733.73 261.07 734.2 260.28 734.52 259.35 735.04 257.64 734.91 257.14 734.46 257 733.1 257.85 730.89 258.42 729.52 259.42 729 259.77 729.13 260.11 728.64 261.99 726.34 265.54 725.12 265.89 725.16 266.06 724.91 266.78 724.91 267.85 725.11 Z M 529.79 346.47 530.25 346.57 530.26 347.09 529.94 347.31 529.93 347.57 529.67 348.03 529.24 347.92 529.05 347.6 529.32 347.44 529.44 347.12 529.49 346.44 529.79 346.47 Z M 799 248.42 797.86 248.1 798.25 247.89 798.77 248.01 799 248.42 Z M 795.39 242.56 795.86 243.14 796.24 243.42 797.08 243.27 797.41 243.34 797.27 243.66 796.44 244 795.85 244.65 795.57 245.64 795.36 246.16 795.35 246.9 795.45 247.05 796.13 247.14 796.69 247.4 796.79 247.59 796.78 248.31 796.27 248.2 795.51 248.66 795.13 249.07 794.55 249.23 794.09 249.54 794.02 249.74 794.21 250.3 794.06 250.95 793.31 251.36 792.98 251.45 792.43 251.4 792.37 250.93 790.25 249.76 790.01 249.55 789.67 248.98 789.86 248.54 789.73 248.17 790.03 247.41 790.03 247.2 789.37 246.17 789.71 245.99 789.6 245.23 789.27 244.78 789.66 244.53 790.67 245.1 791.33 244.83 791.52 244.36 791.49 243.97 791.11 243.59 791.28 242.61 791.78 242.27 792.54 241.88 793.4 241.78 794.61 242.03 795.39 242.56 Z M 795.42 242.1 795.27 241.69 795.69 241.71 795.73 241.96 795.42 242.1 Z M 748.06 1.37 749.13 1.32 750.36 1.61 750.67 1.81 750.95 1.76 751.15 1.42 751.81 1.03 752.73 1.39 753.2 1.34 754.08 1.62 754.87 1.99 755.17 1.52 755.79 1.07 756.57 1.1 757.32 1.29 758.19 2.66 758.25 3.72 758.04 4.08 758.09 4.58 758.59 4.81 758.93 5.1 759.14 6 759.22 7.7 758.94 8.36 758.42 8.72 757.84 8.7 757.67 9.21 757.71 9.86 758.05 10.51 757.68 10.7 757.16 11.4 756.49 12 755.77 12.32 755.1 12.84 754.78 13.29 753.82 13.47 753.34 13.8 752.46 14.13 752.38 14.61 752.71 14.93 753.14 15.16 753.76 15.27 753.87 15.57 753.35 16.17 753.62 16.55 753.5 17.03 751.87 17.66 750.05 17.72 749.16 18.09 747.93 17.94 747.27 17.61 746.94 17.17 746.51 17.31 746.29 17.14 745.95 16.23 745.52 15.56 745.73 14.71 745.61 14.52 744.64 14.38 744.35 14.41 744.27 14.72 743.79 14.78 743.73 14.23 743.04 14.88 743.15 14.17 742.87 13.83 742.36 13.84 742.09 13.43 741.85 13.53 741.51 14.1 741.07 13.32 741.23 12.88 741.01 12.78 740.53 13 740.01 12.97 739.95 12.59 739.52 12.36 739.13 12.3 739.17 11.9 738.78 11.95 738.28 10.85 738.26 10.38 738.03 9.68 737.99 9.16 737.69 8.84 738.11 8.77 738.14 8.28 738.4 7.31 739.12 5.84 739.25 5.46 739.72 4.72 739.81 4.4 739.66 4.08 740.58 3.64 740.48 3.12 740.12 2.88 740.28 2.46 740.51 2.51 740.79 3.08 741.54 3.1 741.89 2.88 743.45 2.55 744.49 2.11 746.05 1.72 747.06 1.62 747.47 1.45 747.69 1 748.06 1.37 Z" id="中正區"/>
<path d="M 194.05 826.31 190.02 824.32 184.92 832.11 184.38 833.48 184.14 834.94 184.19 835.76 183.86 835.78 182.35 834.92 182.06 834.71 181.31 833.97 180.33 832.78 179.99 832.25 179.92 831.46 180.07 830.54 180.08 829.75 179.92 828.27 179.69 827.59 177.67 825.29 177.32 825.03 176.56 824.66 176.08 824.28 175.77 823.04 175.24 822.48 174.33 821.7 173.84 821.16 172.33 820.32 171.81 820.14 171.25 819.84 170.34 819 169.98 818.43 169.3 818.1 168.42 817.51 167.88 816.97 166.83 816.56 166.56 816.29 166.34 815.86 166.26 815.16 165.66 814.6 165.08 814.3 164.64 814.35 163.27 814.25 162.91 813.98 162.83 813.72 162.38 813.7 162.18 813.93 161.76 813.96 161.9 814.25 161.09 814.62 161.08 814.88 160.41 815.08 161.06 815.73 160.86 816.32 159.71 817.36 157.47 814.42 157.2 814.64 156.98 815.26 156.79 816.7 157.05 817.86 157.01 818.19 156.65 818.22 156.15 817.67 155.44 817.17 154.52 816.68 154.03 816.22 152.56 815.36 152.24 815.09 151.87 814.53 151.37 814.1 150.76 813.78 150.6 813.55 150.23 812.59 150.04 812.36 148.92 811.73 148.5 811.2 148.46 810.81 148.6 809.94 148.47 809.35 148.04 809.11 147.6 808.69 147.59 807.65 147.41 807.01 146.98 806.04 147.01 805.37 146.75 804.23 146.37 803.92 145.61 803.66 144.51 803.01 144.1 802.92 143.68 803.06 143.06 802.87 142.75 802.51 142.36 801.67 142.2 801.11 142.2 800.23 142.01 799.4 142.13 798.69 141.84 798.04 141.85 797.12 141.58 796.8 140.94 796.62 140.47 796.32 139.94 795.54 139.82 794.64 140.03 794.07 140.75 793.42 140.96 793.03 140.85 792.76 140.3 792.26 139.73 791.12 139.42 790.33 139.28 789.74 138.7 789.12 138.57 788.54 138.55 787.62 138.4 786.79 138.45 786.48 139.21 786.59 139.54 786.53 140.41 786.04 140.91 785.82 141.79 785.57 143.05 785.01 144.85 784.02 146.2 783 146.64 782.62 146.98 782.03 146.96 781.02 147.02 780.26 146.58 779.59 146.14 779.08 144.77 777.33 144.01 776.67 143.58 776.09 143 774.72 143.16 774.16 144.83 773.65 145.05 774.26 147.07 774.26 148.18 774.06 149.19 772.33 150.19 772.03 150.98 772.64 150.86 774.26 152.76 774.37 154.88 774.67 159.13 775.18 161.25 775.59 162.93 774.57 164.05 774.98 164.89 776.17 165.18 776.46 166.5 777.11 167.51 777.42 168.96 777.31 169.97 778.03 170.87 778.19 171.33 777.86 171.55 777.86 172.2 777.52 172.87 778.03 173.09 778.74 173.83 779.68 174.25 779.76 175.25 779.66 175.45 779.89 175.4 780.39 175.81 781.05 176.26 781.4 176.66 781.03 177.34 781.2 178.25 781.73 178.65 782.36 179.31 782.83 179.76 783.27 179.62 783.56 180.17 783.86 180 784.1 179.27 783.76 178.28 785.39 178.16 785.76 178.88 786.28 178.76 786.39 177.7 785.74 177.7 786.5 178.64 787.14 179.04 786.54 179.47 786.42 179.65 785.88 180.15 785.51 180.99 785.25 182.39 785.15 182.72 785.32 183.04 785.11 183.88 783.62 185.27 782.61 185.83 782.47 186.46 782.57 187.1 783.41 187.42 783.55 187.9 783.44 188.17 783.59 188.05 783.99 187.74 784.53 187.74 784.93 192.63 788.66 193.7 788.91 194.46 789.02 194.86 789.32 194.69 789.54 194.1 789.72 194.11 789.96 194.7 789.81 195.12 789.48 195.37 788.93 194.8 788.56 194.88 788.29 195.45 788.45 195.91 789.01 196.29 789.25 197.04 789.41 198.06 789.36 198.25 789.16 198.78 789.21 199.43 788.76 199.98 788.67 200.17 789.33 200.53 789.66 202.35 790.34 209.77 786.6 210.42 785.34 210.63 785.78 211.47 787.79 211.78 788.6 212.29 790.22 212.94 791.76 213.69 793.83 214.44 795.44 215.4 797.42 215.72 798.39 215.86 799.62 215.83 800.12 215.38 803.02 214.91 804.95 213.79 807.77 213.2 809.05 212.59 810.1 212 810.89 210.95 812.02 210.06 812.82 208.21 814.29 207.08 815.04 204.23 816.67 202.65 817.63 201.1 818.52 198.84 819.75 198.02 820.4 196.84 821.62 196.3 822.37 194.05 826.31 Z" id="中山區"/>
<path d="M 174.98 861.09 174.38 861.25 173.67 861.56 172.63 861.61 172.52 861.71 171.86 860.86 171.15 860.4 170.03 860.04 166.55 857.68 166.08 857.11 165.59 857.17 165.27 857.39 165.08 858.11 165.45 859.34 165.21 859.68 164.71 859.84 163.66 859.87 163.31 860.73 162.48 861.49 162.63 863.15 162.38 863.56 161.27 863.89 160.65 864.2 160.1 864.17 159.03 863.76 157.03 863.67 156.82 863.33 156.87 862.29 156.84 861.54 156.45 860.8 155.41 859.88 154.12 859.04 153.79 858.77 153.17 857.59 152.84 857.22 152.37 857.2 150.98 857.27 150.14 857.64 149.44 857.84 148.62 857.94 147.18 857.19 146.6 856.78 145.9 856.59 145.77 856.42 145.5 855.56 145.28 855.66 145.1 856.21 144.81 856.53 144.44 856.6 143.94 856.35 143.44 855.74 142.65 854.96 142.14 854.75 141.71 854.72 141.03 854.05 140.23 853.78 140.1 853.6 139.93 852.87 139.5 852.51 138.86 851.47 138.77 851.13 138.17 850.01 137.16 849.49 136.81 849.14 136.28 848.31 136.06 847.76 135.74 847.48 135.35 847.41 134.52 847.44 133.29 847.74 132.57 847.83 132.01 848 131.5 848.47 130.76 848.82 129.67 848.62 128.23 848.65 127.33 848.61 126.99 848.36 126.88 847.02 126.51 845.01 126.44 844.39 126.56 843.67 126.49 843.11 126.43 841.83 126.52 840.11 126.37 839.53 125.7 838.44 124.06 837.04 123.66 836.63 122.93 836.33 122.74 835.77 122.73 834.52 122.93 834.07 122.87 832.87 122.56 832.19 122.6 831.34 122.49 831.09 122.41 829.93 122.6 828.93 122.47 828.79 122.31 828.07 122.22 827.27 121.95 827.24 121.54 827.54 121.14 827.6 118.49 827.57 118.3 827.48 118.09 826.72 117.43 826.21 117.31 825.85 116.84 825.16 116.69 824.58 116.66 823.76 116.32 823.38 115.7 823.25 115.22 822.76 114.96 822.29 114.38 822.63 113.93 822.54 113.22 821.75 112.4 821.48 111.84 821.2 111.68 820.57 110.8 819.99 110.28 819.87 108.96 819.67 108.07 819.21 106.75 819.1 106.1 818.89 104.83 818.06 104.01 817.82 102.88 817.12 102.24 816.61 101.88 816.22 101.25 815.24 101.01 814.63 100.7 814.2 99.9 813.35 98.94 811.38 98.12 811.2 97.81 810.84 97.25 810.67 96.34 810.64 95.08 810.07 94.64 809.45 94.38 809.24 92.51 808.69 91.58 808.04 90.89 807.81 90.94 807.54 91.67 805.55 92.39 804.84 92.59 804.38 92.73 803.17 92.74 802.44 92.85 801.8 92.89 800.6 92.84 799.87 92.59 799.08 92.03 799.04 91.4 799.23 90.38 799.18 90.04 798.98 89.68 798.44 88.46 797.68 88.25 797.17 88.37 795.9 88.56 794.83 88.65 793.69 88.35 793.34 87.58 793.27 86.75 792.99 85.54 792.97 85.11 792.72 85.06 792.28 85.15 791.6 85.04 791.19 85.14 791.07 85.65 789.73 86.09 788.78 86.38 788.38 87.03 787.99 87.8 787.39 88.77 786.95 89.53 786.45 90.32 785.71 91.25 785.32 91.84 785.3 93.17 785.36 93.52 785.2 93.86 784.82 94.09 784.02 94.06 783.61 94.27 783.06 94.51 783.07 95.78 783.69 96.46 783.92 97.01 783.96 97.32 783.73 97.85 783.13 98.44 782.84 99.51 782.18 99.79 781.89 100.72 781.69 101.05 781.55 101.59 781.01 101.73 780.69 102.02 779.51 102.89 778.28 103.37 777.81 103.63 777.37 103.97 777.3 104.85 777.51 105.18 777.09 105.76 776.82 106.5 776.97 106.92 776.78 107.34 776.17 107.28 775.42 107.51 774.41 107.27 773.97 107.7 773.67 108.23 773.53 108.8 773.54 109.51 773.95 110.06 773.62 110.6 773.51 111.4 773.47 112.18 773.34 113.01 773.45 113.49 773.12 113.79 773.1 114.3 773.41 114.93 773.47 115.4 773.19 115.96 772.55 116.38 772.28 117.15 772.33 117.73 772.85 118.05 772.93 119.24 772.73 119.64 772.45 120.37 772.19 120.55 771.62 120.44 769.79 120.65 769.35 121.16 769.26 121.87 769.26 122.89 769.4 123.31 769.18 123.69 768.67 123.68 767.71 123.84 766.43 124.14 765.83 124.63 765.56 125.02 764.71 125.44 764.16 125.75 763.38 125.73 762.88 125.59 762.46 125.82 761.77 126.95 761.72 127.86 761.52 128.3 761.1 128.71 760.87 130.22 761.15 132 761.26 132.7 761.14 133.37 760.89 133.74 760.66 134.07 760.18 135.29 759.64 136.48 758.81 137.1 758.2 137.66 757.55 138.08 756.73 138.46 756.89 138.91 757.6 138.91 758.51 138.69 759.73 138.58 760.75 138.02 761.36 137.04 761.24 136.7 761.32 136.39 762.5 136.12 763.16 136.55 763.3 136.9 764.61 137.79 764.91 138.46 765.93 138.8 767.56 137.4 767.9 136.67 768.7 136.03 768.98 135.67 769.45 135.41 769.99 135.84 770.26 136.45 771.62 135.34 772.43 134.11 774.16 135 774.77 136.34 775.58 140.59 775.99 142.39 775.45 142.87 775.2 143 774.72 143.58 776.09 144.01 776.67 144.77 777.33 146.14 779.08 146.58 779.59 147.02 780.26 146.96 781.02 146.98 782.03 146.64 782.62 146.2 783 144.85 784.02 143.05 785.01 141.79 785.57 140.91 785.82 140.41 786.04 139.54 786.53 139.21 786.59 138.45 786.48 138.4 786.79 138.55 787.62 138.57 788.54 138.7 789.12 139.28 789.74 139.42 790.33 139.73 791.12 140.3 792.26 140.85 792.76 140.96 793.03 140.75 793.42 140.03 794.07 139.82 794.64 139.94 795.54 140.47 796.32 140.94 796.62 141.58 796.8 141.85 797.12 141.84 798.04 142.13 798.69 142.01 799.4 142.2 800.23 142.2 801.11 142.36 801.67 142.75 802.51 143.06 802.87 143.68 803.06 144.1 802.92 144.51 803.01 145.61 803.66 146.37 803.92 146.75 804.23 147.01 805.37 146.98 806.04 147.41 807.01 147.59 807.65 147.6 808.69 148.04 809.11 148.47 809.35 148.6 809.94 148.46 810.81 148.5 811.2 148.92 811.73 150.04 812.36 150.23 812.59 150.6 813.55 150.76 813.78 151.37 814.1 151.87 814.53 152.24 815.09 152.56 815.36 154.03 816.22 154.52 816.68 155.44 817.17 156.15 817.67 156.65 818.22 157.01 818.19 157.05 817.86 156.79 816.7 156.98 815.26 157.2 814.64 157.47 814.42 159.71 817.36 160.86 816.32 161.06 815.73 160.41 815.08 161.08 814.88 161.09 814.62 161.9 814.25 161.76 813.96 162.18 813.93 162.38 813.7 162.83 813.72 162.91 813.98 163.27 814.25 164.64 814.35 165.08 814.3 165.66 814.6 166.26 815.16 166.34 815.86 166.56 816.29 166.83 816.56 167.88 816.97 168.42 817.51 169.3 818.1 169.98 818.43 170.34 819 171.25 819.84 171.81 820.14 172.33 820.32 173.84 821.16 174.33 821.7 175.24 822.48 175.77 823.04 176.08 824.28 176.56 824.66 177.32 825.03 177.67 825.29 179.69 827.59 179.92 828.27 180.08 829.75 180.07 830.54 179.92 831.46 179.99 832.25 180.33 832.78 181.31 833.97 182.06 834.71 182.35 834.92 181.74 835.19 180.78 835.04 180.22 835.34 179.81 835.83 179.52 836.52 178.89 836.99 178.31 837.69 177.85 838.52 177.82 839.51 177.4 839.67 177.05 840.08 176.81 841.03 176.71 841.75 176.73 843.2 176.93 844.18 177.6 845.02 177.64 845.3 177.54 846.51 177.61 847.3 177.8 847.92 178.12 848.32 179.3 848.97 179.63 849.46 179.64 850.11 179.52 851.2 179.64 851.48 179.01 852.22 178.78 852.72 178.89 853.43 179.06 853.85 179.08 854.36 178.81 854.8 178.25 855.28 177.58 856.13 177.41 856.56 176.39 857.62 176.24 859.27 175.98 859.9 174.98 861.09 Z" id="安樂區"/>
</g>
</svg>