<?xml version="1.0"?>
<svg xmlns="http://www.w3.org/2000/svg" version="1.2" baseProfile="tiny" width="100%" height="100%" stroke-linecap="round" stroke-linejoin="round">
<g id="TOWN_MOI_1091016">
<path d="M 136.55 313.88 136.63 315.98 136.76 318.61 136.85 320.35 136.9 321.09 137.01 321.23 137.18 321.53 137.42 321.65 137.83 321.73 137.87 321.92 137.64 322.18 137.55 322.37 137.55 322.68 137.74 323.12 137.74 323.3 137.46 323.35 137.35 323.48 137.45 323.69 137.32 323.97 136.85 324.71 136.55 325.25 136.34 325.55 136.18 325.83 135.75 326.29 135.58 326.36 135.34 326.57 135.06 326.89 134.81 327.22 134.61 327.71 134.41 328.01 133.91 328.56 133.44 328.98 133.38 329.21 133.33 329.56 133.32 330.12 133.29 330.5 133.44 331.08 133.61 331.61 133.88 332.78 134.02 333.06 134.33 333.38 134.53 333.62 134.72 334.13 134.84 334.21 135.08 334.5 135.36 335.2 133.9 335.78 133.88 335.8 133.74 336.47 133.7 337.11 133.47 337.77 133.38 338.08 133.4 338.61 133.13 338.83 132.79 339.05 132.63 339.22 132.48 339.61 132.39 339.75 133.42 341.99 132.41 342.45 131.37 342.92 131.34 342.97 130.78 343.28 130.49 343.45 130.16 343.69 129.77 343.87 129.46 344.07 128.78 345.04 127.7 345.27 127.35 345.53 127.04 345.83 127.01 346.11 126.85 346.17 126.7 346.32 126.11 346.83 126.01 347.11 125.91 348.29 125.78 348.86 125.27 349.17 124.84 349.37 124.78 350.07 124.21 350.88 123.91 351.06 120.05 348.08 119.63 347.79 118 346.4 117.35 347.01 116.21 348.08 114.74 349.46 114.53 349.03 113.58 347.03 113.45 346.69 113.19 345.93 112.86 345.62 112.79 345.49 112.43 344.79 112.43 344.57 112.55 344.17 112.54 344 112.43 343.71 112.43 343.53 112.51 343.11 112.53 342.89 112.51 342.74 112.31 342.33 112.33 342.26 112.9 342.24 113.26 342.16 114.08 342.2 114.23 342.27 114.4 342.21 114.55 341.57 114.88 340.41 115.14 339.61 115.47 338.44 114.89 338.27 114.68 338.24 114.05 338.32 113.02 338.25 112.13 338.49 111.98 338.45 112.26 338.25 112.84 337.73 113.06 337.48 113.16 337.34 112.26 336.8 112.12 336.72 111.93 336.85 111.56 336.6 111.05 336.05 111.36 335.72 112.69 334.36 113.09 333.92 113.35 333.9 113.65 333.59 114.21 333.21 114.01 332.93 113.62 332.45 112.94 331.7 112.76 331.52 112.35 331.86 111.45 331.03 110.46 331.92 110.24 332.03 110.23 332.21 109.97 332.36 109.83 332.7 109.7 332.79 109.42 333.2 109.32 333.31 108.94 333.61 108.71 333.75 108.18 334.16 107.82 334.4 107.51 334.58 107.39 334.44 107.24 334.17 107.09 334.21 106.98 334.17 106.9 333.97 106.63 334.15 106.55 334.1 106.34 334.25 105.74 333.71 105.63 333.72 105.26 334.07 105.01 334.64 104.92 334.95 104.89 335.26 104.81 335.37 104.48 335.36 104.48 335.47 103.87 335.48 103.2 335.51 103.04 335.49 102.82 335.41 102.19 335.23 101.8 335.07 101.37 334.84 101.03 334.64 100.5 334.26 100.06 333.9 99.68 333.55 99.17 333.03 99.12 332.48 98.94 331.26 98.69 330.27 98.14 329.26 97.95 328.78 97.05 327.26 96.5 326.81 95.96 326.24 95.27 325.64 94.89 324.8 94.74 324.44 94.94 322.85 94.96 321.73 94.62 320.66 94.25 320.09 93.75 319.48 93.4 318.98 92.46 317.74 92.13 317.2 91.91 317.18 91.86 316.95 91.46 316.81 90.97 316.56 90.67 316.34 90.52 316.16 90.48 316.04 90.53 315.85 90.52 315.71 90.62 315.72 90.9 315.58 90.81 315.46 89.99 314.55 89.19 313.24 89.05 311.9 89.39 310.82 90.12 309.15 90.7 307.79 91.26 306.61 91.72 306.17 92.62 305.07 93.06 304.26 94.14 303.41 95.33 303.1 96 302.64 97.26 302.02 99.07 301.4 100.78 300.98 101.84 300.78 103.26 300.7 103.61 300.63 105.04 300.93 106.67 301.75 107.33 302.04 108.19 302.34 109.52 303.33 110.12 303.84 110.81 304.45 111.63 305.44 111.83 305.57 112.62 306.76 113.04 307.73 113.44 308.35 114.6 309.28 115.35 310.16 116.04 310.73 117.96 311.97 118.45 312.17 118.98 312.53 120.4 313.15 121.58 313.41 122.02 313.53 122.67 313.37 123.37 313.35 124.47 313.49 125.05 313.67 125.85 314.24 127.08 314.98 127.39 315.13 129.74 315.39 130.66 315.45 131.08 315.51 132.81 315.43 134.17 315.09 134.94 315.12 135.85 314.54 136.55 313.88 Z" id="金寧鄉"/>
<path d="M 795.93 9.11 796.07 9.25 796.56 9.25 797.19 9.11 797.98 8.85 798.42 8.9 798.8 9.17 799 9.78 798.85 10.32 798.02 12.14 797.21 13.04 795.68 14.09 795.17 14.1 794.47 13.76 793.57 13.63 791.47 12.98 791.13 12.7 790.76 11.84 790.92 11.24 791.2 10.92 791.53 10.79 792.22 10.06 794 8.86 794.52 8.59 794.91 8.52 795.13 8.37 795.37 8.46 795.69 8.8 795.93 9.11 Z M 786.58 7.04 786.6 8.32 786.26 9.1 785.71 9.55 785.38 9.53 784.87 9.37 784.36 9.14 783.86 8.77 783.08 8.4 782.33 8.17 781.84 8.15 781.21 8.2 780.8 8.26 780.23 8.21 780.01 8.07 779.64 7.67 779.54 7.15 779.45 5.8 779.22 5.26 778.91 4.57 778.27 3.88 777.92 3.38 777.62 2.74 777.57 2.16 777.72 1.53 778.03 1.2 778.52 1 779.1 1.18 780.14 1.88 781.94 2.35 783.31 3.07 784.66 3.57 785.07 3.77 785.69 4.35 786.38 5.32 786.62 6.3 786.58 7.04 Z" id="烏坵鄉"/>
<path d="M 58.01 498.91 58.15 498.97 58.54 498.88 58.75 499.03 58.72 499.26 58.65 499.37 58.67 499.9 58.59 500.22 58.45 500.41 57.96 500.28 57.64 500.35 57.18 500.1 57.25 499.45 57.48 499.31 57.41 498.95 57.45 498.66 57.71 498.58 57.83 498.77 58.01 498.91 Z M 1.17 372.96 1 372.9 1 372.83 1.18 372.59 1.45 372.63 1.56 372.76 1.44 372.88 1.17 372.96 Z M 3.4 370.65 3.64 370.61 3.77 370.7 3.86 370.83 3.74 371.07 3.45 371.12 3.28 371.12 3.12 370.97 3.14 370.54 3.24 370.43 3.38 370.45 3.4 370.65 Z M 5.5 370.3 5.64 370.52 5.59 371.02 5.39 371.1 5.04 371.2 5.06 371.33 5.26 371.74 5.24 372.11 5.05 372.22 4.83 371.92 4.83 371.71 4.88 371.42 4.77 371.15 4.61 371 4.46 370.76 4.38 370.56 4.57 370.41 4.91 370.47 5.18 370.3 5.5 370.3 Z M 14.31 370.52 13.91 370.79 13.09 370.78 12.41 370.87 12.21 371.33 11.34 370.81 11.1 370.66 11.11 370.52 10.89 370.13 10.42 369.79 9.94 369.54 9.69 369.12 9.42 368.74 8.95 368.28 9.11 368.03 9.64 367.73 10.2 367.43 10.72 367.44 11.11 367.7 11.54 367.95 12.41 368.04 13.05 368.36 13.73 368.43 14.53 368.58 14.93 368.69 15.79 368.79 16.03 368.88 15.83 369.18 15.56 369.46 15.18 369.82 14.76 370.23 14.31 370.52 Z M 15.64 360.79 16.02 360.86 16.59 360.59 16.6 361.09 16.25 361.48 16.55 362.14 16.75 362.81 17.07 363.33 17.19 363.65 17.94 363.95 18.48 363.74 19.76 363.64 20.63 363.94 21.17 365.14 21.56 364.77 22.01 365.38 21.7 365.9 21 366.39 20.68 366.66 20.04 366.99 19.44 367.16 18.06 366.28 17.82 365.77 17.52 365.59 16.92 365.47 16.34 365.58 15.66 365.48 15.17 365.3 15.3 365.1 15.27 364.24 15.14 363.72 14.66 362.82 14.18 362.54 13.74 362.25 13.62 361.79 13.69 361.2 13.99 360.77 14.69 360.38 15.27 360.56 15.64 360.79 Z M 34.5 359.45 34.38 359.51 34.21 359.7 34.35 359.76 34.37 359.93 34.46 360.05 34.54 360 34.73 360.01 34.99 360.22 34.86 360.33 34.82 360.5 34.51 360.55 34.18 360.54 34.01 360.28 33.96 360.15 34.04 360.05 33.84 359.94 33.66 359.93 33.29 359.98 33.11 359.95 32.95 359.82 32.82 359.54 32.83 359.33 32.92 359.26 33.28 359.08 33.81 358.91 34.13 358.87 34.48 358.94 34.58 359.18 34.59 359.36 34.5 359.45 Z M 55.69 355.02 56.01 355.01 56.09 355.12 56.11 355.31 56.19 355.32 56.24 355.48 56.49 355.66 56.69 355.75 56.69 355.93 56.53 356.03 56.34 356.02 56.1 355.96 56 356.05 55.58 356.16 55.28 356.12 54.99 355.87 54.84 355.63 54.75 355.42 54.77 355.23 54.92 355.06 55.26 355.12 55.42 354.97 55.69 355.02 Z M 37.12 336.07 36.93 336.11 36.96 335.91 36.69 335.77 36.65 335.67 36.96 335.52 37.14 335.39 37.43 335.44 37.67 335.6 37.52 335.89 37.34 336.02 37.12 336.07 Z M 45.56 326.86 45.28 327.05 45.12 327.11 44.8 327.2 44.67 327.11 44.43 327.03 44.75 326.9 45.06 326.88 45.46 326.81 45.56 326.86 Z M 44.03 325.88 44.16 326.06 44.13 326.17 43.88 326.21 43.69 326.21 43.66 326.31 43.51 326.44 43.21 326.37 43.21 326.26 43.37 326.1 43.17 325.9 43.44 325.83 43.4 325.68 43.66 325.46 43.82 325.37 44.1 325.41 44.18 325.56 44.16 325.67 44.05 325.77 44.03 325.88 Z M 53.99 324.77 53.82 324.75 53.38 324.65 53.31 324.58 53.56 324.43 53.8 324.42 54.23 324.49 54.33 324.62 54.24 324.74 53.99 324.77 Z M 66.96 324.23 67.71 324.58 68.78 324.67 69.44 324.69 70.78 324.93 72.43 325.61 73.04 325.97 73.61 326.38 73.97 326.98 74.49 327.8 74.88 328.29 75.78 329.08 76.53 329.52 77.03 329.93 77.64 330.11 78.59 330.24 79.04 330.4 79.07 331.29 78.99 331.64 78.64 332.35 78.79 333.03 78.63 333.47 78.46 334.15 78.94 334.63 79.44 335.01 79.33 335.38 79.05 335.62 78.44 336.07 77.88 336.52 77.38 337.13 77.92 337.59 77.7 338.06 77.64 338.78 77.18 339.32 77.05 339.83 76.99 340.33 77.34 341.03 76.89 341.91 76.55 342.28 76.61 342.67 76.13 343.01 75.42 343.19 75.43 343.32 75.3 343.42 75.38 343.51 75.32 343.77 75.24 343.88 75.34 343.96 75.36 344.19 75.32 344.31 75.2 344.46 75.04 344.47 74.93 344.53 74.77 344.53 74.37 344.34 73.96 344.31 73.77 344.28 73.17 344.6 73.09 344.5 73.9 344.02 73.74 343.87 73.82 343.75 73.73 343.64 73.63 343.33 73.43 343.2 73.35 343.21 72.79 343.07 72.73 343.09 72.58 343.79 72.97 344.03 72.92 344.1 72.49 343.82 72.64 343.04 72.65 342.89 72.5 342.8 71.96 342.68 71.81 342.68 71.53 342.72 71.25 342.69 71.12 342.85 70.93 342.77 70.4 342.96 69.55 343.39 68.88 343.78 68.13 344.33 67.59 344.92 67.18 345.67 66.87 346.21 67.43 346.54 67.66 346.9 66.84 347.91 66.14 348.28 66.01 348.56 66.03 348.64 65.6 349.11 65.41 349.26 65.27 349.25 65.02 349.36 64.98 349.48 64.88 349.56 64.54 349.6 64.23 349.79 64.12 349.78 63.85 349.82 63.77 350.02 63.52 350.15 63.56 350.24 63.32 350.44 63.23 350.48 63.06 350.69 62.95 350.87 62.74 351.02 62.57 351.06 62.43 350.96 62.43 350.84 62.29 350.63 62.39 350.33 62.49 350.16 62.35 350.07 62.39 349.83 62.48 349.68 62.6 349.59 62.78 349.55 62.66 349.34 62.35 349.15 62.01 349.04 61.31 348.9 60.86 348.89 60.35 348.92 59.62 349.06 58.97 349.25 58.85 349.42 58.68 349.39 58.43 349.51 57.95 349.81 57.77 349.86 57.63 349.84 57.1 350.18 56.77 350.63 56.19 351.53 55.76 352.25 55.3 352.84 54.26 353.1 54.08 353.39 53.89 353.78 53.82 353.82 53.58 354.26 53.56 354.43 53.47 354.52 53.46 354.63 53.34 354.76 53.11 354.74 53.04 354.65 52.7 354.69 52.58 354.56 52.25 354.25 51.97 353.95 51.9 353.75 51.83 353.28 51.88 353.12 51.66 352.97 51.6 352.84 51.03 352.53 50.42 352.33 50.02 352.23 49.14 352.07 48.49 351.99 48.01 351.97 47.76 351.98 47.33 352.06 47.02 352.21 46.93 352.05 46.67 352.08 46.54 351.98 46.34 351.98 46.18 352.05 46.17 351.93 45.93 351.95 45.89 351.76 45.77 351.76 45.79 351.6 45.68 351.52 45.64 351.28 45.53 351.2 45.32 351.14 45.2 351.21 45.18 351 45.12 350.86 45.01 350.8 44.91 350.61 44.8 350.59 44.78 350.29 44.96 350.16 45.08 350.15 45.19 350.22 45.49 350.29 45.5 350.51 45.76 350.61 45.82 350.67 45.96 350.66 46.06 350.72 46.55 350.64 46.88 350.52 47.22 350.35 47.51 350.12 47.58 350 46.6 349.68 46.55 348.93 46.91 348.36 47.12 348.22 47.63 346.92 47.69 346.22 48.22 345.41 48.24 344.6 48.2 343.21 47.83 342.59 47.74 342.15 47.87 341.28 47.89 341.06 48.42 340.35 48.79 339.81 49.47 339.09 50.41 338.44 51.1 337.52 51.46 337 51.91 336.19 52.08 335.98 52.22 334.8 52.3 334.13 52.79 333.13 53.1 332.43 53.32 331.6 53.64 331.11 53.67 330.21 54.13 329.28 54.63 328.64 55.24 327.89 56.05 326.79 56.93 326.24 57.74 325.82 58.47 325.69 58.97 325.77 59.88 325.25 60.69 324.89 61.8 324.63 62.5 324.41 63.19 324.89 63.72 325.03 64.31 324.59 65.22 324.33 66.1 324.33 66.96 324.23 Z M 57.02 323.51 56.83 323.45 56.97 323.36 57.02 323.51 Z M 84.11 325.75 84.1 326.02 83.56 326.56 83.32 326.65 83.08 326.49 82.77 326.46 82.31 326.51 81.7 326.34 81.57 326.33 81.29 326.05 80.96 326.02 80.57 326.03 80.09 326.19 79.8 326.32 79.39 326.47 78.84 326.53 78.89 326.33 79.01 325.6 79.06 325.49 79.4 325.03 79.58 324.66 79.9 324.39 80.28 323.64 80.76 323.23 81.15 323.23 81.68 323.53 82.06 323.86 82.38 324.01 82.58 324.35 83.15 324.8 83.39 325.05 83.83 325.4 84.11 325.75 Z M 62.9 322.05 62.85 321.93 62.91 321.87 63.06 321.87 63.12 321.95 62.9 322.05 Z" id="烈嶼鄉"/>
<path d="M 120.82 363.4 120.93 363.44 121.04 363.68 120.9 363.82 120.94 363.93 120.71 364.02 120.71 364.15 120.52 364.09 120.56 363.95 120.56 363.76 120.67 363.69 120.65 363.61 120.72 363.45 120.82 363.4 Z M 124.77 352.97 124.45 352.86 124.39 352.78 124.55 352.43 124.69 352.45 124.97 352.57 124.95 352.72 124.86 352.93 124.77 352.97 Z M 125.08 352.51 124.95 352.39 125.11 352.33 125.15 352.42 125.08 352.51 Z M 99.17 333.03 99.68 333.55 100.06 333.9 100.5 334.26 101.03 334.64 101.37 334.84 101.8 335.07 102.19 335.23 102.82 335.41 103.04 335.49 103.2 335.51 103.87 335.48 104.48 335.47 104.48 335.36 104.81 335.37 104.89 335.26 104.92 334.95 105.01 334.64 105.26 334.07 105.63 333.72 105.74 333.71 106.34 334.25 106.55 334.1 106.63 334.15 106.9 333.97 106.98 334.17 107.09 334.21 107.24 334.17 107.39 334.44 107.51 334.58 107.82 334.4 108.18 334.16 108.71 333.75 108.94 333.61 109.32 333.31 109.42 333.2 109.7 332.79 109.83 332.7 109.97 332.36 110.23 332.21 110.24 332.03 110.46 331.92 111.45 331.03 112.35 331.86 112.76 331.52 112.94 331.7 113.62 332.45 114.01 332.93 114.21 333.21 113.65 333.59 113.35 333.9 113.09 333.92 112.69 334.36 111.36 335.72 111.05 336.05 111.56 336.6 111.93 336.85 112.12 336.72 112.26 336.8 113.16 337.34 113.06 337.48 112.84 337.73 112.26 338.25 111.98 338.45 112.13 338.49 113.02 338.25 114.05 338.32 114.68 338.24 114.89 338.27 115.47 338.44 115.14 339.61 114.88 340.41 114.55 341.57 114.4 342.21 114.23 342.27 114.08 342.2 113.26 342.16 112.9 342.24 112.33 342.26 112.31 342.33 112.51 342.74 112.53 342.89 112.51 343.11 112.43 343.53 112.43 343.71 112.54 344 112.55 344.17 112.43 344.57 112.43 344.79 112.79 345.49 112.86 345.62 113.19 345.93 113.45 346.69 113.58 347.03 114.53 349.03 114.74 349.46 116.21 348.08 117.35 347.01 118 346.4 119.63 347.79 120.05 348.08 123.91 351.06 123.25 351.46 122.76 351.77 122.5 351.97 122.47 352.1 122.37 352.11 122.28 352.25 121.92 352.55 121.5 353.33 120.42 355.07 119.99 355.95 119.69 356.68 119.33 358.57 119.08 359.42 118.67 360.46 118.29 361.3 117.76 363.07 116.72 363.53 115.98 363.9 115.72 364.16 115.74 364.33 115.68 364.64 115.59 364.72 115.34 364.67 115.17 364.83 114.88 365 114.75 364.96 114.82 364.77 114.63 364.68 114.5 364.66 114.11 365.08 113.95 365.12 114 365.31 113.79 365.52 113.65 365.5 113.54 365.37 113.38 365.4 113.43 365.27 113.37 365.11 113.24 365.2 113.07 365.19 112.99 365.33 112.86 365.26 112.82 364.94 112.26 364.96 111.94 365.22 111.87 365.31 111.63 365.49 111.51 365.67 111.53 365.82 111.48 365.91 111.45 366.12 111.25 366.27 111.11 366.27 111.07 366.06 111.15 365.97 110.97 365.85 110.84 365.97 110.81 366.13 110.66 366.22 110.64 366.33 110.47 366.36 110.32 366.28 110.27 366.16 110.12 366.28 109.89 366.31 109.81 366.13 109.52 366.17 109.38 366.23 109.25 366.21 109.21 365.98 109.14 365.89 109.1 365.66 109.17 365.55 109.04 365.36 108.79 365.12 108.35 364.81 108.23 364.65 107.93 364.69 107.52 364.66 107.37 364.81 107.23 364.82 107.14 364.73 107.04 364.56 107.02 364.24 106.89 364.04 106.58 363.94 106.5 363.85 106.33 363.85 106.16 363.96 106 363.96 105.94 363.83 105.85 363.85 105.52 363.8 105.45 363.72 105.47 363.6 105.26 363.5 105.17 363.67 104.97 363.45 104.6 363.48 104.37 363.65 104.21 363.66 103.98 363.82 103.7 363.8 103.56 363.83 103.44 363.66 103.25 363.62 103.04 363.63 102.87 363.58 102.78 363.47 102.8 363.22 102.6 363.1 102.68 362.81 102.64 362.67 102.37 362.45 102.18 362.39 101.91 362.43 101.94 362.28 101.84 362 101.58 361.82 101.19 361.8 101.14 361.63 101.04 361.61 101.06 361.45 101.01 361.38 101.13 361.07 100.86 360.91 100.71 361.03 100.45 360.87 100.46 360.75 100.67 360.57 100.66 360.49 100.28 360.26 99.67 360.09 99.4 360.08 98.83 359.99 98.25 359.98 98.07 360 97.39 360 97.23 360.04 96.75 360.12 96.63 360.25 96.5 360.24 96.4 360.17 95.95 360.24 95.86 360.38 95.72 360.41 95.43 360.22 95.29 360.2 95.05 360.32 94.95 360.23 95.1 360.06 95.05 359.94 94.92 360.06 94.84 359.99 94.94 359.84 94.94 359.7 94.99 359.58 95.11 359.49 95.26 359.46 95.29 359.34 95.18 359.04 95 358.85 94.75 358.82 94.61 358.56 94.61 358.46 94.78 358.35 94.77 358.26 94.65 358.15 94.39 357.95 94.06 357.76 93.87 357.76 93.52 357.44 93.29 357.41 93.25 357.27 93.14 357.17 93.14 357.08 92.99 357.04 92.67 356.87 92.34 356.77 92.13 356.64 92.02 356.66 91.82 356.58 91.85 356.47 92 356.32 91.97 356.16 92.09 356.08 92.19 355.79 92.08 355.64 91.94 355.3 91.64 355.07 91.42 354.84 91.11 354.63 90.83 354.54 90.57 354.41 90.31 354.26 89.73 353.97 89.47 353.93 89.44 353.71 89.18 353.5 89.08 353.49 88.86 353.36 88.79 353.28 88.55 353.23 88.27 353.05 88.36 352.92 88.32 352.82 88.09 352.62 87.74 352.44 87.46 352.25 87.31 352.2 87.06 352.04 86.73 351.85 86.16 351.52 86.01 351.56 85.83 351.49 85.85 351.38 85.64 351.27 85.68 351.11 85.77 351.11 85.79 350.87 85.66 350.93 84.99 350.39 84.79 350.28 84.61 350.14 84.39 350.01 84.29 350.08 84.31 349.65 84.49 349.55 84.51 349.25 84.42 349.14 84.61 348.99 84.67 348.87 84.88 348.77 84.96 348.95 85.15 348.97 85.25 348.88 85.52 348.8 85.69 348.82 86 348.72 85.99 348.28 85.72 348.04 86.06 347.63 86.39 347.49 87.37 347.3 87.72 347.27 88.78 347.22 89.53 347.08 89.87 347.09 90.35 347.02 91.95 346.55 91.98 346.55 92.67 345.01 93.59 343.96 93.76 343.81 94.48 342.67 94.9 342.02 95.46 341.45 96.46 340.16 96.96 339.02 97.66 337.88 98.26 336.78 98.7 336.2 99.15 334.87 99.1 334.66 99.19 333.24 99.17 333.03 Z" id="金城鎮"/>
<path d="M 155.32 284.74 155.16 284.98 154.9 284.95 154.66 284.74 154.62 284.63 154.76 284.41 154.9 284.36 155.05 284.48 155.29 284.57 155.32 284.74 Z M 154.9 283.91 154.72 283.8 154.67 283.62 154.98 283.44 155.09 283.56 155.1 283.7 154.9 283.91 Z M 180.13 283.54 180.08 283.79 180.13 283.92 180.11 284.06 180.21 284.09 180.07 284.32 179.68 284.35 179.3 284.53 179.14 284.7 178.62 284.85 178.34 285.1 178.14 285.19 177.97 285.08 177.68 285.05 177.54 284.92 177.71 284.6 177.83 284.56 177.95 284.41 178.2 284.25 178.48 284.17 178.57 284.09 178.65 283.95 178.91 283.82 179.09 283.8 179.3 283.72 179.44 283.59 179.73 283.54 179.9 283.44 180.02 283.25 180.14 283.34 180.13 283.54 Z M 197.88 323.43 197.42 324.09 197.11 324.52 196.69 325.06 196.38 325.45 195.96 325.94 195.49 326.1 195.28 326.12 195.08 326.3 194.9 326.3 194.81 326.36 194.58 326.84 194.08 327.7 193.93 327.86 193.71 328.01 192.84 328.67 192.41 328.93 192.19 329.01 191.81 329.11 190.83 329.39 190.44 329.56 189.71 330.02 188.5 328.99 187.36 328.01 186.64 327.41 185.99 326.89 185.09 326.11 184.4 325.54 184.27 325.4 182.64 323.58 181.95 322.83 180.23 320.88 179.92 320.52 177.98 318.37 177.79 318.11 177.3 317.1 176.53 315.57 175.41 315.65 174.95 315.69 174.28 315.8 173.97 315.89 173.69 315.89 173.48 315.81 173.22 315.81 172.74 315.91 172.55 316 172.22 316.34 172.14 316.52 171.83 316.73 171.9 316.92 171.83 317.21 171.72 317.37 171.63 317.38 171.47 317.11 171.38 317.14 171.29 317.31 171.16 317.35 170.98 317.65 170.89 317.72 170.23 317.93 170.16 317.98 169.94 318.35 169.9 318.61 169.58 318.88 169.23 319.06 168.96 319.11 168.53 319.39 168.14 319.51 168.04 319.58 167.98 319.72 167.74 320.02 167.35 320.22 167.29 320.21 167.13 319.97 166.74 320.02 166.56 320.01 166.35 320.05 166.02 320.32 165.77 320.33 165.38 320.59 165.18 320.65 165.08 320.77 164.81 321.01 164.47 321.13 164.05 321.34 163.73 321.52 163.44 321.78 163.26 321.9 163.13 322.05 162.92 322.18 162.71 322.37 162.6 322.71 162.45 322.79 162.33 322.72 162.22 322.53 162.09 322.46 161.67 322.48 161.21 322.47 160.93 322.55 160.8 322.42 160.48 322.41 160.27 322.44 160.19 322.54 159.94 323.03 159.99 323.34 158.68 323.86 158.79 324.11 157.19 324.77 155.79 325.33 155.42 325.47 154.56 325.83 154.38 325.8 153.67 325.31 153.59 325.22 153.21 324.48 152.52 322.94 152.36 322.7 151.3 322.09 150.72 321.83 150.47 321.85 149.58 322.14 149.05 322.43 148.9 322.44 147.62 321.63 147.13 321.29 146.93 321.25 146.73 321.26 146.51 321.19 146.34 320.96 146.2 320.66 145.87 320.34 145.74 320.18 145.39 319.66 144.69 318.81 144.23 318.43 143.83 317.84 143.49 317.32 143.16 316.78 142.69 315.96 142.42 315.47 141.95 314.56 141.61 313.88 141.21 313.02 140.87 312.28 140.53 311.5 140.2 310.72 141.57 309.52 142.15 309 143.54 307.88 144.42 307.16 144.43 307.02 145.08 305.61 145.13 305.33 145.42 303.47 146.58 303.11 147.84 302.89 148.38 302.08 148.27 301.2 148.07 300.91 147.79 298.71 147.69 298.29 147.61 298.26 147.21 296.66 147.27 295.58 147.39 293.45 147.63 293.05 148.43 292.61 149.08 292.41 150.11 292.38 150.82 292.09 152.15 291.36 152.9 290.38 153.26 289.82 153.5 288.61 153.65 288.43 155.01 286.63 155.45 286.28 156.57 285.79 157.34 285.04 157.05 283.56 156.68 283.12 155.86 282.91 154.82 282.95 154.86 282.51 155.31 281.93 155.52 281.54 156.5 281.22 156.91 281.24 158.16 281.56 158.45 281.87 159.13 282.06 159.79 282.07 160.22 281.92 160.86 281.4 161.44 280.37 161.41 279.87 161.27 279.55 160.59 279.61 160.28 279.36 160.41 278.86 160.85 278.21 161.23 277.9 162.4 278.04 163.05 278.7 163.61 279.14 163.34 280.08 164.22 280.55 164.26 280.46 164.38 280.46 164.57 280.58 164.69 280.61 164.77 280.73 164.72 280.83 165.48 281.42 166.74 280.78 166.74 280.76 168.3 280.15 169.26 280.42 169.82 280.63 170.43 281.12 171.24 281.8 172.24 281.4 173.45 281.69 173.7 281.82 174.33 281.97 174.13 282.8 174.45 283.22 175.73 283.5 176.86 283.39 176.76 284.75 175.65 285.21 176.16 286.59 176.34 287.28 177.23 288.88 178.1 289.65 178.84 289.89 180 290.19 180.49 290.2 182.14 290.79 183.16 291.14 184.18 291.41 184.84 291.45 185.81 291.43 186.7 291.72 187.01 292.37 186.6 293.66 186.37 295.49 186.72 296.16 187.05 297.21 187.07 297.66 187.66 298.63 188.19 298.76 188.68 298.96 189.3 299.35 189.58 299.71 189.96 300.41 190.08 300.73 189.85 301.33 189.71 301.63 189.63 302.14 189.67 302.55 190.01 303.43 190.43 303.78 190.84 304.4 191.23 304.94 191.76 305.99 192.35 306.66 193.74 307.63 194.26 307.79 195.33 307.92 196.04 307.79 196.99 307.92 197.9 307.97 198.01 308.41 197.65 308.85 197.93 309.9 197.15 310.43 196.48 310.49 196.27 310.63 196.07 310.9 195.89 310.99 195.73 311.19 195.66 311.35 195.69 311.5 195.54 311.72 195.63 311.83 195.62 311.92 195.34 311.98 195.3 312.13 195.16 312.27 194.75 312.3 194.63 312.19 194.54 312.56 194.5 313.14 194.6 313.99 194.81 314.39 194.94 314.88 195.03 315.46 194.93 316.9 194.98 317.48 195.19 318.08 195.27 318.21 195.54 318.86 195.85 319.82 195.81 320.44 196.25 321.38 196.8 322.06 197.33 322.93 197.88 323.43 Z" id="金沙鎮"/>
<path d="M 179.82 353.31 179.66 353.36 179.63 353.13 179.75 353.18 179.82 353.31 Z M 180.27 352.78 180.26 352.95 180.12 352.95 180.12 352.81 180.27 352.78 Z M 179.98 352.75 179.86 352.81 179.8 352.73 179.89 352.65 179.98 352.75 Z M 180.7 352.07 180.74 352.19 180.58 352.34 180.32 352.18 180.27 352.04 180.38 351.98 180.45 352.11 180.62 352.06 180.69 351.92 180.78 351.99 180.7 352.07 Z M 184.89 350.51 184.79 350.45 184.85 350.33 184.95 350.35 184.89 350.51 Z M 185.43 349.74 185.27 349.73 185.26 349.61 185.38 349.59 185.49 349.65 185.43 349.74 Z M 191.15 349.23 191.25 349.32 191.42 349.23 191.71 349.24 191.87 349.38 192.02 349.59 192.13 349.63 192.19 349.79 192.17 350.15 192.13 350.21 191.95 350.24 191.49 350.18 191.43 350.24 191.2 350.33 191.03 350.32 191.06 350.2 191.01 349.85 190.92 349.83 190.8 350.12 190.63 350.17 190.32 350.16 190.26 349.94 190.3 349.86 190.25 349.66 190.36 349.53 190.27 349.34 190.3 349.27 190.53 349.25 190.65 349.08 190.85 349.06 191.02 349.11 191.15 349.23 Z M 191.3 348.62 191.07 348.57 191.04 348.41 191.15 348.31 191.32 348.26 191.46 348.09 191.67 348.12 191.67 348.27 191.49 348.52 191.3 348.62 Z M 192.66 348.37 192.23 348.45 192.15 348.52 191.99 348.53 191.92 348.48 191.99 348.32 192.21 347.69 192.49 347.6 192.68 347.65 192.93 347.79 192.78 348.25 192.66 348.37 Z M 219.69 341 219.78 341.26 219.94 341.51 219.84 341.76 219.75 341.89 219.56 342.01 219.27 342.01 218.96 342.03 218.69 342.12 218.58 341.66 218.56 341.39 218.63 341.27 218.61 340.96 218.93 341.06 219.32 340.94 219.69 341 Z M 133.42 341.99 132.39 339.75 132.48 339.61 132.63 339.22 132.79 339.05 133.13 338.83 133.4 338.61 133.38 338.08 133.47 337.77 133.7 337.11 133.74 336.47 133.88 335.8 133.9 335.78 135.36 335.2 135.08 334.5 134.84 334.21 134.72 334.13 134.53 333.62 134.33 333.38 134.02 333.06 133.88 332.78 133.61 331.61 133.44 331.08 133.29 330.5 133.32 330.12 133.33 329.56 133.38 329.21 133.44 328.98 133.91 328.56 134.41 328.01 134.61 327.71 134.81 327.22 135.06 326.89 135.34 326.57 135.58 326.36 135.75 326.29 136.18 325.83 136.34 325.55 136.55 325.25 136.85 324.71 137.32 323.97 137.45 323.69 137.35 323.48 137.46 323.35 137.74 323.3 137.74 323.12 137.55 322.68 137.55 322.37 137.64 322.18 137.87 321.92 137.83 321.73 137.42 321.65 137.18 321.53 137.01 321.23 136.9 321.09 136.85 320.35 136.76 318.61 136.63 315.98 136.55 313.88 137.79 312.79 138.85 311.75 139.67 311.12 140.2 310.72 140.53 311.5 140.87 312.28 141.21 313.02 141.61 313.88 141.95 314.56 142.42 315.47 142.69 315.96 143.16 316.78 143.49 317.32 143.83 317.84 144.23 318.43 144.69 318.81 145.39 319.66 145.74 320.18 145.87 320.34 146.2 320.66 146.34 320.96 146.51 321.19 146.73 321.26 146.93 321.25 147.13 321.29 147.62 321.63 148.9 322.44 149.05 322.43 149.58 322.14 150.47 321.85 150.72 321.83 151.3 322.09 152.36 322.7 152.52 322.94 153.21 324.48 153.59 325.22 153.67 325.31 154.38 325.8 154.56 325.83 155.42 325.47 155.79 325.33 157.19 324.77 158.79 324.11 158.68 323.86 159.99 323.34 159.94 323.03 160.19 322.54 160.27 322.44 160.48 322.41 160.8 322.42 160.93 322.55 161.21 322.47 161.67 322.48 162.09 322.46 162.22 322.53 162.33 322.72 162.45 322.79 162.6 322.71 162.71 322.37 162.92 322.18 163.13 322.05 163.26 321.9 163.44 321.78 163.73 321.52 164.05 321.34 164.47 321.13 164.81 321.01 165.08 320.77 165.18 320.65 165.38 320.59 165.77 320.33 166.02 320.32 166.35 320.05 166.56 320.01 166.74 320.02 167.13 319.97 167.29 320.21 167.35 320.22 167.74 320.02 167.98 319.72 168.04 319.58 168.14 319.51 168.53 319.39 168.96 319.11 169.23 319.06 169.58 318.88 169.9 318.61 169.94 318.35 170.16 317.98 170.23 317.93 170.89 317.72 170.98 317.65 171.16 317.35 171.29 317.31 171.38 317.14 171.47 317.11 171.63 317.38 171.72 317.37 171.83 317.21 171.9 316.92 171.83 316.73 172.14 316.52 172.22 316.34 172.55 316 172.74 315.91 173.22 315.81 173.48 315.81 173.69 315.89 173.97 315.89 174.28 315.8 174.95 315.69 175.41 315.65 176.53 315.57 177.3 317.1 177.79 318.11 177.98 318.37 179.92 320.52 180.23 320.88 181.95 322.83 182.64 323.58 184.27 325.4 184.4 325.54 185.09 326.11 185.99 326.89 186.64 327.41 187.36 328.01 188.5 328.99 189.71 330.02 190.44 329.56 190.83 329.39 191.81 329.11 192.19 329.01 192.41 328.93 192.84 328.67 193.71 328.01 193.93 327.86 194.08 327.7 194.58 326.84 194.81 326.36 194.9 326.3 195.08 326.3 195.28 326.12 195.49 326.1 195.96 325.94 196.38 325.45 196.69 325.06 197.11 324.52 197.42 324.09 197.88 323.43 197.92 323.47 198.41 324.5 198.74 324.91 199.76 325.17 200.41 325.89 200.77 325.87 202.22 326.06 202.23 326.29 202.54 327.01 202.9 327.18 203.39 327.86 202.97 328.3 201.73 327.99 201.29 328.15 201.03 328.27 201 328.56 200.93 329.39 200.99 329.67 200.92 329.85 201 330.18 200.78 331.03 200.66 331.33 199.99 332.05 200.13 332.12 200.2 332.28 199.96 332.43 199.98 332.54 199.85 332.58 200 332.78 200 332.89 200.11 333.09 199.9 333.23 199.69 333.13 199.49 333.14 199.4 333.08 199.39 332.89 199.18 333.02 199.13 333.19 199.26 333.2 199.3 333.44 199.21 333.5 199.13 333.69 198.89 333.78 198.41 333.89 198.5 333.94 198.68 333.85 198.93 333.84 198.97 334.05 198.9 334.11 198.73 333.97 198.52 334.03 198.33 334.02 198.31 334.13 198.12 334.06 198.15 333.89 197.93 333.77 197.57 333.84 197.57 333.7 197.4 333.66 197.4 333.44 197.5 333.26 197.59 333.19 197.55 333.06 197.38 332.93 197.06 332.81 196.61 332.77 196.27 332.78 195.82 332.87 195.38 333 194.92 333.2 194.73 333.33 194.46 333.55 194.16 333.86 194.03 334.15 194.05 334.24 194.23 334.34 194.25 334.46 194.21 334.64 194.43 334.69 194.48 334.77 194.37 334.92 194.39 335.03 194.28 335.13 193.9 335.11 193.89 334.98 193.66 334.91 193.46 334.87 193.2 335.07 192.96 335.44 192.92 335.9 192.83 336.06 192.88 336.18 193.39 336.47 193.85 336.69 194.1 336.64 194.64 336.43 194.77 336.55 194.63 337.05 194.63 337.32 194.85 337.86 195.62 338.58 196.46 338.97 196.46 339.37 196.2 339.69 195.67 339.86 194.98 340.04 195.06 340.12 195.01 340.31 195.29 340.05 195.45 340.11 195.47 340.22 195.61 340.21 195.75 340.39 195.67 340.49 195.73 340.68 195.52 340.82 195.31 341.21 195.03 341.3 194.97 341.39 195 341.52 194.76 341.49 194.66 341.54 194.54 341.71 194.4 341.81 194.28 341.75 194.08 341.54 193.98 341.63 194.01 341.74 193.95 341.98 193.96 342.21 193.78 342.26 193.93 342.4 193.77 342.53 193.71 342.78 193.39 342.86 193.42 342.95 193.34 343.06 193.17 343.13 192.97 343.15 192.97 343.31 192.86 343.4 192.93 343.59 192.82 343.67 192.51 343.43 192.45 343.27 192.54 343.14 192.42 342.99 192.12 342.78 192.03 342.63 191.76 342.44 191.51 342.38 191.46 342.3 191.31 342.23 190.99 342.28 190.91 342.71 190.81 342.76 191.24 343.45 190.83 344.45 190.65 345.63 189.93 346 189.83 346.22 189.8 346.45 189.96 346.43 190.08 346.49 190.1 346.8 190.23 347.18 190.19 347.26 189.95 347.25 189.8 347.47 189.75 347.81 189.58 348.08 189.47 347.95 189.46 347.6 189.37 347.53 189.23 347.53 189.06 347.69 188.92 347.72 188.67 347.73 188.42 347.89 188.31 347.91 188.22 348.15 188.24 348.22 188.49 348.37 188.52 348.43 188.43 348.61 188.25 348.62 188.06 348.56 187.9 348.61 187.66 348.63 186.85 348.63 186.61 348.57 186.45 348.27 186.28 348.36 186.1 348.37 185.81 348.53 185.66 348.54 185.2 348.87 185.05 349.09 185.21 349.17 185.26 349.33 185.14 349.47 184.91 349.46 184.89 349.21 184.73 349.19 184.5 349.19 184.23 349.42 184.12 349.68 184.14 349.87 184.38 349.95 184.43 350.09 184.75 350.25 184.72 350.39 184.52 350.26 184.44 350.31 184.3 350.26 184.19 350.36 184.24 350.45 184.12 350.55 183.99 350.47 183.83 350.45 183.82 350.3 183.72 350.26 183.59 350.33 183.59 350.47 183.5 350.51 183.59 350.7 183.49 350.85 183.35 350.95 183.16 350.97 183.05 350.93 182.99 351.07 182.68 351.16 182.5 351.37 182.41 351.29 182.33 351.08 181.87 351.18 181.71 351.17 181.52 351.08 181.39 351.13 181.29 351.08 181.19 351.16 181.04 351.17 180.81 351.28 180.59 351.26 180.43 351.39 179.62 351.65 179.34 351.69 179.15 351.77 178.92 351.97 178.91 352.14 178.82 352.3 178.47 352.5 178.36 352.52 178.26 352.39 178.13 352.57 178.22 352.79 178.2 352.95 178.09 353.03 177.97 353.01 177.73 353.1 177.66 353.18 177.54 353.08 177.47 353.24 177.36 353.28 176.87 353.24 176.73 353.33 176.35 353.28 176.21 353.31 176.08 353.26 176.07 353.16 175.91 353.19 175.81 353.01 175.72 352.98 175.24 353.17 175.45 353.31 175.52 353.26 175.64 353.31 175.54 353.47 175.4 353.55 175.3 353.54 175.22 353.64 175.05 353.71 174.98 353.53 174.88 353.52 174.77 353.6 174.66 353.59 174.6 353.49 174.34 353.43 174.13 353.6 173.94 353.52 173.82 353.59 173.69 353.54 173.44 353.64 173.34 353.74 173.07 353.64 172.9 353.68 172.47 353.73 172.43 353.57 172.82 353.51 172.83 353.28 172.94 353.23 173.07 352.89 172.67 352.55 172.47 352.34 172.46 352.24 172.57 352.2 172.7 352.28 173.19 352.7 173.25 352.79 173.41 352.65 174.75 352.66 174.76 352.58 176.1 351.94 175.32 352.1 174.19 351.59 174.34 351.38 174.64 351 174.81 350.51 174.86 350.48 173.51 350.63 173.23 350.75 172.41 351.2 172.26 351.37 172.11 351.36 172.12 351.23 172.33 351.13 173.31 350.6 173.37 350.52 173.52 350.54 174.92 350.4 175.23 350.23 175.72 348.77 176.53 347.96 176.46 347.51 176.38 347.35 176.25 346.98 176.06 346.63 175.52 345.8 175.06 345.28 174.44 344.66 174.02 344.27 173.4 343.75 173.22 343.55 172.96 343.43 172.75 343.29 172.56 343.22 172.45 343.31 172.1 343.04 171.93 342.96 171.76 342.94 170.95 342.63 169.9 342.29 168.35 341.85 167.7 341.68 166.75 341.51 166.51 341.5 165.87 341.4 165.57 341.41 165.35 341.53 165.03 341.61 164.99 341.47 164.88 341.32 164.57 341.08 164.47 340.82 164.4 340.79 164.02 340.79 163.79 340.81 163.33 340.76 163.14 340.77 162.92 340.91 162.46 341.33 162.37 341.36 162.27 341.24 162.32 341.14 162.58 341.01 163.14 340.42 163.07 340.3 163.26 340.03 163.15 339.79 162.96 339.85 162.91 339.62 163.22 339.56 163.42 339.07 162.75 338.84 162.45 339.57 162.66 339.63 162.61 339.82 162.45 339.78 162.38 340.7 162.24 340.67 162.27 339.95 162.24 339.69 161.99 339.14 161.91 338.85 161.65 338.74 161.48 338.54 161.31 338.5 161.28 338.59 161.14 338.56 161.09 338.45 160.94 338.49 160.61 338.4 160.47 338.21 160.32 338.16 160.06 337.98 159.43 337.7 159.26 337.8 158.87 337.8 158.79 337.76 158.8 337.55 158.69 337.31 158.79 337.23 158.71 337.12 158.44 336.95 158.16 336.88 157.91 336.85 157.66 336.85 157.42 336.81 157.03 336.86 156.96 336.68 156.8 336.63 156.47 336.64 156.03 336.67 155.53 336.77 155.36 336.85 155.32 336.97 155.16 337.02 155.14 336.93 154.86 336.94 154.76 336.87 154.51 336.87 154.27 336.67 154.12 336.44 153.93 336.42 153.47 336.51 153.37 336.57 153.08 336.57 152.64 336.68 152.39 336.79 152.07 336.75 151.52 336.88 151.34 336.78 151.28 336.7 151.11 336.77 150.5 336.9 149.98 337.05 149.8 337.23 149.44 337.12 149.33 336.97 149.19 336.9 149.15 336.77 148.96 336.78 148.67 336.85 148.44 336.86 148.12 336.93 148.09 336.97 147.8 337.02 147.65 337.09 146.94 337.23 146.9 337.26 146.15 337.46 145.65 337.52 145.19 337.73 144.95 337.73 144.72 337.76 144.62 337.83 144.2 337.9 143.79 338.02 143.65 338.02 142.88 338.23 142.36 338.41 142.12 338.44 142 338.49 141.88 338.43 141.65 338.48 140.72 338.77 140.22 338.95 139.23 339.34 138.11 339.83 137.65 340.01 137.26 340.19 136.89 340.34 136.5 340.54 135.93 340.77 135.63 340.97 135.23 341.08 135.04 341.2 134.49 341.4 134.13 341.68 133.71 341.82 133.59 341.92 133.42 341.99 Z" id="金湖鎮"/>
</g>
</svg>
