<?xml version="1.0"?>
<svg xmlns="http://www.w3.org/2000/svg" version="1.2" baseProfile="tiny" width="100%" height="100%" stroke-linecap="round" stroke-linejoin="round">
<g id="TOWN_MOI_1091016">
<path d="M 73.81 397.28 74.12 397.35 74.19 397.55 73.87 397.83 73.29 397.89 73.45 397.53 73.81 397.28 Z M 72.28 396.66 72.53 397.07 72.58 397.41 72.35 397.72 72.34 398.05 71.87 398.15 71.63 398.46 71.37 398.42 71.13 398.58 70.62 398.27 70.94 397.97 70.68 397.42 70.65 397.12 70.93 396.97 71.61 396.78 72.28 396.66 Z M 70.6 395.44 70.33 395.64 70.12 395.46 70.43 395.28 70.6 395.44 Z M 70.73 395.09 70.92 395.1 70.94 395.43 70.53 395.25 70.73 395.09 Z M 76.08 389 76.49 389.28 76.41 389.53 75.58 389.27 75.78 389.01 76.08 389 Z M 87.2 357.35 87.51 357.41 87.64 357.64 87.63 358.01 87.17 358.03 87 357.47 87.2 357.35 Z M 85.73 356.22 85.94 356.29 86.04 356.63 85.85 356.88 85.64 356.9 85.44 356.23 85.73 356.22 Z M 74.53 319.98 74.89 320.03 74.82 320.24 74.57 320.26 74.53 319.98 Z M 75.07 319.07 75.46 319.25 75.46 319.54 75.61 319.77 74.72 319.7 74.8 319.14 75.07 319.07 Z M 63.41 311.37 62.79 311.34 63.17 311.1 63.41 311.37 Z M 77.74 289.16 77.37 289.3 77.04 289.27 76.95 289.88 76.59 289.97 76.38 290.39 75.96 290.4 75.58 289.91 75.3 289.73 75.54 289.44 76.16 289.34 76.98 288.81 77.72 288.02 78.78 287.53 79.07 287.51 79.2 287.7 79.27 288.16 79.05 288.66 78.48 289.05 77.74 289.16 Z M 85.63 287.93 85.57 288.11 85.99 288.2 85.98 288.5 85.46 288.66 84.96 288.68 85.02 288.89 85.7 289.33 86 289.76 85.83 290.29 85.64 290.39 85.1 290.32 84.86 290.68 85.41 291.13 86.22 290.73 86.69 290.6 87.02 290.62 87.06 290.86 86.81 291.02 86.16 291.21 85.85 291.47 86.08 291.71 86.57 291.85 85.67 292.37 85.35 292.3 85.08 292.46 85.03 292.76 85.43 293.55 85.23 293.82 84.66 294.37 84.02 295.33 83.58 295.49 83.21 295.54 83.54 296.23 83.53 296.45 83.27 296.66 82.5 296.75 82.34 296.23 82.77 295.63 82.52 295.66 82.15 295.36 82.03 294.68 82.05 293.68 82.23 292 82.48 291.42 82.5 290.49 82.84 289.51 84.25 288.01 84.8 287.71 85.49 287.41 85.88 287.38 85.79 287.87 85.63 287.93 Z M 27.77 283.12 28.01 283.22 27.89 283.49 27.56 283.62 27.5 283.3 27.77 283.12 Z M 11.76 278.99 12.36 279.11 12.45 279.37 12.66 279.47 12.91 279.82 13.16 279.77 13.52 280.05 13.82 279.91 14.16 279.57 14.51 279.43 14.9 279.46 14.96 279.23 15.63 279.15 15.82 279.49 15.4 279.52 15.36 279.8 15.78 279.82 16.31 280.14 16.27 280.6 16.46 280.96 16.27 281.82 16.13 282.1 17.25 282.34 17.63 282.28 17.88 282.35 17.89 282.76 18.05 283.26 18.58 283.48 19.13 283.62 20.03 283.56 20.24 283.69 20.7 283.55 20.96 283.35 21.58 283.36 22.38 283.82 22.97 283.55 23.27 283.33 23.84 283.3 24.12 282.99 24.71 283.11 25.23 283.12 25.69 283.23 26.64 283.19 26.54 283.52 26.27 283.66 26.23 284.13 25.94 284.55 26.07 284.88 26.76 284.93 26.95 285.47 26.94 285.88 26.81 286.11 26.22 286.02 25.9 286.31 25.05 285.99 24.69 285.48 24.1 285.35 23.89 285.37 23.4 285.72 23.44 286.26 23.2 286.46 23.44 286.82 23.09 286.9 23.17 287.15 23.55 287.21 23.72 287.53 23.71 287.77 23.92 288.6 23.41 289.13 22.95 289.52 22.82 289.81 23.13 290.26 23.01 290.59 22.73 290.73 22.06 291.34 21.87 291.6 21.9 291.87 21.74 292.46 21.39 292.76 20.82 292.96 20.68 293.75 20.5 294.07 20.99 294.27 20.91 294.47 21.18 294.64 20.78 295.11 20.73 295.56 20.88 296.03 20.92 296.42 21.78 297.45 21.99 297.54 22.58 297.37 23.74 297.27 24.22 297.3 24.57 297.6 24.79 297.91 25.72 298.01 26.02 298.1 25.83 298.65 26.31 298.83 26.62 298.56 27.64 298.43 28.18 297.92 28.4 297.79 28.42 297.47 28.3 297.17 28.73 296.99 29.37 296.35 29.63 296.39 29.61 296.97 30.03 297.07 30.19 297.66 29.82 297.87 29.92 298.02 30.72 298.78 30.86 299.09 30.48 299.06 29.96 298.53 29.57 298.31 29.29 298.27 28.9 298.75 28.76 299.86 29.1 300.84 29.4 301.1 29.81 300.94 30.09 301.32 30.45 301.53 30.88 301.54 30.96 301.28 31.49 301.35 31.79 301.21 31.94 300.89 32.57 300.64 33.17 300.55 34.09 300.66 34.66 300.66 34.81 300.24 35.09 299.84 35.38 299.69 35.92 300.52 36.55 301.05 36.66 301.34 36.67 301.97 36.54 304.69 36.48 306.39 36.64 306.72 37.94 306.7 38.59 306.62 38.42 305.77 38.73 305.38 39.42 305.02 39.88 304.48 40.31 304.28 40.83 304.14 40.92 303.82 40.93 303.21 41.05 302.96 41.5 302.59 42.03 302.4 42.48 302.38 42.75 302.24 44.63 300.53 44.53 300.29 42.32 296.24 42.4 295.83 42.31 295.48 41.56 291.72 41.67 291.34 43.7 291.68 44.92 291.91 46.43 292.17 47.9 292.5 48.11 292.44 48.86 291.95 49.61 291.52 50.08 291.46 50.41 291.6 50.84 291.41 50.98 291.16 52.03 290.47 52.47 290.24 52.93 290.2 53.58 289.73 53.75 289.37 54.11 289.19 55.19 289.57 55.61 289.63 56.17 289.59 56.53 289.33 56.79 288.38 56.95 288.2 57.95 288.27 58.41 288.98 58.84 288.96 59.09 289.22 59.32 289.04 59.65 289.56 59.49 289.95 59 290.34 59.25 290.56 59.72 290.67 59.77 290.93 59.63 291.33 59.18 291.18 58.94 291.38 58.93 291.68 59.21 291.85 59.31 292.31 59.19 293.15 59.27 293.29 60.29 293.51 60.58 293.34 60.77 292.97 61.02 292.72 61.11 292.26 61.32 291.93 62.03 291.42 62.13 291.24 62.07 290.89 62.4 290.41 62.39 290.24 62.71 289.97 63.09 289.78 63.17 289.16 63.01 288.94 63.54 288.7 64.18 288.53 64.71 288.53 65.98 288.34 66.78 288.35 67.4 288.29 67.75 288.33 68.13 288.51 68.34 288.2 68.77 287.98 69.52 288.09 69.53 288.24 69.26 288.59 69.21 288.81 69.5 288.91 70.1 288.8 70.63 288.83 70.96 289.09 72.03 289.39 72.68 289.4 72.99 289.52 73.33 289.88 73.63 289.92 74.17 289.83 74.96 290.07 75.45 290.36 75.51 290.49 75.38 291.02 74.98 292.2 74.84 292.3 73.34 292.56 73.14 292.96 73.09 293.43 73.28 293.88 73.11 293.98 72.58 293.95 72.47 294.11 72.38 294.77 72.69 294.93 73.06 295.52 73.2 295.86 73.51 296.27 73.39 296.58 72.85 296.88 72.2 296.94 71.95 297.13 71.94 297.35 72.16 297.53 71.91 297.8 72.37 297.81 71.79 298.37 71.82 298.58 72.28 298.64 72.24 298.98 71.97 299.18 71.97 299.53 72.14 299.69 72 299.91 71.76 299.95 71.84 300.43 71.6 300.7 71.62 300.95 71.42 301.3 71.22 301.42 70.78 301.41 70.58 301.24 69.7 301.53 69.86 301.8 69.8 302.01 69.32 302.18 69.19 301.87 68.66 301.88 67.88 302.31 68.08 302.5 67.53 303.05 67.56 303.42 67.25 304.06 66.92 304.39 66.72 304.4 66.63 304.72 67.28 304.89 67.23 305.3 66.36 305.28 66.34 305.98 65.92 306.06 65.82 306.31 65.92 306.59 65.54 306.88 65.47 307.6 65.75 307.84 65.29 308.06 64.86 308.38 64.97 308.63 65.07 309.33 64.91 309.48 64.12 309.76 63.25 309.79 63.24 310.06 62.96 310.94 62.43 311.34 62.01 311.49 61.22 311.44 60.89 311.05 60.94 310.26 60.72 309.51 60.2 309.57 59.6 309.9 59.22 309.97 58.17 310.28 57.59 310.37 57.47 310.17 59.35 309.74 59.77 309.39 59.74 309.22 59.01 308.59 58.52 307.84 57.92 307.73 56.42 307.7 56.1 307.83 55.36 307.62 54.65 308.38 54.04 308.68 53.54 309.4 53.34 309.58 53.41 310.12 54.17 310.36 54.25 310.45 53.34 311.04 53.3 311.3 53.89 311.68 54.17 312.17 53.79 313.02 53.39 313.23 53.45 313.48 53.71 313.61 53.77 314.23 52.87 314.48 52.62 314.45 51.65 314.19 51.33 313.92 50.84 314.17 50.35 314.61 50.43 315.28 50.4 315.65 50.22 316.15 50.66 316.28 50.79 316.64 50.09 316.66 49.79 316.89 49.59 317.22 48.14 317.64 47.53 317.9 47.4 318.05 47.5 318.65 47.12 318.49 46.66 319.24 46.79 319.5 46.08 320.19 44.8 321.24 43.1 321.42 42.15 321.2 41.91 321 41.39 320.89 40.85 321.1 40.76 321.41 40.48 321.53 39.97 321.55 39.56 321.73 39.39 321.21 38.98 320.78 38.49 319.56 38.44 319.15 38.73 318.95 38.94 318.66 38.94 318.39 38.75 318.08 38.13 317.62 37.04 317.52 36.59 317.71 36.43 318.16 35.67 318.33 35.73 318.75 35.41 318.61 35.4 318.08 34.8 318.02 34.48 318.74 34.16 319.69 33.71 320.3 33.56 320.35 32.65 320.29 32.22 320.08 31.72 319.5 31.45 319.66 31.28 320.46 31.07 320.75 30.44 320.96 30.34 321.2 29.88 321.58 30.09 321.91 29.98 322.08 29.61 321.94 29.29 322.09 29.02 321.98 28.97 322.33 28.67 322.46 28.65 322.84 28.12 322.9 27.49 323.3 27.31 323.64 27.42 324.35 27.71 324.65 28.27 324.82 29.05 324.95 29.46 324.95 29.89 325.09 29.61 325.69 29.39 325.89 28.81 326.07 28.49 326.09 27.93 325.99 27.05 326.27 26.55 326.06 26.43 325.83 25.9 325.72 25.32 325.93 25.05 326.17 25.07 326.46 24.84 326.71 24.09 326.59 23.8 326.7 23.86 327.31 23.71 327.52 23.38 327.65 22.97 327.57 22.65 327.73 21.94 327.72 21.73 328.44 21.51 328.47 21.11 328.31 20.93 328 20.45 328 20.09 327.92 20.07 327.46 20.33 326.76 20.29 326.28 19.93 326.08 20.42 325.69 20.6 325.43 20.95 325.16 21.27 324.79 21.46 324.29 21.37 324.03 21.04 323.55 20.53 323.03 20.29 322.91 19.9 322.87 19.79 323.07 19.28 322.88 19 322.88 18.76 322.66 18.37 322.97 17.92 323.07 17.36 322.73 16.72 323.73 16.44 323.57 16.8 322.9 17.05 322.97 17.19 322.76 16.64 322.68 16.07 323.1 15.64 323.25 15.3 323.13 14.31 323.56 13.97 323.58 13.91 323.38 13.14 323.58 12.31 323.58 12.17 323.95 11.94 324.08 11.5 324.11 11.1 323.96 10.35 323.48 10.14 323.18 10.29 322.97 9.72 322.88 9.38 322.98 8.79 323 8.42 322.91 8.21 322.54 7.67 322.2 7.4 321.93 6.76 322.17 6.08 322.21 5.87 322.1 5.96 321.71 6.68 321.1 6.67 320.32 6.56 319.74 6.53 319.1 6.69 318.88 6.47 318.59 5.84 318.27 5.57 318.24 5.39 318.44 4.98 318.47 4.7 318.96 4.15 319.32 3.6 319.29 3.32 319.59 2.64 320.06 2.29 319.93 2.12 319.49 2.13 319.06 1.45 318.76 1 318.47 1.1 317.72 1.45 316.98 1.88 316.51 2.59 316.05 3.06 315.4 3.12 315.01 3.19 313.14 3.44 312.66 4.54 312 5.54 311.21 5.89 310.78 6.66 310.08 7.34 309.7 8.56 308.7 8.54 308.41 8.75 308.12 9.18 308.08 9.3 307.7 9.15 307.49 8.63 307.4 8.35 306.73 8.42 306.43 8.24 306.3 7.75 306.22 8.01 305.85 9.17 305.41 10.15 304.9 10.55 304.58 10.51 304.36 10.81 304.14 11.14 304.12 11.31 303.88 11.1 303.36 11.41 303.03 11.9 302.77 12.6 301.86 12.07 300.17 11.44 299.89 10.93 299.99 10.56 299.95 10.46 299.49 10.33 299.26 9.69 299.1 9.41 298.93 8.56 299.29 7.82 299.5 5.8 299.66 5.8 299.37 6.1 298.8 6.6 298.58 6.81 298.39 6.97 298.02 7.2 297.78 8.16 297.35 8.58 296.91 8.76 296.56 8.93 295.58 9.13 295.28 9.51 295.41 9.56 295.78 10.35 295.98 11.01 295.94 11.36 295.86 12.19 295.8 12.57 295.32 12.16 294.95 12.41 294.64 12.24 294.4 12.16 293.94 12.31 293.5 12.77 292.95 12.79 292.75 12.51 292.39 12.71 292.14 12.68 291.87 13.09 291.91 13.57 291.87 13.63 291.54 13.82 291.35 13.98 290.94 14.02 290.49 14.23 289.78 14.58 289.55 14.47 289.14 13.99 288.61 13.38 288.46 12.66 288.7 12.19 288.67 11.76 288.74 11.67 288.42 11.42 288.17 11.17 288.19 11.08 287.57 10.31 287.16 9.42 286.78 9.28 286.57 9.35 286.2 10.02 285.92 10.46 285.8 10.53 285.61 10.4 285.23 10.78 284.67 11.13 284.29 11.59 283.93 11.51 283.51 11.26 283.43 10.69 283.41 9.92 282.69 10.01 282.06 10.48 281.13 10.55 280.83 11.01 280.06 10.97 279.47 10.8 279.23 10.9 278.96 11.44 278.78 11.76 278.99 Z M 13.45 278.8 13.27 278.85 13.02 278.53 13.42 278.56 13.45 278.8 Z" id="南竿鄉"/>
<path d="M 74.86 581.2 74.77 581.36 74.29 581.34 74.48 581.12 74.86 581.2 Z M 74.37 581.85 73.88 582.12 74.47 582.26 74.69 582.51 74.02 582.78 73.73 583.63 73.91 584.06 74.34 584.81 74.42 585.05 74.87 584.67 74.82 585.25 74.52 585.99 74.14 586.79 73.87 587.05 73.59 586.76 73.5 586 73.26 586.21 73.32 586.52 71.79 588.09 71.48 588.22 70.75 588.93 70.47 588.93 70.24 588.64 69.86 587.32 69.87 587.13 70.38 586.48 70.71 585.87 71.08 585.53 72 584.84 71.85 584.01 72.57 583.34 72.08 583.2 71.34 583.09 71.89 582.34 72.18 582.11 72.62 581.61 73.27 581.03 73.7 580.92 73.87 581.04 73.96 581.44 74.86 581.55 74.37 581.85 Z M 102.22 557.72 102.12 557.5 102.43 557.41 102.6 557.67 102.22 557.72 Z M 107.55 550.09 108.06 550.14 108.43 550.29 108.36 550.64 107.6 550.93 106.54 551.02 106.19 550.92 105.78 550.69 105.89 550.36 106.49 550.19 106.56 550.02 107 549.5 107.38 549.45 107.55 550.09 Z M 101.52 549.81 101.81 549.86 102.23 549.46 102.51 549.5 102.84 549.73 103.29 549.75 103.68 550.33 103.78 550.81 104.04 550.84 104.43 550.72 104.59 550.43 104.9 550.14 105.17 550.22 105.55 550.11 105.68 550.19 105.01 550.83 105.17 551.18 105.48 551.26 105.19 551.69 104.91 551.73 104.85 552.1 105.04 552.22 105.75 552.15 106.51 552.17 106.64 552.25 106.49 553.06 105.97 553.9 105.34 554.32 104.75 554.35 104.05 554.21 104.11 554.42 104.64 554.9 104.06 555.36 104.14 555.8 102.77 556.75 101.53 557.87 101.14 558.29 100.8 558.31 100.74 557.9 100.32 557.99 100.02 558.2 99.95 558.53 100.46 558.58 101.11 558.72 101.26 558.89 101.47 559.78 101.6 560.07 101.65 560.51 100.7 561 100.18 561.63 99.75 561.76 98.44 562.45 97.1 562.87 96.16 563.55 95.68 564.12 95.26 564.21 94.21 564.14 93.22 564.27 93.08 564.49 92.92 565.18 93.02 565.63 93.3 566.29 93.49 567.37 94.11 568.22 94.09 568.45 93.73 568.86 93.21 569.19 92.27 569.25 91.65 568.87 91.35 568.56 91.14 568.68 90.63 569.37 90.48 569.8 90.09 570.27 89.72 570.3 88.83 570.1 88.29 570.26 88.62 571.02 88.48 571.49 88.48 571.86 88.14 572.19 88.05 572.44 87.83 572.56 86.96 572.64 86.43 572.3 85.82 572.14 85.58 571.81 85.58 571.55 85.35 571.2 85.03 571.01 84.73 570.71 84.71 570.05 84.77 569.66 84.3 569.26 84.06 568.87 84.03 568.3 83.69 568.36 83.75 568.8 83.61 569.37 83.42 569.73 83.02 570.27 82.89 570.57 82.38 571.15 82.13 571.34 81.52 571.62 81.2 572.08 80.69 572.6 80.3 573.17 79.43 574.11 78.97 574.67 78.47 575.39 77.88 575.29 77.23 574.94 76.55 575.17 76.55 575.64 76.23 575.76 75.98 575.61 75.74 575.67 75.51 575.93 75.74 576.18 75.75 577.24 75.57 577.79 75.18 578.11 74.73 578.23 73.85 578.65 72.63 578.79 72.34 578.37 71.87 578.5 71.65 578.09 71.31 577.81 71.44 577.12 70.88 576.91 70.68 577.34 70.45 577.25 70.58 576.93 70.32 576.87 69.45 577.05 69.2 576.76 69.39 576.46 69.63 576.34 70.34 576.29 70.86 576.35 70.98 576.79 71.5 576.89 71.47 576.57 71.63 575.84 71.93 575.66 72.5 575.08 72.54 574.76 72.25 573.9 72.59 573.3 73.34 572.58 73.76 571.73 74 570.91 74.04 570.37 74.44 569.67 75.13 569.24 75.65 569.18 76.05 568.77 76.08 567.99 76 567.51 75.77 566.97 75.33 566.23 74.97 566.2 74.48 566.64 73.21 566.56 73.21 566.72 71.53 566.65 71.54 566.33 73.6 566.42 73.65 565.77 73.77 565.7 74.41 565.77 74.36 565.39 74.88 565.46 75.17 565.82 75.42 565.96 76.21 566.11 76.91 565.94 78.78 565.08 79.48 564.82 79.57 564.71 79.52 564.32 80.5 563.79 81.33 563.16 81.63 562.67 81.64 562.32 81.34 561.91 81.38 561.68 81.77 561.6 82.45 560.87 82.5 560.52 82.79 560.05 83.27 559.58 83.48 559.28 83.7 558.61 83.84 558.41 83.95 557.9 83.83 557.21 83.89 557.01 83.62 556.69 83.77 556.26 83.59 555.86 83.98 555.78 83.86 555.47 84.04 555.17 83.93 554.46 84.36 554.53 84.84 554.33 85 554.44 85.82 554.18 86.12 554.01 86.58 553.52 86.75 553.2 87.21 552.86 87.94 552.64 88.64 552.69 89.86 552.86 90.27 553.09 90.66 553.15 91.12 553.01 91.65 552.59 92.92 552.56 93.44 552.76 93.02 553.83 93.14 554.3 93.6 554.56 94.01 554.41 94.49 554.97 94.83 555.23 95.13 555.33 96.55 555.35 97.69 555.2 97.89 554.89 98.22 554.79 98.68 554.77 98.89 554.67 99.14 554.27 99.03 553.64 97.75 551.88 100.11 551.07 100.5 550.21 100.51 549.59 101.06 549.35 101.3 549.7 101.52 549.81 Z M 74.58 547.45 74.39 547.31 74.84 547.1 74.89 547.33 74.58 547.45 Z M 75.25 544.97 75.08 544.61 75.4 544.62 75.56 544.84 75.25 544.97 Z M 77.47 544.4 78 544.54 78.18 544.67 78.21 545.08 77.94 545.38 77.61 545.52 77.85 546.1 77.76 546.38 77.96 546.72 78.5 547.41 78.34 547.52 78.33 547.95 78.24 548.27 77.97 548.58 77.66 548.55 76.74 547.75 76.31 547.79 76.24 547.98 75.8 548.06 74.89 548.69 74.61 549.09 74.44 549.06 74.33 548.7 74.08 548.45 74.43 548.3 74.83 547.87 75.48 547.45 75.66 546.79 75.52 546.52 75.67 546.14 75.33 545.96 75.15 545.45 75.49 544.9 76.03 544.73 76.34 544.4 76.32 544.13 76.47 543.93 76.78 544.13 77.47 544.4 Z M 76.79 543.92 76.52 543.85 76.59 543.55 76.92 543.73 76.79 543.92 Z M 77.56 543.93 77.33 543.81 77.73 543.37 77.88 543.45 77.56 543.93 Z M 15.1 544.4 14.76 544.39 14.88 543.76 15.43 543.15 16.09 543.07 16.23 543.25 15.97 543.76 15.1 544.4 Z M 77.08 542.85 77.36 542.85 77.42 543.17 76.97 543.64 76.59 543.42 76.5 543.12 76.67 542.86 77.08 542.85 Z M 89.53 542.75 89.9 542.79 89.85 543.34 90.03 543.52 90.34 543.47 90.32 543.74 90.53 543.85 90.67 544.27 91.31 543.84 91.69 544.14 91.45 544.49 91 544.71 90.43 545.08 90.66 545.17 91.52 545.02 91.45 545.33 91.16 545.34 91.1 545.54 90.54 546.12 90.52 546.72 90.18 547.18 89.88 547.3 89.59 547.93 89.28 548.15 89.22 548.36 88.89 548.46 88.57 548.88 88.58 549.18 88.16 549.3 87.7 549.91 87.33 550.03 87.25 549.73 87.36 549.51 87.35 549.14 87.55 548.74 87.53 547.8 87.21 547.77 87.41 547.42 87.72 547.18 87.75 546.96 87.62 546.62 87.77 546.43 87.89 545.88 87.91 544.93 87.72 544.38 88 543.94 88.56 543.78 88.88 543.35 88.85 543.2 89.53 542.75 Z M 76.3 542.44 76.71 542.32 76.78 542.5 76.48 542.64 76.3 542.44 Z M 89.97 541.83 90.25 541.94 90.52 541.81 90.83 541.98 90.72 542.19 90.29 542.35 89.79 542.44 89.48 542.11 89.81 541.79 89.97 541.83 Z M 18.34 542.29 17.97 542.23 17.86 541.71 17.96 541.31 18.16 541.25 18.55 541.66 18.5 542.12 18.34 542.29 Z M 18.72 540.11 18.3 540.07 18.15 539.86 18.41 539.6 18.69 539.54 18.72 540.11 Z M 111.61 535.76 110.89 535.51 111.39 535.3 111.66 535.42 111.61 535.76 Z M 48.24 534.57 47.36 534.9 47.68 535.69 48.02 535.97 48.12 536.18 48.4 536.34 48.88 536.45 49.18 536.01 49.78 536.2 50.01 535.92 50.56 535.64 51.03 535.53 51.51 535.28 52.65 534.94 52.75 535.13 52.01 535.51 52.15 535.67 53.37 535.87 53.12 536.32 52.83 536.58 52.67 537.02 53.1 537.54 52.86 538.07 52.67 538.28 52.59 538.63 52.64 539.13 52.23 539.18 52.42 539.49 52.38 539.78 51.94 539.97 51.59 540.01 50.75 539.85 50.53 540.08 50.47 540.55 50.5 540.98 50.83 541.4 50.5 541.66 50.19 541.59 49.74 541.72 49.19 542.13 49 542.49 48.6 542.8 48.64 543.11 48.99 543.13 49.13 543.27 48.42 543.77 47.63 543.71 47.17 544.03 46.5 544.59 46.26 544.88 45.99 545.61 45.72 545.86 45.47 546.31 44.71 546.72 44.18 546.7 43.87 546.6 43.76 546.39 42.54 545.88 42.02 545.41 41.75 545.3 41.12 545.55 40.16 546.1 39.61 546.81 39.39 546.98 39.23 547.32 38.6 547.72 38.49 547.97 38.48 548.33 38.79 548.88 39.46 548.97 39.98 549.34 39.93 549.69 39.43 550.01 38.43 550.25 37.03 551.45 36.7 551.81 36.72 552.07 36.19 552.4 35.88 553.24 35.58 553.57 34.13 553.92 33.37 553.98 32.96 553.96 32.74 553.82 30.99 553.93 30.98 553.63 32.23 551.7 32.4 551.66 32.55 552.11 33.28 552.43 33.74 551.59 33.73 551.36 33.17 550.4 32.59 550.23 31.17 549.38 31.36 548.52 30.22 548.3 29.63 548.1 28.66 548.92 27.82 549.51 27.37 549.31 27.23 549.14 27.13 548.46 27.22 548.15 27.51 547.9 27.41 547.22 26.94 546.76 26.67 546.22 25.98 545.48 25.56 545.18 24.61 543.99 24.5 543.45 24.18 542.98 23.59 542.32 23.15 541.74 23.2 540.64 22.49 540.04 22.31 539.7 21.79 539.02 21.3 538.28 21.08 538.14 21.5 537.75 22 536.73 22.64 536.11 23.34 535.73 24.83 535.17 25.07 535.72 25.88 535.62 26.97 535.82 27.44 535.27 28 535.42 29.47 535.42 30.53 535.12 31.12 535.21 31.45 535.48 32.07 536.29 32.05 536.71 32.3 537.05 32.79 537.26 33.43 537.39 33.81 537.03 34.29 536.8 37.45 535.72 37.94 535.5 38.53 535.04 38.73 535.02 39.4 535.27 39.7 535.73 40.12 536.18 40.66 536.44 40.83 535.86 41.14 535.65 41.97 535.45 42.07 534.81 42.18 534.7 43.04 534.69 44.26 534.91 44.38 535.34 44.6 535.35 45.78 535.08 46.09 534.85 45.73 534.55 45.78 534.17 46.5 534.18 46.72 534.39 47.42 534.6 47.32 533.92 47.51 533.73 48.04 533.84 48.28 534.17 48.24 534.57 Z M 111.84 534.6 111.28 534.47 110.98 534.24 111.35 533.73 111.99 533.53 112.45 533.71 112.11 534.35 111.84 534.6 Z M 48.58 533.6 48.14 533.47 48.18 533.21 48.52 533.2 48.7 533.37 48.58 533.6 Z" id="莒光鄉"/>
<path d="M 96.1 263.72 95.98 263.83 95.27 263.64 95.24 262.89 95.43 262.8 95.79 262.96 96.1 263.72 Z M 53.22 253.64 52.53 253.87 52.01 253.78 51.62 253.44 51.74 252.75 52.21 252.22 52.51 252.01 53.48 251.85 54.15 251.98 54.36 252.21 54.24 252.47 53.42 253.46 53.22 253.64 Z M 138.69 233.31 137.7 233.63 136.86 233.54 136.16 232.89 136.02 232.32 136.75 231.5 137.65 230.89 138.26 230.69 139.06 230.58 140.92 231.29 141.07 231.39 141.06 231.89 140.91 232.09 139.92 232.8 138.69 233.31 Z M 142.47 228.53 142.08 228.55 142.07 228.3 142.7 227.82 142.93 227.99 142.47 228.53 Z M 142.19 227.69 142.11 227.43 142.58 227.24 142.42 227.66 142.19 227.69 Z M 138.03 227.45 138.78 227.5 139.53 227.42 140.54 227.85 141.1 228.21 141.44 228.59 141.11 228.89 140.31 229.24 139.33 229.54 138.61 229.47 137.58 229.47 137.51 229.42 136.93 227.91 137.68 227.18 138.03 227.45 Z M 185.44 211.95 185.18 211.75 185.71 211.32 185.95 211.43 185.86 211.67 185.44 211.95 Z M 99.19 211.23 98.69 211.4 98.55 210.95 98.78 210.58 99.19 210.45 99.41 210.49 99.52 210.85 99.19 211.23 Z M 204.49 202.03 204.11 201.96 203.99 201.71 204.14 201.5 204.59 201.18 205.05 201.1 205.13 201.49 204.84 201.86 204.49 202.03 Z M 204.11 195.74 203.78 196.27 203.6 197.03 203.29 197.13 202.76 197.63 202.51 197.61 201.91 197.26 201.78 196.82 202.06 196.08 203.47 195.74 203.94 195.57 204.11 195.74 Z M 116.85 195.71 117.56 195.62 117.85 195.73 118.54 195.71 119.32 195.91 120.41 195.87 121.18 195.78 121.67 195.84 121.8 195.99 122.04 196.54 122.06 197.09 122.38 197.37 122.59 197.96 122.81 198.2 122.76 198.4 123.02 198.79 123.44 198.94 123.13 199.25 123.34 199.36 123.12 199.74 123.47 200.08 123.2 200.39 123.2 200.86 123.45 201.25 124.07 201.62 124.74 201.5 125.69 200.9 126.02 200.87 126.54 200.66 126.47 200.28 126.89 200.07 127.09 200.29 126.99 200.46 127.22 200.73 127.4 200.42 127.87 200.3 128.4 200.49 128.64 200.31 128.83 200.65 129.17 200.83 129.37 200.78 129.88 200.88 130.03 201.16 129.77 201.41 129.34 202.14 129.56 202.37 129.18 203.04 128.99 203.52 128.95 203.99 129.08 204.41 129.1 205.06 128.95 205.69 128.61 205.91 128.69 206.42 129.09 206.75 129.36 206.69 129.89 206.96 130.23 207.33 130.26 208.12 130.16 209.25 129.97 209.61 129.69 209.91 129.53 209.74 128.77 210.07 128.15 211.01 127.55 212.05 127.05 212.82 126.02 214.51 126.41 214.82 127.27 215.16 127.81 215.3 128.93 215.35 129.24 215.2 129.36 214.5 130.13 214.1 130.22 213.94 130.07 213.07 129.9 212.43 129.99 211.85 130.27 211.04 130.78 210.6 131.18 210.09 131.41 210.04 131.84 210.46 131.95 210.24 132.47 209.93 133.1 209.66 133.3 209.38 133.91 209.05 135.29 208.58 135.58 208.44 136.14 208.5 136.76 208.4 137.22 208.93 137.6 209.08 138.11 208.98 138.26 209.13 138.99 208.92 139.95 208.44 140.25 208.45 141.01 209.05 141.35 209.04 141.93 209.32 141.89 209.66 141.47 210.14 141.87 210.38 141.98 210.6 141.51 211.05 141.09 211.79 140.25 212.79 139.12 213.66 139.27 214.28 139.45 214.59 139.77 214.68 140.16 214.43 140.79 214.16 141.07 214.45 140.76 215.03 139.73 215.9 139.43 216.21 137.77 217.42 137.48 217.47 137.17 217.29 137.05 217.52 136.4 218.05 135.86 218.13 135.57 218.06 135.5 218.38 135.03 219.69 134.57 220.09 134.74 220.58 134.9 221.28 135.35 221.97 135.72 222.01 136.22 221.84 136.47 221.62 136.59 222 136.83 222.27 137.12 221.88 137.37 221.99 137.15 222.46 136.9 222.57 137.04 222.79 137.53 222.47 138.3 222.34 138.31 222.71 137.43 223.09 136.92 223.22 136.97 223.63 136.86 224.76 136.89 225.25 137.15 225.75 137.24 226.21 137.12 226.73 136.91 227.17 136.54 227.22 135.96 226.92 135.52 226.82 134.92 226.9 134.35 226.58 134.15 226.03 134.03 225.11 133.76 224.66 133.65 223.98 133.69 222.75 133.76 222.41 133.94 222.28 133.8 221.63 133.33 221.48 133.32 221.28 132.6 221.02 131.86 220.66 131.56 220.42 130.94 219.18 130.86 218.61 130.77 217.19 130.93 216.73 130.42 216.35 129.12 216.01 127.95 215.87 126.02 215.78 125.58 215.81 125.13 215.95 125.13 216.34 124.76 216.85 123.92 218.3 123.67 218.82 122.75 220.45 122.28 221.13 122.11 221.3 121.69 221.33 120.87 220.95 120.41 220.65 120.31 220.37 120.39 220.07 120.67 219.65 121.13 219.65 121.75 218.54 122.06 217.81 122.44 217.25 122.25 216.98 121.72 216.67 120.73 216.21 120.05 216.13 119.4 216.18 118.88 216.57 118.59 217.01 118.54 217.24 118.78 217.49 118.98 217.9 118.89 218.31 118.89 219.14 118.68 219.72 118.64 220.1 118.34 220.69 118.25 221.03 117.84 221.73 117.46 222.13 116.76 222.38 116.51 222.41 116.32 222.23 114.83 222.1 114.68 222.46 114.53 222.53 113.99 222.33 113.6 221.76 113.45 221.44 113.05 221.35 112.41 221.47 111.94 222.26 111.71 222.55 111.36 222.62 111.04 223.09 110.89 223.47 110.72 224.36 110.76 224.63 110.47 224.86 110.27 225.37 109.98 225.44 109.43 226.05 109.19 226.77 108.66 227.01 108.15 227.07 107.58 226.93 107.22 226.67 107.07 226.18 107.36 225.53 107.66 225.2 107.69 224.31 107.83 223.47 107.51 223.12 107.53 222.74 107.25 222.4 106.66 222.11 105.15 221.46 104.47 221.4 104.29 221.57 103.04 221.55 102.37 221.35 101.18 221.46 100.88 221.37 100.19 221.43 100.02 221.65 99.7 222.4 99.27 222.67 99.1 222.91 98.65 223.23 98.21 223.39 97.62 223.7 96.72 223.95 96.01 224.27 95.78 224.49 95.28 224.5 94.66 224.64 94.27 225.07 93.77 225.18 93.34 225.14 92.84 225.64 92.24 226.37 92.04 226.5 91.45 226.54 90.81 225.86 90.4 225.8 89.62 226.01 87.87 227.64 86.51 229.22 86.23 229.41 85.25 230.42 85.38 230.55 85.45 231.51 85.36 232.07 85.19 232.42 85.13 233.22 85.25 233.56 85.59 233.61 85.68 233.87 85.11 234.44 84.67 235.18 84.27 235.74 83.83 236.15 84.22 236.49 84.49 237.25 84.7 237.49 85.36 237.95 85.42 238.35 85.43 239.49 85.26 240.64 85.37 241.94 85.51 243.23 85.71 244.2 85.43 245.07 85.07 245.19 84.66 245.66 84.49 245.99 83.83 246.81 84.18 246.84 84.29 247 84.5 248 84.78 247.74 85.37 247.94 85.83 248.49 86.45 249 86.61 249.3 86.59 249.94 86.25 250.29 86.26 250.58 86.55 250.73 86.56 251.11 86.35 251.7 86.58 251.84 85.71 252.5 86 252.72 85.71 253.01 86.03 253.26 86.53 253.15 86.57 252.84 86.97 252.68 88.46 252.73 89.22 252.98 89.56 253.25 89.4 253.51 89.73 253.98 89.84 254.45 89.8 255.08 89.32 255.67 88.56 255.97 88.04 256.28 87.69 256.4 86.56 256.31 86.13 255.92 85.93 255.45 85.72 254.36 85.92 253.83 86.14 253.58 86.09 253.37 85.27 252.93 84.7 253 84.55 252.78 84.02 252.8 83.66 252.66 83.57 252.43 83.05 252.43 82.68 252.58 81.98 252.99 81.05 253.66 80.59 253.6 80.71 253.28 80.49 253.15 80.22 253.55 79.54 253.54 78.76 253.99 78.83 254.17 78.54 254.45 78.17 254.39 78.14 254.18 77.76 254.02 77.38 254.11 77.18 254.02 77 253.44 77.1 253.06 76.98 252.82 77.26 252.67 77.31 252.43 77.15 252.09 77.23 251.74 76.87 251.14 76.87 250.78 77.11 250.33 77.25 249.89 77.19 249.56 77.39 249.14 77.28 248.9 77.54 248.55 77.23 248.24 76.77 247.62 76.55 247.1 76.46 246.19 76.46 245.4 76.6 244.79 76.57 244.52 76.79 244.26 76.82 243.94 76.71 243.68 76.3 243.14 75.98 242.81 76.19 242.38 76.85 241.84 77.48 241.62 77.46 241.43 76.08 239.75 76.24 239.59 77.09 237.28 77.33 237.02 78.47 236.87 78.67 236.71 79.02 236.2 79.26 235.59 79.3 235.3 79.25 234.68 79.48 234.37 79.58 233.84 80.71 232.57 81.19 231.8 81.53 231.48 81.69 231.51 82.35 231.14 82.67 230.83 83.04 230.27 83.28 229.67 83.2 229.15 82.55 228.76 82.5 228.52 82.17 227.95 82.02 227.87 81.41 227.88 80.91 227.32 80.67 226.6 80.33 226.05 80.02 225.74 79.86 225.06 79.87 224.55 80.13 224.3 80.24 223.51 80.25 223.1 80.43 222.31 80.66 221.97 80.37 221.56 79.65 221.35 79.46 221.5 79.03 220.94 78.54 220.93 78.43 220.83 78.62 220.28 78.43 220.05 78.4 219.69 78.6 219.56 78.49 219.03 78.32 218.94 78.36 218.35 78.51 217.97 78.76 217.88 79.2 218.04 79.49 218 79.97 218.31 79.88 218.57 79.97 218.82 80.26 218.78 80.32 218.57 80.62 218.52 81.03 218.65 81.7 217.98 81.99 217.94 82.67 218.13 83.18 218.44 83.53 218.58 83.94 218.44 84.69 217.95 85.5 217 86.18 216.4 86.59 216.26 87.11 216.32 87.35 216.16 87.31 215.91 87.46 215.61 87.87 215.42 88.03 215.12 88.43 214.74 88.36 214.17 88.79 214.08 88.86 214.54 89.12 214.6 89.64 214.89 90.34 214.44 90.66 214.42 90.78 214.04 91.3 213.82 91.32 213.63 91.85 213.12 92.35 212.52 92.99 212.18 93.1 211.91 93.32 211.73 94.4 211.58 94.8 211.64 95.11 212.18 95.07 212.52 95.38 212.98 95.65 212.96 95.84 213.13 96.2 213 96.73 213.27 97.15 213.24 97.45 213.39 97.99 213.43 98.45 213.37 99.42 213.06 99.88 212.4 100.06 212.25 100.88 212.02 101.38 211.29 101.67 211.05 101.88 210.7 102.08 210.18 102.25 209.96 101.93 209.52 102.46 209.35 102.66 209.11 102.98 209.11 103.36 208.53 104.15 207.94 104.16 207.8 104.63 207.16 105.01 207.1 105.12 206.79 105.57 206.61 106 205.9 106.19 205.42 106.72 205.06 107.28 204.76 107.5 204.47 107.75 204.31 108.14 204.37 108.64 204.17 108.75 204 109.25 203.62 109.85 203.43 110.35 203.17 110.42 203.01 110.38 202.32 110.47 201.79 110.94 201.7 111.1 201.47 111.46 201.21 112.18 201.11 112.65 201.16 112.78 200.69 112.67 200.44 112.26 200.36 112.21 199.9 112.84 199.62 113.09 199.4 112.98 198.92 112.39 198.36 112.48 197.93 113 197.41 113.23 197.32 113.56 196.9 114.14 196.65 114.39 196.43 115 196.22 115.37 195.86 115.43 195.53 116.46 195.63 116.85 195.71 Z M 144.21 194.14 143.92 194.35 144.16 194.67 144.24 195.19 143.96 195.64 143.55 195.93 142.79 196.09 142.35 196 142.12 195.87 141.63 195.8 140.91 195.49 140.42 195.02 140.44 194.61 140.65 194.38 141.18 194.26 141.49 194.36 141.75 194.11 142.31 193.96 143 194.27 143.49 194.12 143.72 193.85 144.03 193.87 144.21 194.14 Z M 138.49 192.47 139.3 192.95 139.25 193.38 140.22 193.14 140.2 193.47 140.32 193.72 140.27 194.46 140.12 194.85 139.7 195.1 139.45 195.05 139.31 195.28 138.68 195.39 138.38 195.33 137.87 195.71 137.53 195.79 137.48 195.98 137.73 196.36 137.83 196.82 137.93 197.77 137.83 198.07 137.78 198.76 137.62 199.02 137.17 199.05 136.44 198.91 136.23 198.56 136.17 198.09 135.86 197.93 135.7 197.09 135.98 195.67 136.58 194.98 137.43 194.25 137.67 193.81 137.86 193.67 137.95 192.69 138.13 192.53 138.49 192.47 Z M 127.54 179.07 128.05 179.09 128.33 179.19 128.61 178.98 129.2 178.95 129.77 178.74 130.16 178.93 130.15 179.15 129.83 179.55 130.01 180.01 129.39 180.71 129.17 181.08 129.13 181.76 128.83 182.23 128.38 183.39 128.26 183.81 127.86 183.98 127.38 183.7 126.77 183.56 126.67 183.37 126.34 183.44 126.34 183.78 126.05 184 126.03 184.85 126.17 185.18 125.88 185.65 126.06 185.85 125.94 186.28 125.43 186.71 124.76 186.81 124.51 186.7 123.68 186.62 123.54 186.29 123.18 186.27 123.07 186.59 122.86 186.74 122.27 186.94 121.88 187.73 121.42 188.01 120.73 188.54 120.14 189.07 119.48 189.32 119.24 189.57 119.35 190.16 119.14 190.38 118.43 190.55 117.8 190.53 116.56 190.67 116.07 190.47 115.48 189.67 115.39 188.65 115.89 187.9 116.22 187.49 116.22 187.2 116.61 186.82 116.45 186.65 116.55 185.54 117.09 184.42 117.55 184.03 118.09 183.43 118.31 182.99 118.43 182.38 119.19 180.65 119.52 180.32 120.04 180.36 120.19 180.48 120.11 181.25 120.6 180.77 121.14 180.56 121.35 180.59 121.84 180.93 122.15 181.42 122.71 181.94 123.3 181.77 123.78 181.38 123.9 181.07 124.36 180.87 124.62 180.57 125.15 180.18 125.2 179.9 125.49 179.16 125.93 178.6 126.64 178.15 126.98 178.35 127.46 178.76 127.54 179.07 Z M 130.67 178.85 130.54 178.83 130.29 178.44 130.33 177.97 130.46 177.79 131.05 177.95 131.06 178.51 130.67 178.85 Z M 134.69 173.13 135.51 173.27 135.89 173.52 136.3 173.63 136.42 173.83 136.25 174.09 136.36 174.34 136.61 174.49 136.97 174.09 137.25 173.94 138.05 173.75 138.92 173.82 139.88 173.62 140.54 173.82 140.27 174.22 140.45 174.34 140.94 174.25 140.98 174.55 141.46 174.43 141.46 174.64 141.21 174.88 140.59 175.17 139.73 175.7 140.19 175.79 139.66 176.67 139.19 176.69 138.6 176.31 138.22 176.52 137.62 176.61 136.84 176.54 136.45 176.61 136.08 176.94 135.76 176.95 135.63 176.56 135.32 176.66 134.64 176.5 134 177.37 133.5 177.57 132.64 177.44 132.48 177.51 131.93 177.49 131.6 177.4 131.58 177.21 132.1 176.69 133.07 175.98 132.95 175.81 133.21 175.45 132.94 174.96 132.93 174.7 133.2 174.33 133.32 173.6 133.46 173.35 134.07 172.76 135.03 172.62 135.02 172.77 134.69 173.13 Z M 111.98 172.2 111.62 172.05 111.63 171.78 112.13 171.63 112.23 171.91 111.98 172.2 Z M 112.62 171.76 112.38 171.7 112.61 171.36 112.77 171.51 112.62 171.76 Z M 112.35 170.51 112 170.5 111.96 170.21 112.19 170.02 112.52 169.95 112.74 170.15 112.35 170.51 Z M 112.09 168.67 112.1 168.83 111.88 169.51 111.6 169.74 111.17 169.72 110.84 169.57 110.23 169.15 110.1 168.87 110.71 168.71 111.37 168.47 111.75 168.47 112.09 168.67 Z M 91.21 150.36 90.02 150.44 89.54 150.66 89.34 150.62 89.37 150.32 89.6 150.16 90.32 149.99 90.43 149.39 90.79 148.96 91.25 149.16 91.43 150.25 91.21 150.36 Z M 110.96 141.17 110.75 141.14 110.67 140.87 111.03 140.85 110.96 141.17 Z M 120.13 139.62 119.72 139.48 119.68 139.34 119.83 138.8 119.95 138.66 120.43 138.47 121.01 138.49 121.12 138.82 120.67 139.39 120.13 139.62 Z M 118.9 138.28 118.65 138.16 118.79 137.94 120.03 137.74 120 137.91 119.45 138.14 118.9 138.28 Z M 119.78 137.27 119.06 137.3 118.95 136.98 119.34 136.49 120 136.4 120.86 136.19 121.1 136.29 120.75 136.91 119.78 137.27 Z M 110.11 137.2 109.88 137.03 109.96 136.7 110.31 136.1 110.67 135.83 111.09 135.74 111.38 136.13 110.6 136.61 110.53 136.97 110.11 137.2 Z M 109.53 137.13 108.39 137.53 108.21 137.43 108.33 137.1 109.04 135.9 109.55 135.61 109.65 135.7 109.87 136.29 109.8 136.73 109.53 137.13 Z M 107.84 137.75 108.9 137.47 109.11 137.71 108.89 138.35 108.82 138.72 108.18 139.11 108.1 138.81 107.67 139.45 107.53 139.86 107.05 140.45 106.6 140.41 106.55 140.57 106.76 140.8 106.66 141.55 106.43 141.84 106.6 142.09 106.57 142.32 106.75 142.66 107.06 142.86 108.22 141.95 108.79 141.66 109.42 141.56 109.89 141.56 110.25 141.83 110.25 141.96 109.57 142.23 109.01 142.74 108.85 142.98 109.15 143.06 108.81 143.65 108.45 143.89 107.87 143.9 107.6 144.02 107.81 144.23 108.34 144.3 109.61 144.1 110.18 144.21 110.91 144.91 111.39 145.79 111.42 146.39 111.3 146.92 111.04 147.21 109.93 147.77 108.95 148.08 108.91 148.65 108.54 148.99 108.11 149.23 107.85 149.12 107.54 149.18 107.36 149.52 106.57 149.58 106.5 149.98 106.6 150.21 107.25 150.44 107.32 150.89 106.68 152.07 106.93 152.35 107.34 152.39 108.06 152.27 108.75 152.67 108.83 152.99 108.82 153.87 108.49 154.29 108.14 154.58 107.46 155.33 107.06 155.4 106.18 155.92 105.85 155.76 105.4 155.97 105.46 156.54 105.69 157.06 105.6 157.24 104.61 157.15 104.39 156.85 103.91 157.14 104.09 157.36 103.53 157.77 102.9 158.06 102.47 158.07 102.04 157.88 101.94 157.51 101.57 157.28 101.03 157.62 100.4 157.6 99.89 158.06 99.44 158.25 98.72 158.34 98.41 158.24 98.37 157.9 97.04 158.11 96.78 158.04 96.33 157.79 96.05 157.28 96.26 156.35 96.12 155.8 96.15 155.45 95.46 155.44 95.15 155.36 94.21 154.63 93.71 154.3 93.57 153.88 93.95 153.45 94.59 152.28 95.16 151.81 95.05 151.54 94.3 151.54 93.4 151.19 92.99 150.74 93.47 150.35 93.96 150.16 94.53 150.13 94.71 150.23 95.39 150.22 95.88 149.8 95.86 149.56 96.35 149.15 96.69 149.03 97.87 148.74 98.26 148.84 98.32 149.17 98.92 148.93 99.63 148.44 99.82 147.95 100.34 147.22 100.51 146.87 100.12 146.43 100.16 146.25 100.52 145.92 100.69 145.97 101 145.75 100.54 145.19 100.91 144.7 100.57 144.18 100.43 144.12 99.06 143.96 98.45 143.46 98.14 143.44 97.85 143.24 97.13 142.9 97.26 142.41 98.02 141.96 99.22 141.39 99.67 141.35 100.3 140.97 100.08 140.8 99.62 140.65 99.31 140.3 99.06 139.89 99.2 139.68 99.61 139.52 99.92 139.64 100.75 139.65 101.06 139.91 101.09 140.46 101.32 140.84 101.72 140.77 102.09 140.46 101.89 140.18 102.22 139.98 102.31 140.31 102.79 140.04 103.21 140.14 103.52 140.47 104.08 140.11 104.14 139.42 103.95 139.18 103.48 138.27 103.29 137.13 103.43 136.8 104.15 136.24 105.09 136.15 105.95 135.54 106.35 135.39 106.79 135.32 107.14 135.65 107.8 136.15 108.11 137.17 107.82 137.55 107.84 137.75 Z M 103.96 135.84 103.82 135.69 103.75 135.26 104.1 135.18 104.18 135.46 103.96 135.84 Z M 108.82 135.66 108.46 135.61 108.22 135.24 108.2 134.84 108.63 134.34 109.11 134.43 109.25 134.67 109.11 134.98 109.04 135.42 108.82 135.66 Z M 103.53 134.34 103.32 134.28 103.22 133.96 103.56 133.53 104.01 133.33 104.35 133.46 103.96 133.95 103.53 134.34 Z M 132.95 115.64 132.85 116.37 132.46 116.63 132.2 116.37 132.7 115.66 132.95 115.64 Z M 404.48 67.6 403.96 67.49 403.83 67.21 404.44 67.15 404.48 67.6 Z M 407.77 68.07 407.56 68.06 407.38 67.5 407.4 67.22 407.75 67.12 408.01 67.87 407.77 68.07 Z M 404.91 67.75 404.81 67.58 404.99 67.31 405.18 66.78 405.56 66.66 405.81 67.15 405.6 67.49 404.91 67.75 Z M 409.19 66.28 409.13 66.49 408.54 66.47 408.31 66.19 408.42 65.91 409 65.95 409.19 66.28 Z M 422.6 56.5 422.23 56.34 422.19 55.99 422.29 55.82 422.86 56.14 422.6 56.5 Z M 422.89 55.83 422.26 55.71 422.38 55.01 422.66 54.9 423.13 55.33 422.89 55.83 Z M 424.63 54.16 424.18 54.74 423.79 55.08 423.39 55.16 422.79 54.9 422.67 54.41 422.24 54.9 422.3 55.26 422.06 55.61 421.69 55.65 421.26 56 421.42 56.26 421.7 57.04 421.67 57.36 421.09 57.73 420.73 57.33 420.41 57.58 420.3 57.89 420.31 58.25 419.78 58.66 419.47 59.14 419.3 59.54 418.91 59.81 418.63 60.51 418.23 61.02 417.83 60.93 417.39 61.43 417.59 61.83 417.32 62.06 417.18 61.87 416.69 61.92 417 62.33 416.89 62.76 415.57 62.56 415.09 62.24 414.91 62.52 414.89 62.95 414.61 63.12 413.67 63.09 413.74 64.08 413.07 64.96 413.07 65.22 413.35 65.32 413.42 65.61 412.79 65.98 411.84 65.8 411.71 66.2 411.43 66.68 410.92 66.5 410.67 66.02 410.5 66.3 410.2 66.36 410.2 65.83 410.51 65.34 410.18 65.07 410.17 64.46 410.32 63.97 411.41 62.71 412.04 62.67 412.15 62.1 412.6 61.36 412.53 60.87 412.63 60.06 412.86 59.19 413.06 58.7 413.26 58.38 413.64 58.35 414.25 58.76 414.74 58.89 415.04 59.24 415.57 59.14 415.95 58.53 416.54 58.16 416.56 57.63 416.99 57.17 417.14 56.61 417.38 56.25 417.96 55.7 418.14 55.33 418.38 55.08 419.75 54.25 420.34 54.11 421.36 53.58 421.97 52.82 423.89 51.75 424.56 51.05 425.26 51.3 425.55 51.68 425.48 52.05 425.66 52.38 425.82 52.99 425.78 53.65 425.1 53.86 424.63 54.16 Z" id="北竿鄉"/>
<path d="M 655.37 300.34 655.72 300.62 655.59 300.88 655.43 301.68 655.22 301.9 655.69 302.05 656.08 301.93 656.77 302.36 656.98 302.2 656.77 301.92 657.1 301.65 657.54 302.09 657.81 302.6 657.73 302.81 658.05 303.13 657.93 303.77 658.3 303.84 658.38 303.52 658.62 303.43 658.67 303.18 659.26 303.51 659.69 303.95 659.46 304.81 659.25 305.07 658.87 305.31 658.38 304.92 658.2 304.67 657.88 304.53 657.16 304.48 656.78 304.65 656.58 304.61 655.63 304.06 655.31 304.04 654.97 303.77 654.77 303.47 654.68 303.12 654.52 303.08 654.31 302.74 654.06 302.57 653.93 302.29 653.91 301.86 654.22 301.81 654.64 301.49 654.51 301.25 654.98 300.37 655.37 300.34 Z M 389.51 180.79 389.45 181.1 389.24 181.45 389.05 181.09 389.29 180.79 389.51 180.79 Z M 759.69 44.22 759.34 43.98 759.53 43.65 759.78 43.52 760.08 43.05 760.42 42.84 760.83 42.03 761.84 41.37 762.12 41.23 761.87 41.93 761.41 42.41 760.72 42.76 760.51 43 760.65 43.24 760.25 43.64 759.9 43.65 759.69 44.22 Z M 764.89 40.31 765 40.6 764.68 40.99 764.34 40.87 764.23 40.38 763.89 40.44 763.98 40.03 764.3 39.64 764.43 39.64 764.89 40.31 Z M 765.33 39.96 765.05 39.93 764.67 39.56 764.91 39.28 765.44 39.76 765.33 39.96 Z M 775.4 39.08 775.06 38.95 775.16 38.57 775.42 38.16 775.91 38.11 775.97 38.34 775.72 38.56 775.4 39.08 Z M 777.16 35.55 777.15 35.09 777.38 35.13 777.4 35.42 777.16 35.55 Z M 798.72 28.31 798.44 28.29 798.22 28.05 798.68 27.79 798.95 27.95 799 28.18 798.72 28.31 Z M 784.56 10.66 784.3 10.57 784.28 10.36 784.55 10.24 784.81 10.51 784.56 10.66 Z M 762.06 9.95 761.45 9.86 761.45 9.7 761.82 9.51 762.53 9.45 762.06 9.95 Z M 762.07 8.9 761.73 8.74 762.34 8.17 762.64 8.42 762.45 8.76 762.07 8.9 Z M 758.93 5.19 758.84 4.86 759.16 4.91 758.93 5.19 Z M 231.3 4.55 231.32 4.97 230.96 4.81 230.95 4.51 231.3 4.55 Z M 230.59 3.91 230.79 4.1 230.76 4.56 230.64 4.65 230.73 5 230.51 5.1 230.14 5.05 230.04 4.89 230.22 4.65 229.97 4.29 230.27 3.9 230.59 3.91 Z M 748.93 3.22 748.75 3.12 748.95 2.69 749.23 2.72 749.2 2.99 748.93 3.22 Z M 756.45 3.88 756.61 4.07 756.53 4.41 757.29 4.38 757.34 4.51 756.71 4.96 756.93 5.06 757.28 5.53 757.42 6.26 757.36 6.55 757.77 6.84 758.12 6.77 759.3 6.87 760.01 6.89 760.41 7.56 760.58 8.43 760.37 9.06 760.62 9.8 761.13 10.47 761.22 10.98 761.56 11.58 760.91 12.32 760.52 12.85 760.32 13.95 759.97 14.27 759.54 15.43 759.52 15.98 759.87 16.01 760.02 16.52 759.92 17.5 759.58 18.2 759.33 18.23 759.1 18.97 758.97 19.14 758.99 19.47 760.8 20.09 761.41 20.36 761.8 20.27 762.24 19.63 762.77 19.7 762.84 19.82 762.77 20.6 763.28 20.67 763.24 20.92 763.51 21.18 763.94 21.37 764.29 21.43 765.14 21.12 765.68 20.62 766.09 20.15 766.82 20.01 766.89 19.12 767.25 18.69 767.68 18.7 768.26 19.23 768.41 19.69 768.41 20.05 768.82 20.26 769.26 20.28 769.73 19.57 770.68 19.36 770.9 19.37 771.71 19.89 772.13 20.35 772.43 20.3 772.63 20.12 772.86 20.24 773.26 19.8 773.15 18.95 773.36 18.22 773.47 17.17 773.25 16.11 773.15 15.04 773.24 14.43 773.75 13.43 774.39 12.76 774.78 11.82 775.02 11.55 775.48 11.44 775.67 11.28 775.71 10.86 775.89 10.73 776.48 10.71 776.98 10.02 777.38 9.91 777.55 9.75 778.01 9.66 778.39 9.76 779.34 9.79 779.9 9.67 780.26 10 780.9 9.98 781.31 10.29 781.52 10.58 781.81 10.59 782.29 10.13 782.98 9.92 783.42 10.39 783.93 10.71 784.17 11.1 784.15 11.29 783.89 11.49 784 11.66 784.1 12.3 783.91 12.68 783.87 12.99 783.43 13.57 782.94 14.08 782.59 15.29 782.36 15.72 781.94 16.08 781.51 16.32 781.4 16.68 781.53 17.23 781.7 17.58 782.25 17.84 782.5 17.82 782.85 17.47 783.77 16.89 784.78 16.79 785.16 16.89 785.49 17.71 785.33 18.06 785.85 18.23 785.95 18.08 786.32 17.99 786.73 18.38 786.81 19.62 786.95 19.77 787.5 19.21 787.68 19.59 788.16 20.04 788.23 19.79 788.04 19.37 788.66 18.8 789.25 18.64 790 18.23 790.52 18.35 790.64 18.66 791 18.67 791.2 17.19 791.36 16.95 791.86 16.97 792.6 17.44 793.11 18.15 793.37 18.86 793.65 19.29 793.6 19.69 793.82 20.29 794.08 20.31 794.28 20.06 794.58 20.91 794.4 21.84 795.34 21.83 795.59 21.93 795.95 22.23 796.19 22.65 796.54 23.02 796.98 23.26 797.61 23.2 798.11 23.27 798.32 23.62 798.29 23.85 797.77 24.05 797.77 25.08 798.16 25.36 798.59 26.17 798.57 26.62 798.44 27.38 797.99 27.88 797.39 27.98 796.95 28.2 796.4 28.05 795.99 28.12 795.27 27.99 794.84 27.69 793.99 27.39 793.75 27.27 793.54 26.79 793.06 26.69 792.56 26.16 792.36 25.8 792.14 25.07 792.02 24.99 791.09 26.22 790.07 26.96 789.69 27 788.99 26.95 788.96 26.62 789.44 26.35 788.76 26.22 788.67 25.85 788.84 25.22 788.69 24.81 788.27 24.26 787.96 23.71 787.37 23.09 787.42 22.83 787.24 22.6 787.01 22.63 786.6 22.92 786.48 22.53 785.96 22.57 785.67 22.92 785.49 22.8 785.15 22.86 785.24 23.33 785.07 23.82 784.75 24.09 784.57 24.43 784.55 24.94 784.35 25.27 784.55 25.65 784.82 26.38 784.59 27.56 784.23 28.38 783.4 29.5 782.61 29.86 781.88 30.26 781.43 30.95 781.65 31.6 781.52 31.89 780.87 31.97 780 32.24 779.49 32.73 779.15 32.86 778.76 32.88 778.37 32.79 778.28 32.92 778.39 33.61 778.35 33.93 777.35 34.12 777.23 34.26 777.31 34.59 776.91 35.41 776.35 35.88 776.35 36.81 776.03 37.14 775.84 37.64 774.84 38.45 774.51 38.17 774.38 37.86 774.66 37.21 774.95 36.76 774.93 36.26 774.45 36.09 774.15 36.22 774.12 35.89 774.25 35.49 774.17 35.23 773.78 35.2 773.42 35.33 773.24 35.58 772.76 35.94 772.19 36.51 771.76 36.78 771.48 36.68 771.15 36.33 770.8 36.8 770.53 36.98 770.26 36.75 769.78 36.68 769.42 37.37 768.47 37.79 768.26 37.8 767.64 37.16 767.71 36.81 768.07 35.88 768.42 35.59 768.08 35.17 767.61 35.31 767.36 35.16 767.23 34.81 766.62 34.88 766.03 35.22 765.68 35.13 765.41 34.79 765.13 34.61 764.58 35.02 764.64 35.3 764.42 35.55 765.03 36.23 764.58 36.37 764.39 36.14 764.06 36.03 763.72 36.36 763.83 36.57 763.79 36.9 764.33 37.13 764.58 38.18 764.38 38.86 763.85 39.73 763.03 39.99 762.7 39.94 762.3 39.73 762.21 39.34 762.45 38.65 762.3 38.05 761.2 37.57 760.66 37.09 760.04 37.19 759.85 36.94 759.66 36.04 759.46 36.02 759.32 36.35 759.05 36.22 759.32 35.91 759.03 35.68 759.2 35.08 759.47 34.75 759.96 34.7 760 34.46 760.22 34.15 760.85 33.85 761.25 33.59 761.47 32.4 761.41 31.84 761.68 31.45 761.49 31.19 761.7 31.03 761.96 30.38 762 29.7 760.23 28.19 759.86 27.94 759.93 27.65 761.01 28.42 761.21 28.25 764.14 27.08 764.28 25.58 764.18 25.26 764.22 24.64 764.3 24.38 763.96 23.92 764.05 23.52 763.91 22.95 764.07 22.51 763.61 21.97 762.88 21.33 762.5 21.25 762.09 21.37 761.74 21.35 760.98 21.03 759.95 20.67 759.29 20.33 758.34 20.04 756.66 21.75 756.56 22.25 755.8 22.89 755.11 23.61 754.49 23.95 754.37 23.66 754.18 23.63 754.11 24.29 753.87 24.15 753.78 23.68 753.87 23.25 754.09 22.64 753.81 22.38 753.54 22.62 753.39 22.24 753.4 21.19 753.68 20.7 753.83 19.83 753.79 18.87 753.95 18.47 753.88 17.47 753.93 16.17 754.05 15.89 753.71 15.85 753.58 16.02 753.26 16 752.85 15.64 752.76 15.4 752.6 14.53 752.75 13.67 752.98 13.21 753.03 12.81 752.98 12.19 753.26 11.05 753.65 10.66 753.54 10.2 753.21 9.85 753.25 9.46 752.91 9.05 752.41 9.12 751.98 10.09 751.82 10.54 750.97 11.51 750.84 11.82 750.28 11.89 749.69 12.09 749.21 11.74 748.96 12.06 749.12 12.28 749.1 12.67 748.89 13.13 748.5 13.04 748.17 13.25 748.3 13.73 747.9 14.5 747.52 14.53 747.22 15.04 747.4 15.25 747.5 15.6 747.23 16.24 746.84 16.8 746.37 17.06 746.23 17.61 745.96 18.08 745.48 17.7 745.1 17.93 744.51 19.31 744.36 19.58 743.88 19.65 743.85 19.3 743.98 18.68 743.72 18.66 743.53 19.35 743.42 19.53 742.92 19.62 742.9 19.22 743.22 18.53 742.82 18.44 742.77 17.83 743.26 17.26 743.39 16.78 743.83 15.75 744.18 15.41 744.45 15.34 744.47 14.78 744.2 14.35 744.07 13.98 743.47 13.11 743.25 12.5 742.83 12.51 742.97 12.19 742.72 11.92 742.76 11.66 743.08 11.56 743.17 11.15 743.5 11.1 743.52 10.9 744.17 10.71 744.1 10.37 744.39 10.36 744.59 10.16 745.22 10.28 745.41 9.92 745.73 10.25 746.18 10.26 746.02 10.02 746.05 9.77 746.32 9.62 746.52 9.37 746.85 9.41 746.84 9.65 747.4 9.91 747.82 9.91 748.52 9.6 748.79 9.09 749.53 8.79 750.03 8.15 750.01 7.55 749.63 7.2 749.51 6.91 749.65 6.28 749.64 5.66 749.89 5.37 749.7 5.06 749.34 5.16 749.12 4.54 748.76 4.44 748.74 4.18 749.06 3.76 749.09 3.4 749.35 3.2 749.81 3.49 750.16 3.23 750.24 3.63 750.44 3.89 750.79 3.71 751.08 3.7 751.03 3.45 751.28 3.11 751.71 2.98 752.18 3.02 752.74 3.25 753.18 3.97 753.32 4.5 753.1 5.02 753.25 5.33 753.78 5.47 754.22 5.34 754.47 4.61 755.23 3.76 755.54 3.53 755.99 3.38 756.11 3.08 756.69 2.82 756.87 2.64 757.27 2.8 757.12 2.99 757.27 3.35 756.67 3.64 756.45 3.88 Z M 235.63 1.03 235.92 1.41 235.67 2.1 235.42 2.02 235.08 2.22 234.27 2.47 234 2.21 233.28 2.12 232.9 2.16 232.71 2.31 232.02 2.31 231.43 2.16 232.12 1.59 232.97 1.27 233.36 1.45 233.42 1.18 234.22 1.18 234.53 1.03 235.28 1.14 235.63 1.03 Z" id="東引鄉"/>
</g>
</svg>
