<?xml version="1.0"?>
<svg xmlns="http://www.w3.org/2000/svg" version="1.2" baseProfile="tiny" width="100vw" height="100vh" stroke-linecap="round" stroke-linejoin="round">
<g id="TOWN_MOI_1091016">
<path d="M 385.27 631.51 385.2 637.11 385.04 641.59 384.77 657.07 384.53 665.59 384.48 670.57 384.38 672.88 384.29 680.16 384.19 684.53 384.19 689.98 384.01 692.06 382.07 695.57 380.37 697.86 377.84 700.09 370.06 707.31 365.89 711.07 367.17 712.64 370.74 715.57 373.58 718.3 378.46 722.8 385.88 729.77 388.2 731.86 393.95 737.53 394.62 738.28 395.65 740.96 396.62 742.75 398.73 745.07 401.12 747.04 402.65 748.97 404.36 751.78 406.75 753.16 407.38 755.22 407.19 758.77 407.44 760.14 407.83 760.99 409.5 762.62 411.5 764.23 414.27 766.09 414.53 766.54 416.38 771.69 416.83 773.24 412.8 774.46 410.42 774.6 405.88 773.63 405.12 773.16 403.94 771.8 402.93 770.25 402.13 769.5 400.01 767.94 398.21 765.69 397.27 765.17 395.61 765.01 394.34 764.1 392.46 761.63 391.36 760.71 388.49 758.74 387.33 757.43 385.99 758.29 380.81 758.38 380.41 758.87 378.85 759.68 377.58 759.96 376.14 760.04 374.58 762.39 373.82 764.19 373 765.53 370.69 767.36 369.33 769.03 368.4 769.65 366.68 770.33 365.18 770.32 363.92 769.38 362.57 767.75 360.65 766.85 357.83 766.55 353.11 766.72 351.73 767 348.26 768.49 343.1 771.88 336.68 773.61 335.7 774.32 334.98 774.26 333.57 773.57 331.54 771.5 325.92 772.94 324.37 773.2 321.46 773.16 318 772.46 314.11 771.32 312.86 771.62 310.7 771.74 309.86 772.07 309.44 771.59 308.66 769.52 308.31 767.63 307.47 764.83 306.9 762.31 306.43 761.23 304.68 757.8 302.77 754.73 300.52 752.21 297.08 748.95 292.87 744.75 291.78 743.83 288.07 740.19 282.75 735.2 278.89 731.5 273.72 726.37 269.06 722.24 261.39 715.57 261.02 715.34 259.62 713.48 250.75 700.98 247.87 697.12 247.79 696.17 250.87 681.11 251.16 680.14 257.51 669.09 258.64 668.83 268.71 673.77 278.18 675.09 280.87 675.41 288.84 675.7 289.73 675.49 289.8 671.31 290.16 654.3 290.3 646.43 290.55 635.67 290.63 630.53 293.38 631.28 297.36 632.17 300.81 632.86 303.87 633.19 308.15 633.4 316.68 633.63 323.85 633.74 332.36 632.66 333.25 632.58 341.91 631.42 342.65 631.38 347.77 631.96 360.2 633.52 367.11 634.3 370.78 634.51 373.89 634.17 376.95 633.34 382.32 632.25 385.27 631.51 Z" id="大安區" data-countyname="臺北市"/>
<path d="M 306.43 761.23 306.9 762.31 307.47 764.83 308.31 767.63 308.66 769.52 309.44 771.59 309.86 772.07 310.7 771.74 312.86 771.62 314.11 771.32 318 772.46 321.46 773.16 324.37 773.2 325.92 772.94 331.54 771.5 333.57 773.57 334.98 774.26 335.7 774.32 336.68 773.61 343.1 771.88 348.26 768.49 351.73 767 353.11 766.72 357.83 766.55 360.65 766.85 362.57 767.75 363.92 769.38 365.18 770.32 366.68 770.33 368.4 769.65 369.33 769.03 370.69 767.36 373 765.53 373.82 764.19 374.58 762.39 376.14 760.04 377.58 759.96 378.85 759.68 380.41 758.87 380.81 758.38 385.99 758.29 387.33 757.43 388.49 758.74 391.36 760.71 392.46 761.63 394.34 764.1 395.61 765.01 397.27 765.17 398.21 765.69 400.01 767.94 402.13 769.5 402.93 770.25 403.94 771.8 405.12 773.16 405.88 773.63 410.42 774.6 412.8 774.46 416.83 773.24 419.64 772.51 421.49 771.79 423.17 770.66 425.04 769.94 428.61 767.7 429.85 767.03 430.57 766.19 432.04 763.73 432.66 763.29 435 762.32 436.49 761.55 438.88 759.64 439.56 758.73 440.38 753.65 441.43 752.41 442.97 753.2 444.71 753.8 446.86 753.96 451.94 753.89 452.7 753.48 455.07 750.52 455.98 749.83 458.58 750.4 461.4 751.32 463.04 751.29 467.68 754.45 468.99 755.78 469.97 756.46 471.1 756.83 472.26 757.58 473.28 757.47 473.98 756.82 474.76 756.58 479.38 756.54 480.61 756.25 484.52 754.17 488.08 754.32 490.04 754.07 491.89 753.35 493.95 753.02 499.17 753.17 500.81 753.03 502.16 752.65 504.46 751.69 508.29 751.32 510.88 750.16 513.68 749.73 514.64 748.18 515.3 747.46 517.29 747.88 518.11 748.47 519.69 748.78 522.07 748.63 523.84 747.29 524.37 746.42 525.35 745.83 528.18 745.07 529.53 745.07 530.34 745.49 531.24 746.59 532.31 747.18 534 747.57 535.92 748.49 536.5 749.32 536.53 749.72 537.56 752.04 537.73 753.14 537.35 754.43 536.5 755.48 534.84 756.59 534.05 757.66 533.62 758.7 533.22 760.71 533.32 761.57 533.03 764.06 531.75 767.15 531.16 769.49 531.17 771.23 530.69 773.57 530.3 776.93 530.55 777.96 531.3 778.93 531.63 781.25 531.15 785.71 531.34 787.07 531.88 787.83 532.58 787.86 534.56 786.98 535.83 786.89 537.49 787.51 538.89 788.46 540.71 790.4 542.22 791.72 544.17 792.96 545.88 794.79 546.64 796.14 547.12 797.69 548.52 799.69 549.09 801.58 548.98 802.97 549.09 806.59 549.01 809.98 548.13 811.36 546.71 812.29 545.85 813.43 546.01 814.86 545.75 815.73 545.46 818.03 545.17 818.43 543.4 819.15 542.22 820.04 541.12 821.65 539.85 825.33 540.46 826.66 541.04 828.58 542.12 829.42 544.19 830.59 544.54 831.05 544.62 832.27 543.38 835.82 546.07 838.03 549.63 839.5 552.09 840.11 554.13 840.81 554.5 841.42 554.29 843.16 553.9 844.16 553.72 846.61 554.83 847.83 554.09 850.26 553.55 851.07 551.95 852.13 548.97 852.99 547.51 854.39 546.51 855.98 546.39 857.47 546.71 861.32 547.21 864.19 548.51 868.86 548.13 871.49 548.81 874.19 548.9 876.43 549.31 877.84 549.5 879.53 548.79 881.9 548.1 882.76 545.07 884.93 544.41 885.76 544.93 887.48 545.5 888.56 546.66 890.14 547.68 892.43 548.89 893.37 551.2 894.55 555.03 896.24 557.82 896.37 560.01 897.5 561.72 898.05 564.1 899.51 566.52 902.02 567.5 902.33 570.99 901.81 575.18 901.83 578.54 901.74 579.35 900.83 580.19 900.67 584.41 901.41 585.01 901.7 585.5 902.74 587.56 902.36 589.97 901.34 590.93 901.57 592.21 903.1 593.34 904.05 594.37 904.6 596.03 904.85 598.28 906.05 599.87 905.8 601.03 905.21 602.07 905.69 603.04 906.6 606.22 910.43 608.87 912.56 613.48 915.03 614.83 915.62 617.37 915.66 620.32 916.66 621.92 917.9 622.38 918.5 623.4 920.76 623.34 921.69 621.87 923.57 621.76 924.23 622.61 926.97 622.62 928.86 622.04 929.81 619.21 930.33 617.8 930.94 616.37 931.1 615.19 930.84 614.28 930.25 612.22 928.58 611.05 928.81 609.31 930.29 607.41 931.1 605.82 932.41 604.77 932.5 604.09 933.58 602.9 932.77 601.85 932.51 599.2 932.57 597.25 933.68 595.54 934.17 593.07 936.62 591.11 936.62 589.8 936.84 586.97 938.09 583.34 940.65 582.25 941.82 579.35 944.98 578.19 945.55 575.31 945.32 572.89 945.36 571.07 945.61 569.79 945.47 567.05 945.7 565.7 946.17 564.62 947.39 562.52 948.14 559.95 948.51 559.25 948.96 558.64 949.99 557.7 950.84 556.81 951.3 555.22 952.59 552.93 953.48 551.09 953.81 549.52 953.5 548.3 952.78 546.81 952.34 543.58 953.08 541.24 952.36 539.98 953.05 539.34 953.85 538.13 954.84 536.86 955.22 535.79 955.25 534.85 954.84 533.48 953.47 531.63 952.53 528.89 952.18 527.21 951.12 526.43 949.52 523.74 944.62 523.08 943.65 522.39 941.94 521.72 941.08 518.44 941.31 516.28 942.11 515.4 941.72 513.21 939.57 512.41 939.72 511.29 940.43 508.81 942.39 508.17 942.62 505.83 942.8 504.69 943.79 503.45 944.37 502.23 943.84 501.39 943.09 500.53 943.13 497.27 943.92 494.6 944.04 492.43 944.93 491.67 944.38 491.03 942.52 490.08 941.26 489.05 940.4 487.37 939.63 484.25 939.64 481.93 939.25 478.93 938.96 474.79 937.58 472.5 936.52 470.11 934.87 467.57 932.88 465.31 931.99 463.45 931.91 460.46 932.4 458 932.15 455.68 931.39 453.43 930.9 451.53 930.79 449.72 931.02 449.63 931.65 450.19 933.84 450.11 934.34 448.91 936.97 447.46 937.9 446 939.05 443.7 941.44 442.02 941.96 440.23 941.83 437.63 940.67 433.8 940.19 431.18 940.45 428.88 941.35 426.27 941.63 424.74 941.51 420.65 941.47 418.34 942.03 417.73 941.88 416.1 940.53 414.3 941.4 413.49 941.59 412.6 941.07 410.78 939.43 410.3 939.28 407.82 939.5 405.83 938.86 402.27 938.98 400.28 939.38 398.74 939.17 395.53 935.73 395.12 935 394.61 933.01 394.15 932.23 392.36 931.36 391 928.9 389.08 926.28 388.27 924.55 387.73 921.34 386.18 917.72 385.67 913.3 385.08 911.45 384.44 910.32 382.27 908.84 381.81 908.05 380.7 907.07 379.5 906.61 379.17 906.03 378.9 903.32 378.24 901.42 377.47 899.95 376.06 895.69 375.75 893.98 372.98 893.29 371.57 892.62 370.59 891.74 369.93 890.58 368.81 886.38 368.02 884.43 367.79 882.96 367.87 880.83 367.61 879.64 367.54 877.86 367.81 875.66 368.34 873.77 369.06 869.78 370.27 866.09 370.82 864.05 370.94 862.69 370.27 860.8 368.33 858.71 367.12 857.13 365.9 855.12 364.92 854.11 363.64 853.2 361.63 852.52 359.11 853.11 358.49 854.73 359.44 855.5 359.86 857.16 359.82 858.27 359.43 859.61 358.88 860.61 356.5 862.97 354.46 864.81 352.17 866.36 349.76 867.12 344.83 868.21 341.71 868.08 339.86 867.8 338.7 867.44 336.22 866.29 334.6 864.31 333.71 862.51 333.56 861.42 333.81 859.66 334.25 858.33 335.72 855.11 336.03 853.87 335.24 851.47 334.2 849.83 333.59 849.36 332.42 849.1 331.39 849.18 328.12 849.76 322.63 850.52 317.73 851.12 314.78 851.13 312.59 850.73 310.74 850.18 307.34 848.57 305.62 847.38 304.77 845.29 304.61 843.57 305.12 841.53 306.11 838.59 306.59 836.67 306.5 834.08 305.79 831.82 304.3 828.57 303.35 826.91 301.77 824.89 299.63 823 298.61 823.14 297.59 825.45 296.65 828.35 296.06 829.83 295.33 831.03 293.78 832.97 291.55 835.39 288.12 838.46 285.91 840.58 286.18 837.8 285.94 835.47 285.15 833.36 284.69 832.72 286.13 830.27 286.3 828.16 285.71 824.44 284.65 821.74 283.97 820.26 283.68 819.02 282.97 817.32 281.67 813.34 281.39 811.9 282.31 810.41 282.35 808.82 282.69 807.47 283.58 805.64 284.09 802.89 284.53 801.71 285.65 799.72 287 798.5 289.52 796.88 292.35 794.62 294.07 792.61 294.35 791.33 294.2 790.52 293.3 788.89 291.54 786.65 290.56 784.3 289.48 782.2 288.84 777.08 288.36 775.07 287.64 773.23 286.48 771.16 294.35 766.71 297.64 764.66 299.96 763.04 301.22 762.38 306.43 761.23 Z" id="文山區" data-countyname="臺北市"/>
<path d="M 416.83 773.24 416.38 771.69 414.53 766.54 414.27 766.09 411.5 764.23 409.5 762.62 407.83 760.99 407.44 760.14 407.19 758.77 407.38 755.22 406.75 753.16 404.36 751.78 402.65 748.97 401.12 747.04 398.73 745.07 396.62 742.75 395.65 740.96 394.62 738.28 393.95 737.53 388.2 731.86 385.88 729.77 378.46 722.8 373.58 718.3 370.74 715.57 367.17 712.64 365.89 711.07 370.06 707.31 377.84 700.09 380.37 697.86 382.07 695.57 384.01 692.06 384.19 689.98 384.19 684.53 384.29 680.16 384.38 672.88 384.48 670.57 384.53 665.59 384.77 657.07 385.04 641.59 385.2 637.11 385.27 631.51 388.32 630.6 390.1 629.95 394.16 628.25 397.75 626.53 403.39 624.07 407.9 622.4 413.29 620.69 415.9 619.71 418.56 618.85 424.82 617.22 429.52 616.07 431.46 615.74 436.71 615.14 438.08 615.33 451.18 615.36 456.12 615.5 462 615.08 463.51 615.23 470.17 615.08 470.79 615.24 470.47 620.27 472.71 622.56 472.98 623.24 473.15 626.51 473 629.88 473.52 631.32 474.56 632.35 480.47 637.6 486.66 642.69 490.83 645.29 492.87 645.18 496.25 645.56 497.27 647.79 496.73 648.37 497.71 651.13 497.44 651.31 497.86 652.7 498.87 652.4 500.25 656.17 501.32 657.42 502.89 657.88 505.27 660.5 506.32 662.44 506.87 665.22 506.35 667.22 506.5 668.7 507.23 672.4 508.12 674.24 509.87 676.45 512.26 678.82 514.48 680.86 516.09 683.04 516.56 684.74 515.65 686.23 514.99 688.38 513.55 689.68 511.21 690.03 510.46 690.34 509.1 691.67 506.31 693.23 505.67 693.45 504.39 694.84 502.15 695.8 500.56 697.91 499.1 699.43 496.64 701.19 496.11 701.91 495.92 703.02 495.35 704.59 493.52 707.65 491.79 709.41 490.51 711.36 489.53 714.33 489.77 717.01 489.58 717.88 488.57 720.32 487.69 722.05 487.15 723.97 485.99 728.77 485.26 730.69 484.44 732.32 480.99 733.66 480.25 734.07 477.77 734.86 474 738.03 471.7 739.59 470.96 740.23 468.12 743.6 466.49 744.92 465.19 746.24 464.16 747.82 463.29 750.04 463.04 751.29 461.4 751.32 458.58 750.4 455.98 749.83 455.07 750.52 452.7 753.48 451.94 753.89 446.86 753.96 444.71 753.8 442.97 753.2 441.43 752.41 440.38 753.65 439.56 758.73 438.88 759.64 436.49 761.55 435 762.32 432.66 763.29 432.04 763.73 430.57 766.19 429.85 767.03 428.61 767.7 425.04 769.94 423.17 770.66 421.49 771.79 419.64 772.51 416.83 773.24 Z" id="信義區" data-countyname="臺北市"/>
<path d="M 212.17 721.18 210.5 720.91 208.54 720.84 205.93 720.96 203.14 721.49 199.62 722.72 197.1 724.37 195.35 726.16 193.59 727.54 189.79 730.96 188.23 732.47 185.02 735.86 180.33 741.27 176.38 746.2 173.36 750.09 170.63 753.78 167.49 757.07 165.81 758.6 163.72 760.19 161.37 761.79 154.42 765.92 150.73 767.6 148.69 768.28 146.79 768.75 143.81 769.12 141.96 769.18 138.8 769.09 137.85 768.77 136.7 767.88 134.4 764.58 132.85 761.78 131.76 760.19 129.62 757.8 127.58 755.25 126.95 754.82 124.88 753.92 124.84 752.8 124.09 750.1 122.58 747.49 121.81 745.75 121.55 744.05 121.42 741.75 120.95 738.33 121.07 736.61 120.98 732.26 120.79 729.48 120.55 728.82 120.38 726.58 120.42 723.94 120.95 721.69 121.55 717.47 121.64 716.13 121.97 715.06 118.34 706.85 117.32 704.69 117.35 701.8 116.93 700.27 116.38 699.65 115.12 698.82 114.25 697.75 113.6 696.24 111.35 691.57 109.45 688.29 107.2 683.99 106 680.25 105.16 678.38 103.28 673.74 102.71 671.78 102.24 669.37 102.21 666.78 102.33 665.55 102.77 663.77 104.04 660.4 105.41 658.04 106.75 656.14 108.32 654.37 109.41 653.12 110.87 651.93 113.37 649.48 117.11 646.19 122.03 641.59 123.09 641.07 131.53 640.36 138.88 640.49 139.64 640.39 143.52 640.59 146.18 640.54 148.16 640.1 152.49 638.16 155.85 636.51 164.49 632.5 165.7 631.8 169.95 628.66 171.26 627.13 173.32 624.35 176.7 620.6 177.35 619.34 179.66 617.36 182.12 614.77 182.5 614.13 187.09 616.39 188.96 617.18 193.61 618.17 195.04 618.33 197.3 619.19 199.13 619.73 201.15 619.8 201.84 619.31 202.99 619.11 204.34 619.54 205.59 619.58 204.12 621.01 202.16 622.52 201.65 623.44 198.35 634.31 196.24 642.61 195.82 643.67 194.04 649.68 191.63 657.63 190.5 661.04 191.06 661.65 190.64 662.85 190.33 664.45 188.94 668.44 187.79 671.33 180.66 684.57 180.57 689.76 180.76 690.1 186.96 696.82 191.14 701.27 192.66 702.73 196.23 705.71 199.35 708.9 208.99 711.66 211.93 712.6 212.21 716.67 212.17 721.18 Z" id="萬華區" data-countyname="臺北市"/>
<path d="M 290.63 630.53 290.55 635.67 290.3 646.43 290.16 654.3 289.8 671.31 289.73 675.49 288.84 675.7 280.87 675.41 278.18 675.09 268.71 673.77 258.64 668.83 257.51 669.09 251.16 680.14 250.87 681.11 247.79 696.17 247.87 697.12 250.75 700.98 259.62 713.48 261.02 715.34 261.39 715.57 269.06 722.24 273.72 726.37 278.89 731.5 282.75 735.2 288.07 740.19 291.78 743.83 292.87 744.75 297.08 748.95 300.52 752.21 302.77 754.73 304.68 757.8 306.43 761.23 301.22 762.38 299.96 763.04 297.64 764.66 294.35 766.71 286.48 771.16 285.3 769.59 284.05 768.33 282.74 767.38 281.19 766.66 279.1 766.28 275.98 765.92 274.18 765.35 270.83 763.9 269.24 763.08 265.61 760.94 264.41 760.12 263.19 758.91 259.96 754.51 255.47 749.12 253.33 746.23 252.26 744.48 250.85 742.51 248.15 738.18 245.53 735.09 242.3 732.22 240.34 730.77 238.53 729.59 235.28 727.9 230.48 726.01 227.31 725.14 223.66 723.84 219.55 722.56 214.86 721.56 212.17 721.18 212.21 716.67 211.93 712.6 208.99 711.66 199.35 708.9 196.23 705.71 192.66 702.73 191.14 701.27 186.96 696.82 180.76 690.1 180.57 689.76 180.66 684.57 187.79 671.33 188.94 668.44 190.33 664.45 190.64 662.85 191.06 661.65 190.5 661.04 191.63 657.63 194.04 649.68 195.82 643.67 196.24 642.61 198.35 634.31 201.65 623.44 202.16 622.52 204.12 621.01 205.59 619.58 206.69 619.3 208.77 618.29 210.79 613.75 217.35 615.89 220.57 616.73 231.19 619.19 232.53 619.18 234.65 619.42 236.07 619.43 237.84 619.2 239.42 620.12 243.03 620.68 250.52 621.02 257.33 621.45 261.57 622.17 265.66 623.26 277.35 626.81 287.28 629.66 290.63 630.53 Z" id="中正區" data-countyname="臺北市"/>
<path d="M 536.5 749.32 535.92 748.49 534 747.57 532.31 747.18 531.24 746.59 530.34 745.49 529.53 745.07 528.18 745.07 525.35 745.83 524.37 746.42 523.84 747.29 522.07 748.63 519.69 748.78 518.11 748.47 517.29 747.88 515.3 747.46 514.64 748.18 513.68 749.73 510.88 750.16 508.29 751.32 504.46 751.69 502.16 752.65 500.81 753.03 499.17 753.17 493.95 753.02 491.89 753.35 490.04 754.07 488.08 754.32 484.52 754.17 480.61 756.25 479.38 756.54 474.76 756.58 473.98 756.82 473.28 757.47 472.26 757.58 471.1 756.83 469.97 756.46 468.99 755.78 467.68 754.45 463.04 751.29 463.29 750.04 464.16 747.82 465.19 746.24 466.49 744.92 468.12 743.6 470.96 740.23 471.7 739.59 474 738.03 477.77 734.86 480.25 734.07 480.99 733.66 484.44 732.32 485.26 730.69 485.99 728.77 487.15 723.97 487.69 722.05 488.57 720.32 489.58 717.88 489.77 717.01 489.53 714.33 490.51 711.36 491.79 709.41 493.52 707.65 495.35 704.59 495.92 703.02 496.11 701.91 496.64 701.19 499.1 699.43 500.56 697.91 502.15 695.8 504.39 694.84 505.67 693.45 506.31 693.23 509.1 691.67 510.46 690.34 511.21 690.03 513.55 689.68 514.99 688.38 515.65 686.23 516.56 684.74 516.09 683.04 514.48 680.86 512.26 678.82 509.87 676.45 508.12 674.24 507.23 672.4 506.5 668.7 506.35 667.22 506.87 665.22 506.32 662.44 505.27 660.5 502.89 657.88 501.32 657.42 500.25 656.17 498.87 652.4 497.86 652.7 497.44 651.31 497.71 651.13 496.73 648.37 497.27 647.79 496.25 645.56 492.87 645.18 490.83 645.29 486.66 642.69 480.47 637.6 474.56 632.35 473.52 631.32 473 629.88 473.15 626.51 472.98 623.24 472.71 622.56 470.47 620.27 470.79 615.24 470.61 614.1 469.37 612.28 469.27 611.41 470.49 608.48 470.61 606.22 470.25 602.04 477.29 600.58 481.94 599.46 484.83 599.1 486.4 598.73 489.15 597.58 493.69 596.08 497.48 594.17 501.08 592.16 502.64 591.03 505.92 588.22 508.76 585.95 515.62 579.32 516.9 577.38 518.34 576.42 520.71 576.26 521.57 576.46 523.14 577.23 526.99 578.41 528.64 579.4 530.37 580.2 532.58 580.68 541.1 580.4 544.26 579.56 547.33 578.92 555.65 578.39 561.07 578 565.11 577.51 568.64 576.87 573.83 575.65 577.74 575.16 581.66 573.48 583.79 572.43 585.67 570.92 587.75 568.99 590.35 565.65 590.96 565.23 591.92 563.99 594.17 560.09 595.49 558.53 596.4 558.03 597.82 557.71 599.89 557.58 601.46 557.73 603.58 558.29 608.65 559.93 609.39 560.34 612.84 561.44 614.3 562.12 616.64 562.78 618.35 563.51 620.72 564.96 623.6 567.23 626.37 569.78 628.35 571.89 629.73 573.68 631.48 576.96 632.06 578.85 632.99 580.93 635.3 584.57 637.59 587.5 638.95 589.63 639.7 591.24 639.71 592.24 638.95 593.17 636.74 594.06 636.33 593.99 635.6 592.86 633.66 591.64 631.78 589.7 629.71 588.3 627.75 587.66 625.41 587.77 624.56 588.53 624.15 589.69 624.15 590.93 624.56 592.09 625.86 593.85 627.02 596.13 627.53 598.11 627.36 599.08 626.72 600.1 625.65 601.31 624.33 601.03 621.79 602.06 616.42 604.41 614.03 607.12 611.81 609.02 609.91 610.12 609.29 611.07 609.46 613.19 609.01 615.58 609.18 616.56 609.86 618.28 609.88 620.26 610.57 621.6 612.2 623.93 613.68 626.81 618.13 634.78 619.8 637.88 620.6 638.9 622.56 640.45 624.28 642.61 625.31 644.56 627.76 648.07 629.43 649.98 630.85 651.2 631.88 651.58 633.47 651.81 634.5 652.2 636.22 653.4 638.24 655.17 640.4 657.36 641.1 658.3 641.78 659.67 642.25 660.1 643.67 660.32 645.49 659.65 646.85 659.38 647.88 659.54 649.53 660.22 651.5 661.55 653.09 662.2 656.37 662.78 659.64 663.91 660.6 664.52 661.5 665.71 662.01 667.92 662.17 669.94 662.94 670.17 665.71 669.06 671.06 667.64 672.73 667.3 674.92 667.69 675.57 668.05 676.2 668.96 676.66 670.67 677.63 671.45 678.32 671.3 679.77 670.5 680.51 670.7 682.77 672.38 683.73 672.75 686.41 673.2 688.51 674.22 690.17 674.6 691.84 675.33 692.51 675.9 693.44 677.47 694.2 678.14 697.8 680.46 699.49 681.93 701.59 682.26 705.76 684.59 707.3 684.63 708.36 684.93 708.99 685.64 710.93 686.32 712.2 687.6 712.82 687.83 714.17 687.75 715.32 689.99 716.17 690.5 718.14 690.96 719.33 690.84 720.82 691.7 722.2 691.75 724.16 693.32 724.83 694.06 724.92 694.7 724.63 696.45 725.05 697.09 726.32 697.36 728.78 696.14 730.34 694.84 731.17 695.34 732.62 697.01 733.7 697.61 735.14 696.9 736.22 696.84 738.97 698.7 740.69 698.25 742.26 698.05 743.63 698.24 744.57 696.96 745.55 696.83 746.45 698.01 748.12 698.9 750.47 699.27 751.13 699.11 753.7 697.6 755.93 698.26 757.01 698.41 757.74 699.42 758.62 698.68 761.26 698.23 764.14 697.49 765.55 696.7 766.08 696.01 766.7 694.54 768.84 693.11 769.77 692.79 771.96 691.58 773.77 690.86 775.56 689.66 777.15 688.84 779.35 687.92 780.56 687.74 781.88 687.83 783.43 688.3 786.18 688.91 787.72 688.83 789.08 689.27 790.38 690.01 791.5 689.79 793.09 690.89 794.71 691.36 796.14 691.01 797.32 690.15 798.67 689.84 799 690.1 798.44 691.95 796.77 695.14 795.48 696.09 795.05 696.71 794.76 698.04 794.92 700 795.99 703.17 796.84 704.83 796.76 705.52 795.73 707.65 795.39 709.24 794.97 710.21 793.58 711 792.84 712.13 792.16 714.88 791.78 715.72 790.17 716.39 787.14 717.34 786.14 717.24 782.18 716.39 781.46 716.15 779.38 714.96 776.21 714.7 772.35 714.83 771.09 714.54 770.25 714.62 769.54 714.19 769.07 714.8 767.64 715.43 766.74 715.37 765.19 714.39 763.38 714.15 761.41 713.2 759.82 713.84 759.1 713.71 756.17 712.02 754.6 711.4 752.66 710.95 750.2 711.78 747.47 712.16 746.13 712.65 743.8 712.97 742.64 712.96 738.77 712.51 737.73 712.68 735.71 714.28 734.98 715.27 733.44 716.56 731.07 717.53 730.35 718.14 726.8 720.72 725.44 721.22 724.42 721.33 723.24 721.12 722.25 719.76 721.28 717.53 720.42 716.17 718.68 714.26 717.63 713.53 715 712.76 712.3 711.26 711.24 710.42 709.01 711.27 707.17 711.72 706.12 712.58 702.93 714.52 700.68 714.3 694.25 713.65 693.01 713.41 691.72 712.56 690.32 712.29 688.27 713.55 686.54 713.85 685.21 714.37 683.36 715.57 683.08 714.63 683.36 712.95 683.11 712.52 680.94 712.14 679.02 711.39 677.13 709.72 676.24 709.11 675.01 708.99 673.98 708.37 673.35 707.61 670.98 706.34 669.18 706.77 667.36 707.84 665.21 709.78 664.12 711.7 662.67 715.52 662.85 718.11 662.66 719.31 660.61 722.6 659.33 724.17 658.46 725.89 657.78 727.86 657.06 728.48 654.93 729.54 652.91 729.7 650.28 729.46 649.39 730.03 648.29 731.77 647.01 733.12 644.12 734.46 641.76 734.93 638.25 736.59 636.72 738 635.96 738.3 634.44 738.26 632.94 737.87 629.41 735.96 627.59 735.53 625.79 734.15 624.66 733.89 623.63 734.03 622.13 734.92 620.45 735.05 616.73 734.23 615.45 734.28 613.46 733.77 612.08 732.58 611.23 731.25 609.26 729.33 608.41 728.99 604.78 729.68 602.55 730.25 599.99 730.59 598.57 731.09 597.78 731.06 596.81 730.57 595.81 729.45 595.06 729.31 593.44 729.78 592.39 729.51 590.46 728.43 589.59 728.24 586.84 728.43 585.98 728.17 584.41 727.06 583.48 725.29 582.74 724.35 582.17 724.3 580.36 725.93 579.24 728.4 578.35 730 577.53 730.09 568 730.65 566.4 731.05 562.73 731.34 561.38 733.46 560.5 735.53 560.05 737.61 558.66 740.05 558.34 741.93 558.51 743.02 558.06 744.95 557.32 746.41 556.46 746.93 555.06 747.08 552.91 746.45 551.84 746.54 549.87 747.67 548.21 747.75 546.72 747.28 546 747.51 542.74 747.87 539.6 747.68 537.51 747.8 536.73 748.58 536.5 749.32 Z" id="南港區" data-countyname="臺北市"/>
<path d="M 385.27 631.51 382.32 632.25 376.95 633.34 373.89 634.17 370.78 634.51 367.11 634.3 360.2 633.52 347.77 631.96 342.65 631.38 341.91 631.42 333.25 632.58 332.36 632.66 332.66 621.72 332.83 620.02 333.42 598.08 333.65 584.39 333.81 577.78 333.93 570.81 334 563.2 334.13 553.48 334.25 548.28 331.67 546.8 325.47 543.38 323.8 542.61 321.89 541.91 320.29 541.53 317.58 541.28 314.16 541.11 313.54 540.89 312.58 539.98 312.17 539 312.12 537.04 312.21 532.14 312.85 531.77 326.17 532.23 347.69 532.85 351.31 532.7 352.14 531.81 352.86 530.24 353.96 529.65 358.98 528.19 361.68 527.2 364.01 526.11 365.07 525.4 365.39 524.11 366.05 515.26 371.4 516.01 375.8 516.98 380.65 518.31 386.06 520.24 389.31 521.75 391.23 522.8 394.76 524.47 396.47 525.67 397.84 526.42 399.4 527.01 400.95 527.4 404.02 527.45 406.41 526.96 412.09 523.82 423.22 516.75 429.05 513.1 430 512.76 431.59 512.77 433.07 513.48 434.57 514.8 435.9 516.56 436.87 518.26 437.82 520.35 439.52 524.77 439.8 525.9 440.69 531.22 440.65 533.96 440.13 537.67 438.55 542.8 437.35 545.4 431.71 554.39 430.6 556 429.99 557.93 430.09 560.15 430.68 562.64 432.54 566.36 433.49 568.79 435.73 575.73 436.43 578.45 437.95 586.42 438.43 589.56 438.42 593.01 438.27 594.85 437.47 598.2 437.18 600.88 437.56 603.01 438.16 604.33 439.57 605.66 442.3 606.45 443.86 606.52 447.4 606.27 450.67 605.93 455.17 605.17 458.01 604.76 470.25 602.04 470.61 606.22 470.49 608.48 469.27 611.41 469.37 612.28 470.61 614.1 470.79 615.24 470.17 615.08 463.51 615.23 462 615.08 456.12 615.5 451.18 615.36 438.08 615.33 436.71 615.14 431.46 615.74 429.52 616.07 424.82 617.22 418.56 618.85 415.9 619.71 413.29 620.69 407.9 622.4 403.39 624.07 397.75 626.53 394.16 628.25 390.1 629.95 388.32 630.6 385.27 631.51 Z" id="松山區" data-countyname="臺北市"/>
<path d="M 182.5 614.13 185.26 608.3 186.52 605.47 188.12 600.89 188.56 599.3 189.19 591.18 188.98 589.8 186.99 585.14 185.92 582.32 185.49 580.5 185.38 577.5 186.31 572.04 186.73 571.02 188.83 563.25 190.83 556.94 191.3 545.36 191.69 537.19 191.63 534.86 191.38 532.6 190.72 530.22 188.99 525.18 189 524.15 188.36 519.89 186.99 515.65 185.19 511.13 182.64 505.71 193.69 504.75 196.21 504.63 198.48 503.37 201.52 503.57 202.2 502.89 203.9 502.93 208.37 502.37 213.34 500.08 215.62 498.71 214.92 496.11 216.52 495.5 218.7 500.77 221.67 499.59 225.99 498.03 226.77 497.59 229.93 499.49 231.56 500.61 235.32 502.73 240.47 504.64 242.83 505.44 245.31 506.51 249.16 508.51 250.76 509.57 248.61 513.06 246.69 517.13 244.77 521.35 242.97 524.86 242.44 526.42 241.63 529.49 240.56 535.46 239.69 542.81 238.91 549.09 238.56 551.25 237.35 557.2 237.39 558.87 237.65 560.89 238.29 563.22 239.93 567.37 243.1 574.84 243.63 576.86 243.71 579.1 243.67 582.65 242.88 595.8 242.38 602.42 242.25 606.54 242.02 608.95 241.4 611.86 240.83 613.47 239.43 616.15 238.69 617.17 237.38 618.51 236.07 619.43 234.65 619.42 232.53 619.18 231.19 619.19 220.57 616.73 217.35 615.89 210.79 613.75 208.77 618.29 206.69 619.3 205.59 619.58 204.34 619.54 202.99 619.11 201.84 619.31 201.15 619.8 199.13 619.73 197.3 619.19 195.04 618.33 193.61 618.17 188.96 617.18 187.09 616.39 182.5 614.13 Z" id="大同區" data-countyname="臺北市"/>
<path d="M 290.63 630.53 287.28 629.66 277.35 626.81 265.66 623.26 261.57 622.17 257.33 621.45 250.52 621.02 243.03 620.68 239.42 620.12 237.84 619.2 236.07 619.43 237.38 618.51 238.69 617.17 239.43 616.15 240.83 613.47 241.4 611.86 242.02 608.95 242.25 606.54 242.38 602.42 242.88 595.8 243.67 582.65 243.71 579.1 243.63 576.86 243.1 574.84 239.93 567.37 238.29 563.22 237.65 560.89 237.39 558.87 237.35 557.2 238.56 551.25 238.91 549.09 239.69 542.81 240.56 535.46 241.63 529.49 242.44 526.42 242.97 524.86 244.77 521.35 246.69 517.13 248.61 513.06 250.76 509.57 254.38 512.25 255.55 513.48 257.16 515.52 258.75 517.81 260.59 520.68 261.68 520.2 262.81 519.24 263.34 517.45 262.81 515.14 261.44 511.58 261.06 510.19 260.69 507.04 259.37 502.16 257.86 498.84 257.58 496.38 257.6 495.22 258.55 493.23 259.27 492.49 260.32 492.4 261.29 491.14 262.24 492.77 263 493.46 263.99 493.3 266.13 492.17 267.52 491.14 267.75 490.41 267.54 489.24 271.43 484.94 272.47 484.32 273.69 483.25 275.17 481.32 276.35 481.98 280.55 480.83 282.03 480.16 283.13 479.35 283.8 478.39 284.79 475.82 286.51 473.74 288.23 472.16 289.46 469.98 290.3 469.16 292.34 468.37 293.26 467.58 294.46 467.35 295.92 465.6 297.38 464.12 300.37 461.38 301.96 459.81 304.51 458.33 306.52 456.92 308.6 455.8 309.98 455.28 311.29 454 312.42 453.57 313.69 453.39 316.79 452.39 320.54 451.94 320.94 451.51 321.3 450.11 322.39 449.39 323.28 449.34 324.37 450.07 325.72 452.7 327.21 453.58 328.16 453.75 332.41 453.57 333.18 453.73 334.52 454.93 335.56 456.72 335.92 458.05 336.75 458.94 338.21 458.68 339.41 458.72 341.59 457.9 342.43 457.81 346.83 457.79 347.89 457.36 349.45 456.41 352.29 455.39 352.95 454.9 354.3 453.25 357.09 453.16 360.11 453.63 361.13 453.54 362.18 453.08 364.17 451.11 364.55 453.85 366.21 456.41 368.34 459.92 369.17 460.98 371.85 463.11 373.49 464.66 374.76 465.63 376.14 466.29 380.06 467.47 383.22 467.98 383.73 468.8 382.88 469.89 382.04 472.04 382.36 473.8 383.4 475.88 384.06 476.87 385.44 478.4 385.18 479.22 385.35 480.71 385.79 481.77 387.17 480.95 387.75 480.23 390.15 479.38 391.21 479.3 392.58 479.6 395.73 480.59 397.76 481.47 398.29 482.01 399.42 484.58 402.41 491.99 403.29 494.02 403.93 495.1 405.38 497.05 409.92 502.37 411.06 503.36 413.26 504.25 433.76 509.85 435.6 510.96 436.53 511.85 439.41 515.56 441.89 518.96 441.68 519.27 437.82 520.35 436.87 518.26 435.9 516.56 434.57 514.8 433.07 513.48 431.59 512.77 430 512.76 429.05 513.1 423.22 516.75 412.09 523.82 406.41 526.96 404.02 527.45 400.95 527.4 399.4 527.01 397.84 526.42 396.47 525.67 394.76 524.47 391.23 522.8 389.31 521.75 386.06 520.24 380.65 518.31 375.8 516.98 371.4 516.01 366.05 515.26 365.39 524.11 365.07 525.4 364.01 526.11 361.68 527.2 358.98 528.19 353.96 529.65 352.86 530.24 352.14 531.81 351.31 532.7 347.69 532.85 326.17 532.23 312.85 531.77 312.21 532.14 312.12 537.04 312.17 539 312.58 539.98 313.54 540.89 314.16 541.11 317.58 541.28 320.29 541.53 321.89 541.91 323.8 542.61 325.47 543.38 331.67 546.8 334.25 548.28 334.13 553.48 334 563.2 333.93 570.81 333.81 577.78 333.65 584.39 333.42 598.08 332.83 620.02 332.66 621.72 332.36 632.66 323.85 633.74 316.68 633.63 308.15 633.4 303.87 633.19 300.81 632.86 297.36 632.17 293.38 631.28 290.63 630.53 Z" id="中山區" data-countyname="臺北市"/>
<path d="M 530.47 367.98 530.07 368.22 529.75 369.4 529.73 370.51 530.15 371.35 532 373.21 532.91 374.73 533.24 375.73 533.29 377.8 533.62 378.98 534.38 380.22 535.57 381.68 536.44 383.41 537.37 385.74 537.98 386.27 539.71 387.16 540.79 388.03 543.19 387.99 544.04 388.34 545.43 389.86 546.64 389.96 547.67 389.27 550.01 389.75 552.46 390.1 554.74 389.98 557.1 390.4 558.24 390.89 559.36 391.97 560.2 392.38 562.34 392.72 565.15 393.98 567.99 393.97 570.74 394.16 572.44 395.32 573.23 395.53 575.44 395.61 577.53 396.26 578.63 396.85 581.14 398.59 582.82 399.45 586 401.74 586.65 402.35 589.12 403.02 591.46 404.03 593.43 404.42 596.97 404.35 598.7 404.58 599.91 404.91 601.25 405.67 604.72 406.82 606.07 407.41 607.91 409.6 609.08 410.71 609.89 412.34 610.76 413.13 611.03 414.58 612.8 416.59 613.52 417.8 615.81 418.77 617.45 419.99 618.23 421.28 619.77 422.03 620.95 422.87 622.54 424.29 623.86 425.14 625.76 426.69 627.81 427.56 629.13 428.54 629.86 429.37 631.18 432 631.65 432.34 634.53 433.23 635.96 433.82 636.98 433.77 639.17 433.21 641.21 433.14 643.92 433.32 644.58 433.53 645.41 434.36 647.19 437.02 647.31 437.84 646.52 438.89 643.92 440.79 642.79 444.79 642.76 446.29 644.55 448.59 645.18 451.15 645.86 452.41 647.56 454.7 647.55 455.43 646.59 456.32 646.23 457.3 646.28 458.33 647.02 459.29 648.51 460.76 649.87 462.44 652.08 464.38 652.97 465.43 654.24 466.48 654.86 468.1 655.13 471.55 656.33 473.79 655.68 475.1 654.93 476.13 653.8 478.3 652.36 480.03 652.17 481.02 652.71 482.91 653.84 484.44 653.89 486.1 652.7 488.76 652.07 489.47 651.05 490.03 650.12 490.02 646.98 490.61 646.1 491.07 644.71 492.61 644.36 493.29 643.12 494.59 641.56 495.43 641.41 495.82 639.91 496.92 639.26 498.59 639.63 499.6 640.62 501.13 640.36 502.66 639.07 503.44 638.31 503.55 638.13 504.3 638.36 505.24 639.62 505.75 640.76 504.94 641.56 503.86 642.82 502.98 642.66 504.9 642.28 506.19 641.56 507.31 640.08 508.15 636.45 508.96 635.76 509.58 635.5 510.82 635.76 513.03 635.63 514.5 634.73 516.46 634 518.94 633.04 519.36 631.09 518.3 630.11 518.19 628.91 519.11 628.71 520.31 628.1 521.88 626.08 523.79 625.72 524.67 625.81 526.39 626.55 527.86 627.63 528.58 628.25 529.68 628.27 533.21 628.48 535.57 629.07 536.76 629.25 538.22 629.03 538.47 627.51 538.25 627.05 538.55 626.45 540.12 624.78 541.48 623.42 542.14 621.87 541.9 621.37 543.34 619.38 544.12 618.26 545.51 617.58 545.88 615.07 545.62 614.16 546.21 614.19 547.65 615.37 549.56 615.62 550.34 615.4 552.44 614.93 553.72 615.47 555.25 614.71 555.45 614.09 555.15 613.14 554.08 612.37 552.56 610.87 552.81 610.63 553.78 610.67 555.62 609.92 557.08 609.42 558.51 608.65 559.93 603.58 558.29 601.46 557.73 599.89 557.58 597.82 557.71 596.4 558.03 595.49 558.53 594.17 560.09 591.92 563.99 590.96 565.23 590.35 565.65 587.75 568.99 585.67 570.92 583.79 572.43 581.66 573.48 577.74 575.16 573.83 575.65 568.64 576.87 565.11 577.51 561.07 578 555.65 578.39 547.33 578.92 544.26 579.56 541.1 580.4 532.58 580.68 530.37 580.2 528.64 579.4 526.99 578.41 523.14 577.23 521.57 576.46 520.71 576.26 518.34 576.42 516.9 577.38 515.62 579.32 508.76 585.95 505.92 588.22 502.64 591.03 501.08 592.16 497.48 594.17 493.69 596.08 489.15 597.58 486.4 598.73 484.83 599.1 481.94 599.46 477.29 600.58 470.25 602.04 458.01 604.76 455.17 605.17 450.67 605.93 447.4 606.27 443.86 606.52 442.3 606.45 439.57 605.66 438.16 604.33 437.56 603.01 437.18 600.88 437.47 598.2 438.27 594.85 438.42 593.01 438.43 589.56 437.95 586.42 436.43 578.45 435.73 575.73 433.49 568.79 432.54 566.36 430.68 562.64 430.09 560.15 429.99 557.93 430.6 556 431.71 554.39 437.35 545.4 438.55 542.8 440.13 537.67 440.65 533.96 440.69 531.22 439.8 525.9 439.52 524.77 437.82 520.35 441.68 519.27 441.89 518.96 439.41 515.56 436.53 511.85 435.6 510.96 433.76 509.85 413.26 504.25 411.06 503.36 409.92 502.37 405.38 497.05 403.93 495.1 403.29 494.02 402.41 491.99 399.42 484.58 398.29 482.01 397.76 481.47 395.73 480.59 392.58 479.6 391.21 479.3 390.15 479.38 387.75 480.23 387.17 480.95 385.79 481.77 385.35 480.71 385.18 479.22 385.44 478.4 384.06 476.87 383.4 475.88 382.36 473.8 382.04 472.04 382.88 469.89 383.73 468.8 383.22 467.98 380.06 467.47 376.14 466.29 374.76 465.63 373.49 464.66 371.85 463.11 369.17 460.98 368.34 459.92 366.21 456.41 364.55 453.85 364.17 451.11 365.79 450.64 369.32 451.12 371.98 450.57 373.01 449.9 373.28 446.56 373.69 445.47 374.6 444.71 376.09 444.62 378.6 443.6 380.18 441.82 380.18 440.46 381.44 437.57 382.36 436.25 383.56 436.09 384.94 436.23 385.34 435.83 385.71 434.15 386.89 430.64 388.78 428.92 389.2 427.04 389.53 426.93 391.14 428.43 392.44 429.11 394.27 429.21 395.25 428.72 395.99 428.7 398.05 429.55 401.86 429.7 404.16 429.05 405.84 428.06 407.69 427.46 409.21 427.63 410.9 427.35 412.53 426.23 413.52 425.94 416.99 425.61 420.2 425.59 421.32 424.99 422 422.5 423.49 419.19 424.51 417.4 427.46 413.3 428.08 412.29 428.47 411.08 428.99 408.44 429.99 405.47 430.4 404.77 431.97 403.22 433.6 401.22 436.06 400.63 436.63 400.31 439.94 399.83 442.58 398.95 444.69 396.96 445.61 396.27 446.25 396.18 448.86 396.54 450.74 395.97 452.36 395.69 457.49 395.82 458.44 396.96 459.47 399.33 460.24 399.71 463.72 401.89 465.31 402.62 466.8 402.65 467.28 402.22 469.66 397.4 470.84 396.1 471.71 395.47 473.59 395.16 475.59 396.01 477.05 396.16 479.18 395.53 479.95 395.1 481.26 393.92 483.39 393.58 484.48 392.98 485.81 391.8 486.73 390.49 490.57 389.41 490.78 388.42 491.63 387.29 494.02 383.77 494.26 382.75 495.81 380.83 496.79 379.02 497.76 376.83 498.44 374.75 499.53 373.02 499.94 371.57 501.13 369.46 502.49 368.78 505.36 368.9 506.48 368.76 508.02 367.75 509.4 369.82 509.92 369.96 510.98 369.3 512.73 368.65 514.79 367.2 517.39 366.61 519.29 365.9 521.41 364.51 522.2 364.18 522.86 364.4 524.36 366.28 525.48 366.53 526.75 365.38 527.32 365.49 530.47 367.98 Z" id="內湖區" data-countyname="臺北市"/>
<path d="M 455.65 57.74 457.27 58.14 458.88 57.74 459.99 57.97 461.17 59.29 462.42 60.19 464.34 60.62 465.52 61.16 466.57 62.06 467.36 62.37 467.95 62.01 468.87 59.91 470.08 58.74 471.03 58.16 472.62 57.65 473.93 57.65 476.47 57.92 477.96 58.48 480.07 58.82 482.22 58.97 484.91 60.54 482.34 62.45 481.63 63.55 481.47 64.71 480.86 66.27 481.2 67.1 482.19 68.01 484.07 69.17 485.02 70.79 484.41 72.49 485.25 74.44 484.76 75.75 485.7 76.85 485.81 78.28 485.14 79.46 484.97 80.26 485.85 81.69 485.8 82.72 484.65 83.18 483.46 82.92 482.2 83.39 481.71 84.13 482.2 85.84 482.24 86.66 481.85 87.6 480.87 88.29 479.27 89.1 477.64 91.84 477.31 93.05 477.6 94.17 478.65 95.6 479.92 96.96 480.99 98.72 481.1 99.43 480.51 101.72 480.1 102.31 478.6 102.57 477.44 103.02 476.85 103.62 475.72 106 475.58 107.13 474.08 108.4 473.84 109.46 474.42 111.13 475.53 112.33 475.82 113.04 475.39 114.61 476.75 116.1 478.04 116.49 478.82 117.09 479.09 117.95 478.82 119.25 478.99 120.26 480.56 122.95 483.08 125.68 483.93 128.22 482.55 129 482.03 129.93 481.87 130.92 482 133.22 481.59 134.22 480.42 135.76 478.97 136.96 478.2 137.96 477.1 140.05 475.26 141.19 473.98 142.34 473.18 143.51 471.08 145.3 469.67 145.88 467.81 147.19 466.41 149.23 464.42 151.3 461.85 152.57 460.99 153.35 460.19 154.72 459.98 157.73 460.55 159.15 460.52 159.83 459.16 164.94 459.32 165.99 462.12 168.63 464.78 170.66 466.16 171.32 470.28 172.03 472.58 171.93 473.61 171.7 476.76 171.75 478.26 171.96 479.97 171.93 481.16 171.39 481.62 170.87 482.83 170.54 483.54 171.46 483.9 172.89 484.27 173.43 485.47 173.87 487.7 174.26 489.2 175.26 492.24 177.79 494.96 179.35 497.11 179.77 498.31 179.69 499.75 180.27 500.51 181.29 501.63 181.47 502.83 181.31 504.75 180.6 506.34 179.37 507.77 178.49 508.15 178.5 508.45 179.27 509.9 185.53 510.53 187.72 510.68 189.26 510.52 190.47 510.84 191.71 513.28 196.4 515.08 200.39 515.59 202.02 514.66 204.29 514.93 205.74 515.78 207.92 515.51 209.79 514.83 211.43 513.5 212.41 511.9 213.16 511.22 214.76 510.67 217.42 510.22 218.35 508.24 219.94 506.78 220.73 506.3 221.61 507.38 222.76 509.11 223.74 512.06 225.19 514.51 226.79 515.62 227.34 518.29 227.61 519.98 227.92 522.06 229.38 523 230.8 523.31 231.91 523.54 234.62 523.48 237.54 523.71 238.42 526.65 240.97 529.4 245.09 530.6 247.82 531.72 251.02 531.7 252.54 530.79 255.51 530.89 256.09 531.99 257.4 534.55 258.67 535.29 259.37 536.5 260.97 537.52 262.76 540.02 265.26 540.81 268.03 541.79 268.61 546.78 270.41 549.4 271.99 550.2 273.28 552.32 275.41 553.33 277.22 555.1 277.67 557.28 278.71 559.98 280.45 561.64 282.09 562.54 283.82 563.27 283.72 564.7 282.91 565.58 281.95 565.98 280.99 566.5 280.77 568.72 281.65 567.76 282.51 567.4 283.19 567.35 285.18 567.07 286.32 564.44 290.08 564.53 291.65 564.22 292.67 564.66 294.47 565.58 297.02 565.44 297.92 564.73 299.82 564.4 301.71 564.41 303.35 564.71 304.52 567.73 305.14 570.91 305.56 572.86 305.5 575.94 306.27 576.86 306.62 575.8 310.47 572.61 313.7 571.69 314.77 569.64 316.47 568.29 318.08 565.98 319.76 564.55 321.69 564.33 322.7 562.65 323.68 561.42 323.6 560.74 324.44 559.85 324.52 558.14 322.58 557.41 321.96 556.58 322.01 555.17 322.68 553.53 322.61 552.22 326.94 551.43 329.11 551.46 333.37 550.22 336.17 549.89 338.58 548.96 340.1 548.3 340.7 547.06 343.3 546.24 344.37 544.96 344.03 543.81 344.34 542.64 345.19 542.26 347.31 540.74 350.58 540.16 352.57 538.87 355.5 538.12 356.33 537.12 358.22 536.95 359.23 537.41 360.12 536.62 361.24 535.26 362.43 534.69 363.65 533.2 365.43 531.63 367.68 530.47 367.98 527.32 365.49 526.75 365.38 525.48 366.53 524.36 366.28 522.86 364.4 522.2 364.18 521.41 364.51 519.29 365.9 517.39 366.61 514.79 367.2 512.73 368.65 510.98 369.3 509.92 369.96 509.4 369.82 508.02 367.75 506.48 368.76 505.36 368.9 502.49 368.78 501.13 369.46 499.94 371.57 499.53 373.02 498.44 374.75 497.76 376.83 496.79 379.02 495.81 380.83 494.26 382.75 494.02 383.77 491.63 387.29 490.78 388.42 490.57 389.41 486.73 390.49 485.81 391.8 484.48 392.98 483.39 393.58 481.26 393.92 479.95 395.1 479.18 395.53 477.05 396.16 475.59 396.01 473.59 395.16 471.71 395.47 470.84 396.1 469.66 397.4 467.28 402.22 466.8 402.65 465.31 402.62 463.72 401.89 460.24 399.71 459.47 399.33 458.44 396.96 457.49 395.82 452.36 395.69 450.74 395.97 448.86 396.54 446.25 396.18 445.61 396.27 444.69 396.96 442.58 398.95 439.94 399.83 436.63 400.31 436.06 400.63 433.6 401.22 431.97 403.22 430.4 404.77 429.99 405.47 428.99 408.44 428.47 411.08 428.08 412.29 427.46 413.3 424.51 417.4 423.49 419.19 422 422.5 421.32 424.99 420.2 425.59 416.99 425.61 413.52 425.94 412.53 426.23 410.9 427.35 409.21 427.63 407.69 427.46 405.84 428.06 404.16 429.05 401.86 429.7 398.05 429.55 395.99 428.7 395.25 428.72 394.27 429.21 392.44 429.11 391.14 428.43 389.53 426.93 389.2 427.04 388.78 428.92 386.89 430.64 385.71 434.15 385.34 435.83 384.94 436.23 383.56 436.09 382.36 436.25 381.44 437.57 380.18 440.46 380.18 441.82 378.6 443.6 376.09 444.62 374.6 444.71 373.69 445.47 373.28 446.56 373.01 449.9 371.98 450.57 369.32 451.12 365.79 450.64 364.17 451.11 362.18 453.08 361.13 453.54 360.11 453.63 357.09 453.16 354.3 453.25 352.95 454.9 352.29 455.39 349.45 456.41 347.89 457.36 346.83 457.79 342.43 457.81 341.59 457.9 339.41 458.72 338.21 458.68 336.75 458.94 335.92 458.05 335.56 456.72 334.52 454.93 333.18 453.73 332.41 453.57 328.16 453.75 327.21 453.58 325.72 452.7 324.37 450.07 323.28 449.34 322.39 449.39 321.3 450.11 320.94 451.51 320.54 451.94 316.79 452.39 313.69 453.39 312.42 453.57 311.29 454 309.98 455.28 308.6 455.8 306.52 456.92 304.51 458.33 301.96 459.81 300.37 461.38 297.38 464.12 295.92 465.6 294.46 467.35 293.26 467.58 292.34 468.37 290.3 469.16 289.46 469.98 288.23 472.16 286.51 473.74 284.79 475.82 283.8 478.39 283.13 479.35 282.03 480.16 280.55 480.83 276.35 481.98 275.17 481.32 273.69 483.25 272.47 484.32 271.43 484.94 267.54 489.24 267.75 490.41 267.52 491.14 266.13 492.17 263.99 493.3 263 493.46 262.24 492.77 261.29 491.14 260.32 492.4 259.27 492.49 258.55 493.23 257.6 495.22 257.58 496.38 257.86 498.84 259.37 502.16 260.69 507.04 261.06 510.19 261.44 511.58 262.81 515.14 263.34 517.45 262.81 519.24 261.68 520.2 260.59 520.68 258.75 517.81 257.16 515.52 255.55 513.48 254.38 512.25 250.76 509.57 249.16 508.51 245.31 506.51 242.83 505.44 240.47 504.64 235.32 502.73 231.56 500.61 229.93 499.49 226.77 497.59 225.99 498.03 221.67 499.59 218.7 500.77 216.52 495.5 214.92 496.11 215.62 498.71 213.34 500.08 208.37 502.37 203.9 502.93 202.2 502.89 201.52 503.57 198.48 503.37 196.21 504.63 193.69 504.75 182.64 505.71 180.25 498.19 177.73 493.17 174.85 487.2 173.29 484.61 171.76 482.45 166.2 474.21 163.87 470.87 161.8 468.67 157.63 465.1 155.61 463.28 150.26 458.69 147.79 456.44 143.42 452.66 140.2 450.16 136.46 447.09 133.15 444.2 130.93 442.09 126.9 438.11 124.86 435.85 123.11 434.1 121.76 433.02 118.53 431.25 111.53 426.79 108.84 425.88 102.06 423.21 100.73 422.79 95.65 420.24 93.94 419.28 92.44 418.74 81.78 416.73 74.14 416.44 71.07 416.45 67.48 416.34 62.38 416.01 54.86 415.98 51.32 416.05 44.5 415.84 40.6 415.86 36.28 415.76 35.19 415.5 31.9 414.19 27.69 412.75 25.56 411.87 22.07 409.99 18.67 408.23 17.22 407.36 5.09 398.41 2.71 396.17 1.68 394.95 1.06 392.53 1 390.4 1.16 389.03 2.4 385.14 2.99 383.01 4.29 379.85 5.47 377.35 7.09 375.38 8.17 373.46 10.37 369.52 11.02 368.03 12.16 366.15 14.17 362.33 15.44 360.24 18.73 363.93 21.1 365.88 24.59 368.46 26.52 369.5 30.03 372 31.39 372.74 35.25 375.49 38.2 377.38 42.46 379.32 46.02 380.57 49.64 381.1 52.68 381.11 56.36 381.35 58.98 381.34 63.61 380.67 67.45 379.49 70.31 378.47 74.53 376.7 77.14 375.76 80.33 374.75 90.35 372.38 95.17 370.86 100.7 369.23 103.46 368.52 110.8 366.43 115.42 364.79 119.78 363.73 122.9 363.45 126.41 363.61 128.16 363.84 132.2 364.96 134.46 366.07 136.82 367.52 139.49 369.33 144.48 372.36 145.91 373.29 147.35 374.93 149.09 377.83 150.41 381.14 151.2 382.85 152.61 388.5 153.48 395.4 153.74 402.7 153.76 406.97 153.6 411.83 153.04 420.35 153.19 422.75 153.88 427.34 154.56 428.9 155.48 429.46 157.71 430.4 161.56 431.61 164.43 432.97 167.31 434.8 170.99 435.59 174.67 435.81 178.43 435.51 183.54 435.56 186.79 435.72 188.82 435.96 191.41 436.44 196.25 438.06 197.28 438.06 199.05 437.41 202.52 434.24 204.71 432.56 206.55 431.54 214.33 428.91 214.92 428.56 220.12 426.85 222.41 426.2 223.7 425.6 226.09 425.05 228.56 424.79 230.19 424.02 231.53 422.07 232.35 419.91 231.86 417.62 232.01 416.98 234.85 410.05 235.62 408.75 237.67 407.55 239.34 406.99 240.87 405.82 245.14 397.8 246.06 395.76 246.06 393.94 245.51 389.91 245.61 388 246.95 387.31 249.54 386.51 250.55 385.82 251.17 384.17 251.23 380.84 251.81 380.28 254.43 379.81 259.29 379.09 260.87 378.66 261.63 377.75 262.88 375.07 263.42 373.03 263.23 372.21 262.05 369.78 260.68 366.67 260.45 364.59 260.61 362.16 260.23 360.43 258.43 358.95 255.72 357.07 255.06 356.21 254.78 355.21 255.36 353.04 256.56 350.75 256.94 350.32 258.24 347.03 259.87 344.83 262.74 343.32 263.26 342.41 263.17 341.11 262.66 339.16 263.53 336.61 263.67 335.78 264.58 334.14 266.16 332.06 268.31 331.31 272.74 331.21 275.03 330.72 277.53 329.34 278.1 328.01 278.37 326.06 278.62 322.08 279.28 321.2 281.69 320.48 282.79 319.92 283.62 319.11 284.48 317.19 284.8 315.42 284.84 313.75 284.26 312.01 284.07 310.85 283.89 306.36 283.4 303.84 283.01 303.01 282.49 299.61 282.64 298.63 284.03 296.11 283.55 294.82 283.58 292.85 282.65 292.09 280.91 291.37 280.7 290.66 281.4 287.98 281.54 285.36 281.83 284.5 283.08 283.27 283.73 281.36 284.38 280.31 285.22 279.47 286.26 279.31 287.99 279.86 288.69 279.79 290.03 279.02 291.92 278.85 292.62 278.37 293.08 276.66 293.69 275.87 295.82 275.4 296.89 275 297.44 274.29 297.54 272.88 298.24 272.37 299.12 272.27 301.43 272.42 304.34 272.36 305.32 271.73 306.04 270.71 307.05 270.01 309.92 269.56 310.64 269.23 311.39 268.21 312.87 267.77 314.73 267.47 315.14 266.61 315.44 265.04 316.28 264.06 317.72 263.23 319.47 263.18 321.87 264.41 322.86 264.22 323.54 263.28 324.79 262.58 325.05 261.28 325.99 259.96 326.98 259.45 328.9 259.69 330.37 260.21 331.2 261.23 332.56 262.23 335.42 262.15 337.43 263.06 339.7 263.14 340.48 261.83 340.39 260.77 340.98 259.57 343.76 258.06 346.9 256.7 347.81 256.18 348.49 255.32 349.55 253.06 351.58 250.96 351.7 250.08 351.26 249.6 350.89 248.47 351.07 247.38 351.64 246.39 353.18 244.76 352.54 243.01 352.3 241.62 352.52 239.64 353.27 236.98 353.76 234.42 353.94 232.23 355.61 230.61 355.9 229.98 356.19 226.06 356.75 225.45 357.93 225.43 359.02 224.03 361.22 221.89 362.13 220.66 365.25 217.36 366.63 216.44 368.03 214.71 368.42 213.76 368.81 210.9 370.27 208.88 370.76 207.74 371.56 205.11 372.75 202.39 375.62 196.34 376.88 194.66 377.92 192.73 378.98 191.67 380.46 190.6 382.22 189.64 384.24 189.09 387.54 188.73 389.1 187.82 391.74 185.39 392.4 185.1 394.63 184.85 396.63 183.86 398.26 181.28 398.51 180.09 397.89 176.17 397.94 175.36 399.55 172.14 400.48 169.07 401.84 165.56 402.3 162.48 402.91 161.27 404.02 160.23 404.66 159.1 404.92 158.1 404.65 156.97 405.66 155.73 405.97 154.63 405.79 153.15 405.26 151.85 403.65 149.24 401.66 147.25 399.58 142.26 398.5 140.79 398.11 139.13 397.54 138.18 397.39 137.04 397.92 133.89 398.69 132.43 400.55 130.34 402.06 128.12 403.44 125.66 404.81 124.58 407.66 123.82 409.53 123.04 411.72 123.31 413.38 122.32 414.98 120.42 416.01 118.7 417.48 113.89 417.08 111.62 418.4 109.53 420.73 108.87 421.52 108.21 421.9 105.81 421.49 104.43 421.84 103.72 424.36 102.33 424.77 101.37 424.44 97.94 423.08 96.83 422.99 95.22 423.55 94.49 425.06 93.85 425.35 92.84 424.7 92.26 423.38 90.08 421.94 88.93 421.54 87.07 421.38 85.44 420.69 83.69 420.97 83.01 423.23 80.58 423.79 79.68 426.53 78.86 428.01 76.88 431.84 74.93 432.27 74.43 433.81 74.21 436.17 73 437.97 71.91 438.54 70 439.34 69.05 440.15 67.52 440.38 66.25 442.11 65.67 443.29 65.51 444.24 64.78 444.89 63.72 445.38 62.35 446.38 61.76 448.36 61.35 449.24 60.59 450.07 60.26 451.78 60.6 453.37 60.66 453.97 60.42 454.02 58.65 454.23 58.09 455.06 57.64 455.65 57.74 Z" id="士林區" data-countyname="臺北市"/>
<path d="M 7.27 334.41 10.32 334.33 11.3 334.44 12.93 334.29 15.25 334.33 17.03 334.15 17.84 333.64 17.91 332.59 18.63 331.97 20.47 331.85 23.25 331.38 25.68 330.58 26.61 330.72 30.33 329.38 29.31 327.6 29.86 326.13 29.98 324.6 29.74 322.68 28.79 319.33 28.31 316.7 29.17 314.49 30 313.33 30.25 311.82 32.24 305.74 32.65 303.73 33.32 301.5 35.63 299.05 35.9 298.41 37.11 296.8 38.73 295.88 39.03 295.34 40.17 294.44 41.41 293.16 42.56 291.4 43.75 290.54 44.17 289.54 44.07 288.83 45.15 287.07 46.12 285.92 47.73 284.68 49.62 283.74 52.93 281.91 55.46 280.14 57.61 277.88 58.66 275.94 59.3 273.33 60.31 271.68 61.66 270.21 65.77 267.33 66.94 266.16 68.68 264.82 71.46 261.08 73.48 259.7 74.77 258.55 75.16 257.84 75.31 255.19 76.54 253.71 78.65 252.88 80.49 251.16 83.1 249.19 84.33 248.02 85.81 246.95 87 245.86 90.28 243.43 91.58 242.11 92.73 240.67 94.76 238.59 96.57 234.44 98.47 231.09 99.27 230.14 102.1 228.34 103.65 227.78 107.82 227.76 112.99 228.04 114.75 226.85 116.1 226.23 117.04 225.24 116.69 223.99 117.4 221.83 117.17 220.63 117.47 219.51 119.29 217.59 119.81 216.14 120.95 215.17 121.78 214.14 124.13 210.49 125.27 208.46 125.8 207.24 126.49 206.64 129.22 202.92 130.1 201.1 132.27 197.91 133.76 193.93 135.96 190.89 137.09 189.86 140.84 187.47 142.38 186.69 144.47 185.4 146.17 183.96 148.11 181.68 152.31 179.68 154.96 178.51 156.06 177.71 157.69 175.95 159.1 174.79 160.52 173.04 161.48 171.26 162.53 168.45 163.17 165.21 163.56 163.91 165.2 161 166.31 159.9 167.46 159.39 168.88 159.1 170.46 157.78 171.46 157.25 172.18 155.83 172.18 155.12 171.09 149.64 173.57 147.12 174.39 145.78 175.21 143.88 174.59 142.11 175.59 141.73 176.54 141.87 180.26 141.86 181.3 141.77 183.28 142.13 184.98 143.6 185.52 144.85 185.48 146.39 185.1 147.74 186.47 150.11 187.9 150.7 190.75 149.94 191.75 150.12 193.62 151.3 194.5 152.12 195.77 152.94 197.44 153.52 201.39 155.46 204.6 156.7 207.26 156.91 207.99 156.79 210.23 154.54 212 152.45 213.47 151.3 214.53 150.91 216.5 150.74 218.04 150.82 221.3 151.82 223.22 152.3 225.86 153.41 227.48 153.87 230.28 154.2 233.04 154.76 237.2 156.52 239.3 157.34 240.62 157.5 241.44 156.84 242.43 154.58 243.33 152.91 244.49 151.4 245.29 150.04 245.86 148.63 245.9 145.57 246.17 144.57 247.46 142.16 250.16 138.93 250.7 137.87 251 136.65 250.97 135.57 250.31 134.08 250.33 132.7 250.06 131.06 248.93 129.41 248.92 127.99 249.43 127.14 250.07 125.48 250.07 124.39 249.5 122.87 248.3 121.33 247.72 120.15 247.83 119.69 248.71 118.84 251.09 117.01 255.66 112.84 260.39 108.17 262.93 105.76 264.16 104.95 265.86 104.44 268.59 104.04 271.39 104.07 274.64 104.63 276.64 104.79 279.01 104.04 281.88 102.79 284.03 102.41 291.55 102.47 292.32 102.65 294.42 100.9 296.06 99.7 297.01 99.32 300.4 94.04 301.26 91.47 301.63 90.82 304.19 90.35 305.46 89.65 306.95 89.47 308.3 89.91 310.93 90.14 313.38 89.73 315.35 89.15 318.21 89.37 320.31 88.99 321.83 88.12 322.98 87.08 325.84 83.53 326.85 82.8 328.03 82.68 328.45 82.11 328.4 80.86 328.62 79.25 328.65 77.64 328.43 75.13 328.14 73.94 328.39 71.96 329.45 68.96 329.96 64.53 330.54 62.69 331.47 62.19 334.37 59.18 335.05 57.49 336.55 56.11 338.21 55.43 339.95 54.28 340.56 53.64 341.8 51.46 343.12 51.02 345.61 51.29 346.52 50.79 347.94 48.35 348.68 47.54 350.62 46.81 352.27 47.07 355.36 49.72 358.55 50.92 360.81 49.61 362.65 48.77 363.52 47.82 363.58 47.34 365.79 44.43 365.98 43.48 365.54 40.47 365.94 37.97 365.8 36.44 364.87 35.28 362.77 33.79 361.84 32.52 361.62 31.82 362.21 27.15 362.75 26.12 364.4 25.55 365.51 24.89 366.97 24.37 367.77 23.84 368.1 22.97 368.36 21.01 369.25 19.78 370.93 18.37 372.36 16.27 373.2 13.3 373.8 11.85 374.63 8.71 375.01 7.66 376.86 7.09 378.54 6.88 381.95 6.71 382.62 6.43 385.32 4.73 387.77 2.58 391.05 1.12 393.13 1 394.86 1.47 397.21 2.36 399.52 2.93 403.66 3.38 404.6 4.38 404.77 6.62 405.19 9.65 405.54 11.33 406.43 13.53 407.41 17.59 408.1 18.72 410.08 20.5 410.93 21.68 412.04 26.26 413.08 29.25 413.61 31.62 413.45 32.83 412.65 34.75 412.48 35.79 412.81 36.28 415.46 38.13 415.94 38.77 416.31 39.92 416.97 40.76 418.39 41.58 422.14 42.59 426.1 44.03 428.07 45.87 432.07 46.42 433.16 47.23 435.21 49.2 435.95 50.26 436.05 51.22 435.43 53.03 435.43 53.68 435.93 54.55 437.54 55.62 438.99 57.52 441 57.89 442.7 58.86 444.49 59.08 447.31 58.35 448.57 58.38 451.61 57.18 453.62 56.78 454.78 56.87 455.65 57.74 455.06 57.64 454.23 58.09 454.02 58.65 453.97 60.42 453.37 60.66 451.78 60.6 450.07 60.26 449.24 60.59 448.36 61.35 446.38 61.76 445.38 62.35 444.89 63.72 444.24 64.78 443.29 65.51 442.11 65.67 440.38 66.25 440.15 67.52 439.34 69.05 438.54 70 437.97 71.91 436.17 73 433.81 74.21 432.27 74.43 431.84 74.93 428.01 76.88 426.53 78.86 423.79 79.68 423.23 80.58 420.97 83.01 420.69 83.69 421.38 85.44 421.54 87.07 421.94 88.93 423.38 90.08 424.7 92.26 425.35 92.84 425.06 93.85 423.55 94.49 422.99 95.22 423.08 96.83 424.44 97.94 424.77 101.37 424.36 102.33 421.84 103.72 421.49 104.43 421.9 105.81 421.52 108.21 420.73 108.87 418.4 109.53 417.08 111.62 417.48 113.89 416.01 118.7 414.98 120.42 413.38 122.32 411.72 123.31 409.53 123.04 407.66 123.82 404.81 124.58 403.44 125.66 402.06 128.12 400.55 130.34 398.69 132.43 397.92 133.89 397.39 137.04 397.54 138.18 398.11 139.13 398.5 140.79 399.58 142.26 401.66 147.25 403.65 149.24 405.26 151.85 405.79 153.15 405.97 154.63 405.66 155.73 404.65 156.97 404.92 158.1 404.66 159.1 404.02 160.23 402.91 161.27 402.3 162.48 401.84 165.56 400.48 169.07 399.55 172.14 397.94 175.36 397.89 176.17 398.51 180.09 398.26 181.28 396.63 183.86 394.63 184.85 392.4 185.1 391.74 185.39 389.1 187.82 387.54 188.73 384.24 189.09 382.22 189.64 380.46 190.6 378.98 191.67 377.92 192.73 376.88 194.66 375.62 196.34 372.75 202.39 371.56 205.11 370.76 207.74 370.27 208.88 368.81 210.9 368.42 213.76 368.03 214.71 366.63 216.44 365.25 217.36 362.13 220.66 361.22 221.89 359.02 224.03 357.93 225.43 356.75 225.45 356.19 226.06 355.9 229.98 355.61 230.61 353.94 232.23 353.76 234.42 353.27 236.98 352.52 239.64 352.3 241.62 352.54 243.01 353.18 244.76 351.64 246.39 351.07 247.38 350.89 248.47 351.26 249.6 351.7 250.08 351.58 250.96 349.55 253.06 348.49 255.32 347.81 256.18 346.9 256.7 343.76 258.06 340.98 259.57 340.39 260.77 340.48 261.83 339.7 263.14 337.43 263.06 335.42 262.15 332.56 262.23 331.2 261.23 330.37 260.21 328.9 259.69 326.98 259.45 325.99 259.96 325.05 261.28 324.79 262.58 323.54 263.28 322.86 264.22 321.87 264.41 319.47 263.18 317.72 263.23 316.28 264.06 315.44 265.04 315.14 266.61 314.73 267.47 312.87 267.77 311.39 268.21 310.64 269.23 309.92 269.56 307.05 270.01 306.04 270.71 305.32 271.73 304.34 272.36 301.43 272.42 299.12 272.27 298.24 272.37 297.54 272.88 297.44 274.29 296.89 275 295.82 275.4 293.69 275.87 293.08 276.66 292.62 278.37 291.92 278.85 290.03 279.02 288.69 279.79 287.99 279.86 286.26 279.31 285.22 279.47 284.38 280.31 283.73 281.36 283.08 283.27 281.83 284.5 281.54 285.36 281.4 287.98 280.7 290.66 280.91 291.37 282.65 292.09 283.58 292.85 283.55 294.82 284.03 296.11 282.64 298.63 282.49 299.61 283.01 303.01 283.4 303.84 283.89 306.36 284.07 310.85 284.26 312.01 284.84 313.75 284.8 315.42 284.48 317.19 283.62 319.11 282.79 319.92 281.69 320.48 279.28 321.2 278.62 322.08 278.37 326.06 278.1 328.01 277.53 329.34 275.03 330.72 272.74 331.21 268.31 331.31 266.16 332.06 264.58 334.14 263.67 335.78 263.53 336.61 262.66 339.16 263.17 341.11 263.26 342.41 262.74 343.32 259.87 344.83 258.24 347.03 256.94 350.32 256.56 350.75 255.36 353.04 254.78 355.21 255.06 356.21 255.72 357.07 258.43 358.95 260.23 360.43 260.61 362.16 260.45 364.59 260.68 366.67 262.05 369.78 263.23 372.21 263.42 373.03 262.88 375.07 261.63 377.75 260.87 378.66 259.29 379.09 254.43 379.81 251.81 380.28 251.23 380.84 251.17 384.17 250.55 385.82 249.54 386.51 246.95 387.31 245.61 388 245.51 389.91 246.06 393.94 246.06 395.76 245.14 397.8 240.87 405.82 239.34 406.99 237.67 407.55 235.62 408.75 234.85 410.05 232.01 416.98 231.86 417.62 232.35 419.91 231.53 422.07 230.19 424.02 228.56 424.79 226.09 425.05 223.7 425.6 222.41 426.2 220.12 426.85 214.92 428.56 214.33 428.91 206.55 431.54 204.71 432.56 202.52 434.24 199.05 437.41 197.28 438.06 196.25 438.06 191.41 436.44 188.82 435.96 186.79 435.72 183.54 435.56 178.43 435.51 174.67 435.81 170.99 435.59 167.31 434.8 164.43 432.97 161.56 431.61 157.71 430.4 155.48 429.46 154.56 428.9 153.88 427.34 153.19 422.75 153.04 420.35 153.6 411.83 153.76 406.97 153.74 402.7 153.48 395.4 152.61 388.5 151.2 382.85 150.41 381.14 149.09 377.83 147.35 374.93 145.91 373.29 144.48 372.36 139.49 369.33 136.82 367.52 134.46 366.07 132.2 364.96 128.16 363.84 126.41 363.61 122.9 363.45 119.78 363.73 115.42 364.79 110.8 366.43 103.46 368.52 100.7 369.23 95.17 370.86 90.35 372.38 80.33 374.75 77.14 375.76 74.53 376.7 70.31 378.47 67.45 379.49 63.61 380.67 58.98 381.34 56.36 381.35 52.68 381.11 49.64 381.1 46.02 380.57 42.46 379.32 38.2 377.38 35.25 375.49 31.39 372.74 30.03 372 26.52 369.5 24.59 368.46 21.1 365.88 18.73 363.93 15.44 360.24 14.39 357.06 13.91 355.19 12.51 350.42 12.1 349.43 11.48 346.99 11.38 346.06 10.44 341.98 9.46 338.3 7.27 334.41 Z" id="北投區" data-countyname="臺北市"/>
</g>
</svg>
